G04 #@! TF.GenerationSoftware,KiCad,Pcbnew,9.0.0*
G04 #@! TF.CreationDate,2025-03-19T22:07:30+07:00*
G04 #@! TF.ProjectId,USB_Screen_V0,5553425f-5363-4726-9565-6e5f56302e6b,rev?*
G04 #@! TF.SameCoordinates,PX3f8d880PY80f7230*
G04 #@! TF.FileFunction,Paste,Bot*
G04 #@! TF.FilePolarity,Positive*
%FSLAX46Y46*%
G04 Gerber Fmt 4.6, Leading zero omitted, Abs format (unit mm)*
G04 Created by KiCad (PCBNEW 9.0.0) date 2025-03-19 22:07:30*
%MOMM*%
%LPD*%
G01*
G04 APERTURE LIST*
G04 Aperture macros list*
%AMRoundRect*
0 Rectangle with rounded corners*
0 $1 Rounding radius*
0 $2 $3 $4 $5 $6 $7 $8 $9 X,Y pos of 4 corners*
0 Add a 4 corners polygon primitive as box body*
4,1,4,$2,$3,$4,$5,$6,$7,$8,$9,$2,$3,0*
0 Add four circle primitives for the rounded corners*
1,1,$1+$1,$2,$3*
1,1,$1+$1,$4,$5*
1,1,$1+$1,$6,$7*
1,1,$1+$1,$8,$9*
0 Add four rect primitives between the rounded corners*
20,1,$1+$1,$2,$3,$4,$5,0*
20,1,$1+$1,$4,$5,$6,$7,0*
20,1,$1+$1,$6,$7,$8,$9,0*
20,1,$1+$1,$8,$9,$2,$3,0*%
G04 Aperture macros list end*
%ADD10C,0.010000*%
%ADD11RoundRect,0.200000X-0.275000X0.200000X-0.275000X-0.200000X0.275000X-0.200000X0.275000X0.200000X0*%
%ADD12RoundRect,0.218750X0.218750X0.256250X-0.218750X0.256250X-0.218750X-0.256250X0.218750X-0.256250X0*%
%ADD13RoundRect,0.225000X-0.225000X-0.250000X0.225000X-0.250000X0.225000X0.250000X-0.225000X0.250000X0*%
%ADD14RoundRect,0.200000X-0.200000X-0.275000X0.200000X-0.275000X0.200000X0.275000X-0.200000X0.275000X0*%
%ADD15RoundRect,0.225000X0.250000X-0.225000X0.250000X0.225000X-0.250000X0.225000X-0.250000X-0.225000X0*%
%ADD16RoundRect,0.225000X0.225000X0.250000X-0.225000X0.250000X-0.225000X-0.250000X0.225000X-0.250000X0*%
%ADD17R,1.800000X0.298000*%
%ADD18RoundRect,0.200000X0.275000X-0.200000X0.275000X0.200000X-0.275000X0.200000X-0.275000X-0.200000X0*%
%ADD19RoundRect,0.225000X-0.250000X0.225000X-0.250000X-0.225000X0.250000X-0.225000X0.250000X0.225000X0*%
%ADD20RoundRect,0.075000X-0.200000X0.075000X-0.200000X-0.075000X0.200000X-0.075000X0.200000X0.075000X0*%
%ADD21RoundRect,0.200000X0.200000X0.275000X-0.200000X0.275000X-0.200000X-0.275000X0.200000X-0.275000X0*%
%ADD22RoundRect,0.250000X-0.475000X0.250000X-0.475000X-0.250000X0.475000X-0.250000X0.475000X0.250000X0*%
%ADD23RoundRect,0.250000X1.000000X0.650000X-1.000000X0.650000X-1.000000X-0.650000X1.000000X-0.650000X0*%
%ADD24RoundRect,0.150000X-0.150000X-0.200000X0.150000X-0.200000X0.150000X0.200000X-0.150000X0.200000X0*%
%ADD25R,0.450000X1.450000*%
%ADD26RoundRect,0.250000X0.715000X0.695000X-0.715000X0.695000X-0.715000X-0.695000X0.715000X-0.695000X0*%
%ADD27RoundRect,0.100000X0.687500X0.100000X-0.687500X0.100000X-0.687500X-0.100000X0.687500X-0.100000X0*%
%ADD28RoundRect,0.250000X0.650000X-1.000000X0.650000X1.000000X-0.650000X1.000000X-0.650000X-1.000000X0*%
%ADD29R,0.870000X0.300000*%
%ADD30RoundRect,0.250000X-0.650000X1.000000X-0.650000X-1.000000X0.650000X-1.000000X0.650000X1.000000X0*%
%ADD31RoundRect,0.218750X-0.218750X-0.256250X0.218750X-0.256250X0.218750X0.256250X-0.218750X0.256250X0*%
%ADD32RoundRect,0.250000X0.475000X-0.250000X0.475000X0.250000X-0.475000X0.250000X-0.475000X-0.250000X0*%
%ADD33RoundRect,0.250000X-1.425000X0.362500X-1.425000X-0.362500X1.425000X-0.362500X1.425000X0.362500X0*%
%ADD34RoundRect,0.100000X-0.712500X-0.100000X0.712500X-0.100000X0.712500X0.100000X-0.712500X0.100000X0*%
%ADD35R,0.300000X1.300000*%
%ADD36R,1.800000X2.200000*%
%ADD37R,2.400000X5.700000*%
%ADD38RoundRect,0.150000X0.150000X0.200000X-0.150000X0.200000X-0.150000X-0.200000X0.150000X-0.200000X0*%
%ADD39RoundRect,0.150000X-0.512500X-0.150000X0.512500X-0.150000X0.512500X0.150000X-0.512500X0.150000X0*%
%ADD40RoundRect,0.250000X-1.000000X-0.650000X1.000000X-0.650000X1.000000X0.650000X-1.000000X0.650000X0*%
%ADD41R,3.700000X1.100000*%
%ADD42R,1.200000X1.400000*%
%ADD43RoundRect,0.250000X-0.320000X-0.320000X0.320000X-0.320000X0.320000X0.320000X-0.320000X0.320000X0*%
%ADD44RoundRect,0.075000X-0.437500X-0.075000X0.437500X-0.075000X0.437500X0.075000X-0.437500X0.075000X0*%
%ADD45RoundRect,0.075000X-0.075000X-0.437500X0.075000X-0.437500X0.075000X0.437500X-0.075000X0.437500X0*%
%ADD46RoundRect,0.218750X0.256250X-0.218750X0.256250X0.218750X-0.256250X0.218750X-0.256250X-0.218750X0*%
%ADD47RoundRect,0.031250X-0.093750X0.218750X-0.093750X-0.218750X0.093750X-0.218750X0.093750X0.218750X0*%
%ADD48RoundRect,0.150000X0.587500X0.150000X-0.587500X0.150000X-0.587500X-0.150000X0.587500X-0.150000X0*%
%ADD49RoundRect,0.250000X-0.250000X-0.475000X0.250000X-0.475000X0.250000X0.475000X-0.250000X0.475000X0*%
%ADD50RoundRect,0.150000X0.150000X-0.825000X0.150000X0.825000X-0.150000X0.825000X-0.150000X-0.825000X0*%
%ADD51RoundRect,0.150000X-0.587500X-0.150000X0.587500X-0.150000X0.587500X0.150000X-0.587500X0.150000X0*%
%ADD52RoundRect,0.250000X0.375000X0.375000X-0.375000X0.375000X-0.375000X-0.375000X0.375000X-0.375000X0*%
%ADD53RoundRect,0.062500X0.375000X0.062500X-0.375000X0.062500X-0.375000X-0.062500X0.375000X-0.062500X0*%
%ADD54RoundRect,0.062500X0.062500X0.375000X-0.062500X0.375000X-0.062500X-0.375000X0.062500X-0.375000X0*%
%ADD55R,1.150000X3.600000*%
%ADD56RoundRect,0.075000X0.662500X0.075000X-0.662500X0.075000X-0.662500X-0.075000X0.662500X-0.075000X0*%
%ADD57RoundRect,0.075000X0.075000X0.662500X-0.075000X0.662500X-0.075000X-0.662500X0.075000X-0.662500X0*%
%ADD58RoundRect,0.250000X0.250000X0.475000X-0.250000X0.475000X-0.250000X-0.475000X0.250000X-0.475000X0*%
%ADD59R,1.600000X0.300000*%
%ADD60R,0.300000X1.600000*%
G04 APERTURE END LIST*
D10*
X19708000Y41309000D02*
X19710000Y41309000D01*
X19713000Y41308000D01*
X19715000Y41308000D01*
X19718000Y41307000D01*
X19720000Y41306000D01*
X19723000Y41305000D01*
X19725000Y41303000D01*
X19727000Y41302000D01*
X19729000Y41300000D01*
X19731000Y41299000D01*
X19733000Y41297000D01*
X19735000Y41295000D01*
X19737000Y41293000D01*
X19739000Y41291000D01*
X19740000Y41289000D01*
X19742000Y41287000D01*
X19743000Y41285000D01*
X19745000Y41283000D01*
X19746000Y41280000D01*
X19747000Y41278000D01*
X19748000Y41275000D01*
X19748000Y41273000D01*
X19749000Y41270000D01*
X19749000Y41268000D01*
X19750000Y41265000D01*
X19750000Y41263000D01*
X19750000Y41260000D01*
X19750000Y40460000D01*
X19750000Y40457000D01*
X19750000Y40455000D01*
X19749000Y40452000D01*
X19749000Y40450000D01*
X19748000Y40447000D01*
X19748000Y40445000D01*
X19747000Y40442000D01*
X19746000Y40440000D01*
X19745000Y40437000D01*
X19743000Y40435000D01*
X19742000Y40433000D01*
X19740000Y40431000D01*
X19739000Y40429000D01*
X19737000Y40427000D01*
X19735000Y40425000D01*
X19733000Y40423000D01*
X19731000Y40421000D01*
X19729000Y40420000D01*
X19727000Y40418000D01*
X19725000Y40417000D01*
X19723000Y40415000D01*
X19720000Y40414000D01*
X19718000Y40413000D01*
X19715000Y40412000D01*
X19713000Y40412000D01*
X19710000Y40411000D01*
X19708000Y40411000D01*
X19705000Y40410000D01*
X19703000Y40410000D01*
X19700000Y40410000D01*
X19100000Y40410000D01*
X19097000Y40410000D01*
X19095000Y40410000D01*
X19092000Y40411000D01*
X19090000Y40411000D01*
X19087000Y40412000D01*
X19085000Y40412000D01*
X19082000Y40413000D01*
X19080000Y40414000D01*
X19077000Y40415000D01*
X19075000Y40417000D01*
X19073000Y40418000D01*
X19071000Y40420000D01*
X19069000Y40421000D01*
X19067000Y40423000D01*
X19065000Y40425000D01*
X19063000Y40427000D01*
X19061000Y40429000D01*
X19060000Y40431000D01*
X19058000Y40433000D01*
X19057000Y40435000D01*
X19055000Y40437000D01*
X19054000Y40440000D01*
X19053000Y40442000D01*
X19052000Y40445000D01*
X19052000Y40447000D01*
X19051000Y40450000D01*
X19051000Y40452000D01*
X19050000Y40455000D01*
X19050000Y40457000D01*
X19050000Y40460000D01*
X19050000Y41260000D01*
X19050000Y41263000D01*
X19050000Y41265000D01*
X19051000Y41268000D01*
X19051000Y41270000D01*
X19052000Y41273000D01*
X19052000Y41275000D01*
X19053000Y41278000D01*
X19054000Y41280000D01*
X19055000Y41283000D01*
X19057000Y41285000D01*
X19058000Y41287000D01*
X19060000Y41289000D01*
X19061000Y41291000D01*
X19063000Y41293000D01*
X19065000Y41295000D01*
X19067000Y41297000D01*
X19069000Y41299000D01*
X19071000Y41300000D01*
X19073000Y41302000D01*
X19075000Y41303000D01*
X19077000Y41305000D01*
X19080000Y41306000D01*
X19082000Y41307000D01*
X19085000Y41308000D01*
X19087000Y41308000D01*
X19090000Y41309000D01*
X19092000Y41309000D01*
X19095000Y41310000D01*
X19097000Y41310000D01*
X19100000Y41310000D01*
X19700000Y41310000D01*
X19703000Y41310000D01*
X19705000Y41310000D01*
X19708000Y41309000D01*
G36*
X19708000Y41309000D02*
G01*
X19710000Y41309000D01*
X19713000Y41308000D01*
X19715000Y41308000D01*
X19718000Y41307000D01*
X19720000Y41306000D01*
X19723000Y41305000D01*
X19725000Y41303000D01*
X19727000Y41302000D01*
X19729000Y41300000D01*
X19731000Y41299000D01*
X19733000Y41297000D01*
X19735000Y41295000D01*
X19737000Y41293000D01*
X19739000Y41291000D01*
X19740000Y41289000D01*
X19742000Y41287000D01*
X19743000Y41285000D01*
X19745000Y41283000D01*
X19746000Y41280000D01*
X19747000Y41278000D01*
X19748000Y41275000D01*
X19748000Y41273000D01*
X19749000Y41270000D01*
X19749000Y41268000D01*
X19750000Y41265000D01*
X19750000Y41263000D01*
X19750000Y41260000D01*
X19750000Y40460000D01*
X19750000Y40457000D01*
X19750000Y40455000D01*
X19749000Y40452000D01*
X19749000Y40450000D01*
X19748000Y40447000D01*
X19748000Y40445000D01*
X19747000Y40442000D01*
X19746000Y40440000D01*
X19745000Y40437000D01*
X19743000Y40435000D01*
X19742000Y40433000D01*
X19740000Y40431000D01*
X19739000Y40429000D01*
X19737000Y40427000D01*
X19735000Y40425000D01*
X19733000Y40423000D01*
X19731000Y40421000D01*
X19729000Y40420000D01*
X19727000Y40418000D01*
X19725000Y40417000D01*
X19723000Y40415000D01*
X19720000Y40414000D01*
X19718000Y40413000D01*
X19715000Y40412000D01*
X19713000Y40412000D01*
X19710000Y40411000D01*
X19708000Y40411000D01*
X19705000Y40410000D01*
X19703000Y40410000D01*
X19700000Y40410000D01*
X19100000Y40410000D01*
X19097000Y40410000D01*
X19095000Y40410000D01*
X19092000Y40411000D01*
X19090000Y40411000D01*
X19087000Y40412000D01*
X19085000Y40412000D01*
X19082000Y40413000D01*
X19080000Y40414000D01*
X19077000Y40415000D01*
X19075000Y40417000D01*
X19073000Y40418000D01*
X19071000Y40420000D01*
X19069000Y40421000D01*
X19067000Y40423000D01*
X19065000Y40425000D01*
X19063000Y40427000D01*
X19061000Y40429000D01*
X19060000Y40431000D01*
X19058000Y40433000D01*
X19057000Y40435000D01*
X19055000Y40437000D01*
X19054000Y40440000D01*
X19053000Y40442000D01*
X19052000Y40445000D01*
X19052000Y40447000D01*
X19051000Y40450000D01*
X19051000Y40452000D01*
X19050000Y40455000D01*
X19050000Y40457000D01*
X19050000Y40460000D01*
X19050000Y41260000D01*
X19050000Y41263000D01*
X19050000Y41265000D01*
X19051000Y41268000D01*
X19051000Y41270000D01*
X19052000Y41273000D01*
X19052000Y41275000D01*
X19053000Y41278000D01*
X19054000Y41280000D01*
X19055000Y41283000D01*
X19057000Y41285000D01*
X19058000Y41287000D01*
X19060000Y41289000D01*
X19061000Y41291000D01*
X19063000Y41293000D01*
X19065000Y41295000D01*
X19067000Y41297000D01*
X19069000Y41299000D01*
X19071000Y41300000D01*
X19073000Y41302000D01*
X19075000Y41303000D01*
X19077000Y41305000D01*
X19080000Y41306000D01*
X19082000Y41307000D01*
X19085000Y41308000D01*
X19087000Y41308000D01*
X19090000Y41309000D01*
X19092000Y41309000D01*
X19095000Y41310000D01*
X19097000Y41310000D01*
X19100000Y41310000D01*
X19700000Y41310000D01*
X19703000Y41310000D01*
X19705000Y41310000D01*
X19708000Y41309000D01*
G37*
X20608000Y41309000D02*
X20610000Y41309000D01*
X20613000Y41308000D01*
X20615000Y41308000D01*
X20618000Y41307000D01*
X20620000Y41306000D01*
X20623000Y41305000D01*
X20625000Y41303000D01*
X20627000Y41302000D01*
X20629000Y41300000D01*
X20631000Y41299000D01*
X20633000Y41297000D01*
X20635000Y41295000D01*
X20637000Y41293000D01*
X20639000Y41291000D01*
X20640000Y41289000D01*
X20642000Y41287000D01*
X20643000Y41285000D01*
X20645000Y41283000D01*
X20646000Y41280000D01*
X20647000Y41278000D01*
X20648000Y41275000D01*
X20648000Y41273000D01*
X20649000Y41270000D01*
X20649000Y41268000D01*
X20650000Y41265000D01*
X20650000Y41263000D01*
X20650000Y41260000D01*
X20650000Y40460000D01*
X20650000Y40457000D01*
X20650000Y40455000D01*
X20649000Y40452000D01*
X20649000Y40450000D01*
X20648000Y40447000D01*
X20648000Y40445000D01*
X20647000Y40442000D01*
X20646000Y40440000D01*
X20645000Y40437000D01*
X20643000Y40435000D01*
X20642000Y40433000D01*
X20640000Y40431000D01*
X20639000Y40429000D01*
X20637000Y40427000D01*
X20635000Y40425000D01*
X20633000Y40423000D01*
X20631000Y40421000D01*
X20629000Y40420000D01*
X20627000Y40418000D01*
X20625000Y40417000D01*
X20623000Y40415000D01*
X20620000Y40414000D01*
X20618000Y40413000D01*
X20615000Y40412000D01*
X20613000Y40412000D01*
X20610000Y40411000D01*
X20608000Y40411000D01*
X20605000Y40410000D01*
X20603000Y40410000D01*
X20600000Y40410000D01*
X20000000Y40410000D01*
X19997000Y40410000D01*
X19995000Y40410000D01*
X19992000Y40411000D01*
X19990000Y40411000D01*
X19987000Y40412000D01*
X19985000Y40412000D01*
X19982000Y40413000D01*
X19980000Y40414000D01*
X19977000Y40415000D01*
X19975000Y40417000D01*
X19973000Y40418000D01*
X19971000Y40420000D01*
X19969000Y40421000D01*
X19967000Y40423000D01*
X19965000Y40425000D01*
X19963000Y40427000D01*
X19961000Y40429000D01*
X19960000Y40431000D01*
X19958000Y40433000D01*
X19957000Y40435000D01*
X19955000Y40437000D01*
X19954000Y40440000D01*
X19953000Y40442000D01*
X19952000Y40445000D01*
X19952000Y40447000D01*
X19951000Y40450000D01*
X19951000Y40452000D01*
X19950000Y40455000D01*
X19950000Y40457000D01*
X19950000Y40460000D01*
X19950000Y41260000D01*
X19950000Y41263000D01*
X19950000Y41265000D01*
X19951000Y41268000D01*
X19951000Y41270000D01*
X19952000Y41273000D01*
X19952000Y41275000D01*
X19953000Y41278000D01*
X19954000Y41280000D01*
X19955000Y41283000D01*
X19957000Y41285000D01*
X19958000Y41287000D01*
X19960000Y41289000D01*
X19961000Y41291000D01*
X19963000Y41293000D01*
X19965000Y41295000D01*
X19967000Y41297000D01*
X19969000Y41299000D01*
X19971000Y41300000D01*
X19973000Y41302000D01*
X19975000Y41303000D01*
X19977000Y41305000D01*
X19980000Y41306000D01*
X19982000Y41307000D01*
X19985000Y41308000D01*
X19987000Y41308000D01*
X19990000Y41309000D01*
X19992000Y41309000D01*
X19995000Y41310000D01*
X19997000Y41310000D01*
X20000000Y41310000D01*
X20600000Y41310000D01*
X20603000Y41310000D01*
X20605000Y41310000D01*
X20608000Y41309000D01*
G36*
X20608000Y41309000D02*
G01*
X20610000Y41309000D01*
X20613000Y41308000D01*
X20615000Y41308000D01*
X20618000Y41307000D01*
X20620000Y41306000D01*
X20623000Y41305000D01*
X20625000Y41303000D01*
X20627000Y41302000D01*
X20629000Y41300000D01*
X20631000Y41299000D01*
X20633000Y41297000D01*
X20635000Y41295000D01*
X20637000Y41293000D01*
X20639000Y41291000D01*
X20640000Y41289000D01*
X20642000Y41287000D01*
X20643000Y41285000D01*
X20645000Y41283000D01*
X20646000Y41280000D01*
X20647000Y41278000D01*
X20648000Y41275000D01*
X20648000Y41273000D01*
X20649000Y41270000D01*
X20649000Y41268000D01*
X20650000Y41265000D01*
X20650000Y41263000D01*
X20650000Y41260000D01*
X20650000Y40460000D01*
X20650000Y40457000D01*
X20650000Y40455000D01*
X20649000Y40452000D01*
X20649000Y40450000D01*
X20648000Y40447000D01*
X20648000Y40445000D01*
X20647000Y40442000D01*
X20646000Y40440000D01*
X20645000Y40437000D01*
X20643000Y40435000D01*
X20642000Y40433000D01*
X20640000Y40431000D01*
X20639000Y40429000D01*
X20637000Y40427000D01*
X20635000Y40425000D01*
X20633000Y40423000D01*
X20631000Y40421000D01*
X20629000Y40420000D01*
X20627000Y40418000D01*
X20625000Y40417000D01*
X20623000Y40415000D01*
X20620000Y40414000D01*
X20618000Y40413000D01*
X20615000Y40412000D01*
X20613000Y40412000D01*
X20610000Y40411000D01*
X20608000Y40411000D01*
X20605000Y40410000D01*
X20603000Y40410000D01*
X20600000Y40410000D01*
X20000000Y40410000D01*
X19997000Y40410000D01*
X19995000Y40410000D01*
X19992000Y40411000D01*
X19990000Y40411000D01*
X19987000Y40412000D01*
X19985000Y40412000D01*
X19982000Y40413000D01*
X19980000Y40414000D01*
X19977000Y40415000D01*
X19975000Y40417000D01*
X19973000Y40418000D01*
X19971000Y40420000D01*
X19969000Y40421000D01*
X19967000Y40423000D01*
X19965000Y40425000D01*
X19963000Y40427000D01*
X19961000Y40429000D01*
X19960000Y40431000D01*
X19958000Y40433000D01*
X19957000Y40435000D01*
X19955000Y40437000D01*
X19954000Y40440000D01*
X19953000Y40442000D01*
X19952000Y40445000D01*
X19952000Y40447000D01*
X19951000Y40450000D01*
X19951000Y40452000D01*
X19950000Y40455000D01*
X19950000Y40457000D01*
X19950000Y40460000D01*
X19950000Y41260000D01*
X19950000Y41263000D01*
X19950000Y41265000D01*
X19951000Y41268000D01*
X19951000Y41270000D01*
X19952000Y41273000D01*
X19952000Y41275000D01*
X19953000Y41278000D01*
X19954000Y41280000D01*
X19955000Y41283000D01*
X19957000Y41285000D01*
X19958000Y41287000D01*
X19960000Y41289000D01*
X19961000Y41291000D01*
X19963000Y41293000D01*
X19965000Y41295000D01*
X19967000Y41297000D01*
X19969000Y41299000D01*
X19971000Y41300000D01*
X19973000Y41302000D01*
X19975000Y41303000D01*
X19977000Y41305000D01*
X19980000Y41306000D01*
X19982000Y41307000D01*
X19985000Y41308000D01*
X19987000Y41308000D01*
X19990000Y41309000D01*
X19992000Y41309000D01*
X19995000Y41310000D01*
X19997000Y41310000D01*
X20000000Y41310000D01*
X20600000Y41310000D01*
X20603000Y41310000D01*
X20605000Y41310000D01*
X20608000Y41309000D01*
G37*
X57611670Y85718330D02*
X54630000Y85718330D01*
X54630000Y88700000D01*
X57611670Y88700000D01*
X57611670Y85718330D01*
G36*
X57611670Y85718330D02*
G01*
X54630000Y85718330D01*
X54630000Y88700000D01*
X57611670Y88700000D01*
X57611670Y85718330D01*
G37*
D11*
X96933320Y72835000D03*
X96933320Y71185000D03*
D12*
X71687500Y100060000D03*
X70112500Y100060000D03*
D13*
X45125000Y38210000D03*
X46675000Y38210000D03*
D14*
X70075000Y91560000D03*
X71725000Y91560000D03*
D15*
X128720000Y22880000D03*
X128720000Y24430000D03*
D14*
X113912500Y72072500D03*
X115562500Y72072500D03*
D16*
X49875000Y43760000D03*
X48325000Y43760000D03*
D14*
X26225000Y69460000D03*
X27875000Y69460000D03*
D11*
X74299996Y72835000D03*
X74299996Y71185000D03*
X120150000Y59735000D03*
X120150000Y58085000D03*
X133660000Y31590000D03*
X133660000Y29940000D03*
D14*
X130315000Y31555000D03*
X131965000Y31555000D03*
D17*
X8437500Y100687500D03*
X8437500Y100187500D03*
X8437500Y99687500D03*
X8437500Y99187500D03*
X8437500Y98687500D03*
X8437500Y98187500D03*
X8437500Y97687500D03*
X8437500Y97187500D03*
X8437500Y96687500D03*
X8437500Y96187500D03*
X8437500Y95687500D03*
X8437500Y95187500D03*
X8437500Y94687500D03*
X8437500Y94187500D03*
X8437500Y93687500D03*
X8437500Y93187500D03*
X8437500Y92687500D03*
X8437500Y92187500D03*
X8437500Y91687500D03*
D18*
X35650000Y26085000D03*
X35650000Y27735000D03*
D19*
X28670000Y28470000D03*
X28670000Y26920000D03*
D15*
X135650000Y71810000D03*
X135650000Y73360000D03*
D11*
X66216666Y72835000D03*
X66216666Y71185000D03*
D20*
X14100000Y100460000D03*
X14100000Y99960000D03*
X14100000Y99460000D03*
X14100000Y98960000D03*
X14100000Y98460000D03*
X13330000Y98460000D03*
X13330000Y98960000D03*
X13330000Y99460000D03*
X13330000Y99960000D03*
X13330000Y100460000D03*
D21*
X62200000Y64585000D03*
X60550000Y64585000D03*
D14*
X10775000Y68560000D03*
X12425000Y68560000D03*
D22*
X118700000Y56410000D03*
X118700000Y54510000D03*
X49100000Y61660000D03*
X49100000Y59760000D03*
D23*
X46100000Y61560000D03*
X42100000Y61560000D03*
D15*
X39950000Y82785000D03*
X39950000Y84335000D03*
D11*
X82383326Y72835000D03*
X82383326Y71185000D03*
D18*
X58850000Y33385000D03*
X58850000Y35035000D03*
D14*
X48400000Y48210000D03*
X50050000Y48210000D03*
D11*
X71066664Y72835000D03*
X71066664Y71185000D03*
D19*
X60600000Y73935000D03*
X60600000Y72385000D03*
D11*
X46660000Y41475000D03*
X46660000Y39825000D03*
D15*
X128720000Y26380000D03*
X128720000Y27930000D03*
X138450000Y54160000D03*
X138450000Y55710000D03*
D11*
X69449998Y72835000D03*
X69449998Y71185000D03*
X80766660Y72835000D03*
X80766660Y71185000D03*
X87233324Y72835000D03*
X87233324Y71185000D03*
D14*
X130315000Y27805000D03*
X131965000Y27805000D03*
D11*
X118450000Y59710000D03*
X118450000Y58060000D03*
D24*
X26720000Y26495000D03*
X25320000Y26495000D03*
D11*
X53700000Y53135000D03*
X53700000Y51485000D03*
D14*
X98575000Y54895000D03*
X100225000Y54895000D03*
X20425000Y44075000D03*
X22075000Y44075000D03*
D21*
X100225000Y60025000D03*
X98575000Y60025000D03*
D25*
X22625000Y74310000D03*
X23275000Y74310000D03*
X23925000Y74310000D03*
X24575000Y74310000D03*
X24575000Y69910000D03*
X23925000Y69910000D03*
X23275000Y69910000D03*
X22625000Y69910000D03*
D18*
X124800000Y57985000D03*
X124800000Y59635000D03*
X112312500Y64197500D03*
X112312500Y65847500D03*
D26*
X128137500Y64765000D03*
X128137500Y67105000D03*
D27*
X131000000Y69510000D03*
X131000000Y68860000D03*
X131000000Y68210000D03*
X131000000Y67560000D03*
X131000000Y66910000D03*
X131000000Y66260000D03*
X131000000Y65610000D03*
X131000000Y64960000D03*
X131000000Y64310000D03*
X131000000Y63660000D03*
X131000000Y63010000D03*
X131000000Y62360000D03*
X125275000Y62360000D03*
X125275000Y63010000D03*
X125275000Y63660000D03*
X125275000Y64310000D03*
X125275000Y64960000D03*
X125275000Y65610000D03*
X125275000Y66260000D03*
X125275000Y66910000D03*
X125275000Y67560000D03*
X125275000Y68210000D03*
X125275000Y68860000D03*
X125275000Y69510000D03*
D11*
X54600000Y35085000D03*
X54600000Y33435000D03*
D16*
X125275000Y71410000D03*
X123725000Y71410000D03*
D21*
X27020000Y32245000D03*
X25370000Y32245000D03*
D28*
X16850000Y69560000D03*
X16850000Y73560000D03*
D29*
X3795000Y69380000D03*
X3795000Y67880000D03*
X3795000Y67380000D03*
X3795000Y66880000D03*
X3795000Y66380000D03*
X3795000Y65880000D03*
X3795000Y65380000D03*
X3795000Y63880000D03*
X5525000Y63880000D03*
X5525000Y65380000D03*
X5525000Y65880000D03*
X5525000Y66380000D03*
X5525000Y66880000D03*
X5525000Y67380000D03*
X5525000Y67880000D03*
X5525000Y69380000D03*
D14*
X70075000Y88260000D03*
X71725000Y88260000D03*
D30*
X17700000Y51460000D03*
X17700000Y47460000D03*
D21*
X106400000Y77260000D03*
X104750000Y77260000D03*
D31*
X124512500Y76855000D03*
X126087500Y76855000D03*
D11*
X25000000Y90835000D03*
X25000000Y89185000D03*
D32*
X121900000Y81805000D03*
X121900000Y83705000D03*
D19*
X44500000Y27285000D03*
X44500000Y25735000D03*
D11*
X54600000Y38835000D03*
X54600000Y37185000D03*
X59100000Y53135000D03*
X59100000Y51485000D03*
D14*
X98575000Y61735000D03*
X100225000Y61735000D03*
D33*
X45150000Y73535000D03*
X45150000Y67610000D03*
D16*
X17525000Y41875000D03*
X15975000Y41875000D03*
D19*
X33100000Y65710000D03*
X33100000Y64160000D03*
X20400000Y74585000D03*
X20400000Y73035000D03*
D11*
X27700000Y90835000D03*
X27700000Y89185000D03*
D34*
X36187500Y65085000D03*
X36187500Y65735000D03*
X36187500Y66385000D03*
X36187500Y67035000D03*
X40412500Y67035000D03*
X40412500Y66385000D03*
X40412500Y65735000D03*
X40412500Y65085000D03*
D18*
X130800000Y71760000D03*
X130800000Y73410000D03*
D35*
X66850000Y55510000D03*
X67350000Y55510000D03*
X67850000Y55510000D03*
X68350000Y55510000D03*
X68850000Y55510000D03*
X69350000Y55510000D03*
X69850000Y55510000D03*
X70350000Y55510000D03*
X70850000Y55510000D03*
X71350000Y55510000D03*
X71850000Y55510000D03*
X72350000Y55510000D03*
X72850000Y55510000D03*
X73350000Y55510000D03*
X73850000Y55510000D03*
X74350000Y55510000D03*
X74850000Y55510000D03*
X75350000Y55510000D03*
X75850000Y55510000D03*
X76350000Y55510000D03*
X76850000Y55510000D03*
X77350000Y55510000D03*
X77850000Y55510000D03*
X78350000Y55510000D03*
X78850000Y55510000D03*
X79350000Y55510000D03*
X79850000Y55510000D03*
X80350000Y55510000D03*
X80850000Y55510000D03*
X81350000Y55510000D03*
X81850000Y55510000D03*
X82350000Y55510000D03*
X82850000Y55510000D03*
X83350000Y55510000D03*
X83850000Y55510000D03*
X84350000Y55510000D03*
X84850000Y55510000D03*
X85350000Y55510000D03*
X85850000Y55510000D03*
X86350000Y55510000D03*
X86850000Y55510000D03*
X87350000Y55510000D03*
X87850000Y55510000D03*
X88350000Y55510000D03*
X88850000Y55510000D03*
X89350000Y55510000D03*
X89850000Y55510000D03*
X90350000Y55510000D03*
X90850000Y55510000D03*
X91350000Y55510000D03*
D36*
X93250000Y52260000D03*
X64950000Y52260000D03*
D11*
X93699988Y72835000D03*
X93699988Y71185000D03*
D15*
X61700000Y98535000D03*
X61700000Y100085000D03*
D18*
X27500000Y46785000D03*
X27500000Y48435000D03*
D11*
X67833332Y72835000D03*
X67833332Y71185000D03*
D37*
X129650000Y81805000D03*
X125450000Y81805000D03*
D15*
X60050000Y98535000D03*
X60050000Y100085000D03*
D16*
X43325000Y84360000D03*
X41775000Y84360000D03*
D14*
X17325000Y44075000D03*
X18975000Y44075000D03*
D15*
X116800000Y58085000D03*
X116800000Y59635000D03*
D14*
X116175000Y69760000D03*
X117825000Y69760000D03*
D18*
X23750000Y28540000D03*
X23750000Y30190000D03*
D11*
X98549986Y72835000D03*
X98549986Y71185000D03*
D16*
X120925000Y64210000D03*
X119375000Y64210000D03*
D32*
X33125000Y60460000D03*
X33125000Y62360000D03*
D14*
X109050000Y77260000D03*
X110700000Y77260000D03*
D12*
X71687500Y98335000D03*
X70112500Y98335000D03*
D19*
X29000000Y84435000D03*
X29000000Y82885000D03*
D13*
X119325000Y68210000D03*
X120875000Y68210000D03*
D16*
X49925000Y37560000D03*
X48375000Y37560000D03*
D19*
X32050000Y31935000D03*
X32050000Y30385000D03*
D13*
X70125000Y89910000D03*
X71675000Y89910000D03*
D38*
X130670000Y29855000D03*
X132070000Y29855000D03*
D11*
X133250000Y59085000D03*
X133250000Y57435000D03*
D39*
X133062500Y80005000D03*
X133062500Y80955000D03*
X133062500Y81905000D03*
X135337500Y81905000D03*
X135337500Y80005000D03*
D21*
X110700000Y78960000D03*
X109050000Y78960000D03*
D14*
X119275000Y69760000D03*
X120925000Y69760000D03*
D19*
X53000000Y73935000D03*
X53000000Y72385000D03*
D21*
X46125000Y65710000D03*
X44475000Y65710000D03*
D18*
X20450000Y85785000D03*
X20450000Y87435000D03*
D40*
X137800000Y63810000D03*
X141800000Y63810000D03*
D19*
X55500000Y73935000D03*
X55500000Y72385000D03*
D11*
X103400000Y72835000D03*
X103400000Y71185000D03*
D13*
X109100000Y80660000D03*
X110650000Y80660000D03*
D32*
X139900000Y71560000D03*
X139900000Y73460000D03*
D16*
X120887500Y66622500D03*
X119337500Y66622500D03*
D18*
X35675000Y30335000D03*
X35675000Y31985000D03*
X126450000Y57985000D03*
X126450000Y59635000D03*
D21*
X129625000Y76860000D03*
X127975000Y76860000D03*
D14*
X17075000Y38260000D03*
X18725000Y38260000D03*
D11*
X79149994Y72835000D03*
X79149994Y71185000D03*
D22*
X112300000Y62360000D03*
X112300000Y60460000D03*
D21*
X137875000Y78210000D03*
X136225000Y78210000D03*
D14*
X133275000Y55810000D03*
X134925000Y55810000D03*
D11*
X133650000Y24460000D03*
X133650000Y22810000D03*
D13*
X73675000Y98335000D03*
X75225000Y98335000D03*
D41*
X141000000Y69610000D03*
X141000000Y66610000D03*
D11*
X100166652Y72835000D03*
X100166652Y71185000D03*
D24*
X26720000Y30195000D03*
X25320000Y30195000D03*
D11*
X134950000Y59110000D03*
X134950000Y57460000D03*
D18*
X63350000Y98485000D03*
X63350000Y100135000D03*
D11*
X88849990Y72835000D03*
X88849990Y71185000D03*
D19*
X123150000Y59585000D03*
X123150000Y58035000D03*
D31*
X41762500Y82660000D03*
X43337500Y82660000D03*
D11*
X56450000Y35035000D03*
X56450000Y33385000D03*
D16*
X106350000Y80660000D03*
X104800000Y80660000D03*
D19*
X112312500Y68922500D03*
X112312500Y67372500D03*
D42*
X50150000Y41760000D03*
X50150000Y39560000D03*
X48450000Y39560000D03*
X48450000Y41760000D03*
D43*
X55530000Y30050000D03*
X55530000Y28630000D03*
X55530000Y27210000D03*
X56950000Y30050000D03*
X56950000Y28630000D03*
X56950000Y27210000D03*
X58370000Y30050000D03*
X58370000Y28630000D03*
X58370000Y27210000D03*
D44*
X54112500Y26680000D03*
X54112500Y27330000D03*
X54112500Y27980000D03*
X54112500Y28630000D03*
X54112500Y29280000D03*
X54112500Y29930000D03*
X54112500Y30580000D03*
D45*
X55000000Y31467500D03*
X55650000Y31467500D03*
X56300000Y31467500D03*
X56950000Y31467500D03*
X57600000Y31467500D03*
X58250000Y31467500D03*
X58900000Y31467500D03*
D44*
X59787500Y30580000D03*
X59787500Y29930000D03*
X59787500Y29280000D03*
X59787500Y28630000D03*
X59787500Y27980000D03*
X59787500Y27330000D03*
X59787500Y26680000D03*
D45*
X58900000Y25792500D03*
X58250000Y25792500D03*
X57600000Y25792500D03*
X56950000Y25792500D03*
X56300000Y25792500D03*
X55650000Y25792500D03*
X55000000Y25792500D03*
D18*
X23820000Y32200000D03*
X23820000Y33850000D03*
D11*
X38500000Y49235000D03*
X38500000Y47585000D03*
D15*
X53550000Y98535000D03*
X53550000Y100085000D03*
D14*
X129525000Y60285000D03*
X131175000Y60285000D03*
D16*
X43325000Y89310000D03*
X41775000Y89310000D03*
D15*
X20400000Y69635000D03*
X20400000Y71185000D03*
D13*
X133300000Y54060000D03*
X134850000Y54060000D03*
D18*
X30700000Y82835000D03*
X30700000Y84485000D03*
D15*
X135000000Y63685000D03*
X135000000Y65235000D03*
D19*
X28620000Y32270000D03*
X28620000Y30720000D03*
D11*
X24250000Y48485000D03*
X24250000Y46835000D03*
X95316654Y72835000D03*
X95316654Y71185000D03*
D18*
X33862500Y30335000D03*
X33862500Y31985000D03*
D14*
X43575000Y43510000D03*
X45225000Y43510000D03*
X60550000Y69610000D03*
X62200000Y69610000D03*
D19*
X22150000Y42350000D03*
X22150000Y40800000D03*
D11*
X25850000Y48485000D03*
X25850000Y46835000D03*
D15*
X52177500Y28805000D03*
X52177500Y30355000D03*
D13*
X136775000Y58960000D03*
X138325000Y58960000D03*
D18*
X33750000Y26085000D03*
X33750000Y27735000D03*
D16*
X118912500Y72072500D03*
X117362500Y72072500D03*
D11*
X129175000Y73410000D03*
X129175000Y71760000D03*
D21*
X12550000Y88760000D03*
X10900000Y88760000D03*
D15*
X128720000Y29980000D03*
X128720000Y31530000D03*
D46*
X39250000Y26122500D03*
X39250000Y27697500D03*
D38*
X130670000Y22655000D03*
X132070000Y22655000D03*
D11*
X72683330Y72835000D03*
X72683330Y71185000D03*
D21*
X18725000Y36460000D03*
X17075000Y36460000D03*
D11*
X75916662Y72835000D03*
X75916662Y71185000D03*
D14*
X60550000Y67935000D03*
X62200000Y67935000D03*
D13*
X73675000Y100060000D03*
X75225000Y100060000D03*
D47*
X19100000Y41845000D03*
X19600000Y41845000D03*
X20100000Y41845000D03*
X20600000Y41845000D03*
X20600000Y39875000D03*
X20100000Y39875000D03*
X19600000Y39875000D03*
X19100000Y39875000D03*
D48*
X117350000Y64160000D03*
X117350000Y62260000D03*
X115475000Y63210000D03*
D21*
X134725000Y78305000D03*
X133075000Y78305000D03*
D20*
X10000000Y66860000D03*
X10000000Y66360000D03*
X10000000Y65860000D03*
X10000000Y65360000D03*
X10000000Y64860000D03*
X9230000Y64860000D03*
X9230000Y65360000D03*
X9230000Y65860000D03*
X9230000Y66360000D03*
X9230000Y66860000D03*
D16*
X33925000Y68210000D03*
X32375000Y68210000D03*
D18*
X51637500Y48162500D03*
X51637500Y49812500D03*
D21*
X71725000Y93210000D03*
X70075000Y93210000D03*
D18*
X63750000Y64485000D03*
X63750000Y66135000D03*
D21*
X27095000Y24795000D03*
X25445000Y24795000D03*
D19*
X132400000Y73360000D03*
X132400000Y71810000D03*
D11*
X26300000Y72860000D03*
X26300000Y71210000D03*
X55500000Y53135000D03*
X55500000Y51485000D03*
X39300000Y31985000D03*
X39300000Y30335000D03*
D18*
X30700000Y79685000D03*
X30700000Y81335000D03*
D14*
X60550000Y66260000D03*
X62200000Y66260000D03*
D21*
X100225000Y53185000D03*
X98575000Y53185000D03*
D11*
X133680000Y28010000D03*
X133680000Y26360000D03*
X131250000Y58685000D03*
X131250000Y57035000D03*
X85616658Y72835000D03*
X85616658Y71185000D03*
X101783318Y72835000D03*
X101783318Y71185000D03*
D14*
X104750000Y78960000D03*
X106400000Y78960000D03*
D15*
X56150000Y98535000D03*
X56150000Y100085000D03*
D11*
X56500000Y38785000D03*
X56500000Y37135000D03*
D49*
X136850000Y60810000D03*
X138750000Y60810000D03*
D50*
X26805000Y80735000D03*
X25535000Y80735000D03*
X24265000Y80735000D03*
X22995000Y80735000D03*
X22995000Y85685000D03*
X24265000Y85685000D03*
X25535000Y85685000D03*
X26805000Y85685000D03*
D49*
X21050000Y37960000D03*
X22950000Y37960000D03*
D21*
X27095000Y28495000D03*
X25445000Y28495000D03*
D11*
X46200000Y27335000D03*
X46200000Y25685000D03*
D14*
X130315000Y24355000D03*
X131965000Y24355000D03*
D16*
X29775000Y43060000D03*
X28225000Y43060000D03*
D11*
X90466656Y72835000D03*
X90466656Y71185000D03*
D38*
X130670000Y26155000D03*
X132070000Y26155000D03*
D15*
X134000000Y71810000D03*
X134000000Y73360000D03*
D51*
X115625000Y66260000D03*
X115625000Y68160000D03*
X117500000Y67210000D03*
D15*
X57300000Y51535000D03*
X57300000Y53085000D03*
D20*
X14072500Y97297500D03*
X14072500Y96797500D03*
X14072500Y96297500D03*
X14072500Y95797500D03*
X14072500Y95297500D03*
X13302500Y95297500D03*
X13302500Y95797500D03*
X13302500Y96297500D03*
X13302500Y96797500D03*
X13302500Y97297500D03*
D14*
X98575000Y56605000D03*
X100225000Y56605000D03*
D52*
X57725000Y45672500D03*
X57725000Y47222500D03*
X56175000Y45672500D03*
X56175000Y47222500D03*
D53*
X59387500Y48197500D03*
X59387500Y47697500D03*
X59387500Y47197500D03*
X59387500Y46697500D03*
X59387500Y46197500D03*
X59387500Y45697500D03*
X59387500Y45197500D03*
X59387500Y44697500D03*
D54*
X58700000Y44010000D03*
X58200000Y44010000D03*
X57700000Y44010000D03*
X57200000Y44010000D03*
X56700000Y44010000D03*
X56200000Y44010000D03*
X55700000Y44010000D03*
X55200000Y44010000D03*
D53*
X54512500Y44697500D03*
X54512500Y45197500D03*
X54512500Y45697500D03*
X54512500Y46197500D03*
X54512500Y46697500D03*
X54512500Y47197500D03*
X54512500Y47697500D03*
X54512500Y48197500D03*
D54*
X55200000Y48885000D03*
X55700000Y48885000D03*
X56200000Y48885000D03*
X56700000Y48885000D03*
X57200000Y48885000D03*
X57700000Y48885000D03*
X58200000Y48885000D03*
X58700000Y48885000D03*
D11*
X20350000Y91385000D03*
X20350000Y89735000D03*
D13*
X73675000Y96610000D03*
X75225000Y96610000D03*
D18*
X23750000Y24860000D03*
X23750000Y26510000D03*
D55*
X36375000Y61660000D03*
X39325000Y61660000D03*
D11*
X92083322Y72835000D03*
X92083322Y71185000D03*
X136750000Y55785000D03*
X136750000Y54135000D03*
D15*
X50800000Y98535000D03*
X50800000Y100085000D03*
D11*
X77533328Y72835000D03*
X77533328Y71185000D03*
D15*
X40600000Y47635000D03*
X40600000Y49185000D03*
D16*
X62150000Y62910000D03*
X60600000Y62910000D03*
D11*
X83999992Y72835000D03*
X83999992Y71185000D03*
D14*
X10775000Y70260000D03*
X12425000Y70260000D03*
D18*
X37487500Y30335000D03*
X37487500Y31985000D03*
D11*
X64600000Y72835000D03*
X64600000Y71185000D03*
D19*
X28670000Y24795000D03*
X28670000Y23245000D03*
D14*
X136675000Y57360000D03*
X138325000Y57360000D03*
D12*
X71687500Y96610000D03*
X70112500Y96610000D03*
D56*
X40762500Y42810000D03*
X40762500Y42310000D03*
X40762500Y41810000D03*
X40762500Y41310000D03*
X40762500Y40810000D03*
X40762500Y40310000D03*
X40762500Y39810000D03*
X40762500Y39310000D03*
X40762500Y38810000D03*
X40762500Y38310000D03*
X40762500Y37810000D03*
X40762500Y37310000D03*
D57*
X39350000Y35897500D03*
X38850000Y35897500D03*
X38350000Y35897500D03*
X37850000Y35897500D03*
X37350000Y35897500D03*
X36850000Y35897500D03*
X36350000Y35897500D03*
X35850000Y35897500D03*
X35350000Y35897500D03*
X34850000Y35897500D03*
X34350000Y35897500D03*
X33850000Y35897500D03*
D56*
X32437500Y37310000D03*
X32437500Y37810000D03*
X32437500Y38310000D03*
X32437500Y38810000D03*
X32437500Y39310000D03*
X32437500Y39810000D03*
X32437500Y40310000D03*
X32437500Y40810000D03*
X32437500Y41310000D03*
X32437500Y41810000D03*
X32437500Y42310000D03*
X32437500Y42810000D03*
D57*
X33850000Y44222500D03*
X34350000Y44222500D03*
X34850000Y44222500D03*
X35350000Y44222500D03*
X35850000Y44222500D03*
X36350000Y44222500D03*
X36850000Y44222500D03*
X37350000Y44222500D03*
X37850000Y44222500D03*
X38350000Y44222500D03*
X38850000Y44222500D03*
X39350000Y44222500D03*
D58*
X135370000Y83985000D03*
X133470000Y83985000D03*
D11*
X42880000Y65835000D03*
X42880000Y64185000D03*
D59*
X63800000Y93210000D03*
X63800000Y92710000D03*
X63800000Y92210000D03*
X63800000Y91710000D03*
X63800000Y91210000D03*
X63800000Y90710000D03*
X63800000Y90210000D03*
X63800000Y89710000D03*
X63800000Y89210000D03*
X63800000Y88710000D03*
X63800000Y88210000D03*
X63800000Y87710000D03*
X63800000Y87210000D03*
X63800000Y86710000D03*
X63800000Y86210000D03*
X63800000Y85710000D03*
X63800000Y85210000D03*
X63800000Y84710000D03*
X63800000Y84210000D03*
X63800000Y83710000D03*
X63800000Y83210000D03*
X63800000Y82710000D03*
X63800000Y82210000D03*
X63800000Y81710000D03*
X63800000Y81210000D03*
D60*
X62120000Y79530000D03*
X61620000Y79530000D03*
X61120000Y79530000D03*
X60620000Y79530000D03*
X60120000Y79530000D03*
X59620000Y79530000D03*
X59120000Y79530000D03*
X58620000Y79530000D03*
X58120000Y79530000D03*
X57620000Y79530000D03*
X57120000Y79530000D03*
X56620000Y79530000D03*
X56120000Y79530000D03*
X55620000Y79530000D03*
X55120000Y79530000D03*
X54620000Y79530000D03*
X54120000Y79530000D03*
X53620000Y79530000D03*
X53120000Y79530000D03*
X52620000Y79530000D03*
X52120000Y79530000D03*
X51620000Y79530000D03*
X51120000Y79530000D03*
X50620000Y79530000D03*
X50120000Y79530000D03*
D59*
X48440000Y81210000D03*
X48440000Y81710000D03*
X48440000Y82210000D03*
X48440000Y82710000D03*
X48440000Y83210000D03*
X48440000Y83710000D03*
X48440000Y84210000D03*
X48440000Y84710000D03*
X48440000Y85210000D03*
X48440000Y85710000D03*
X48440000Y86210000D03*
X48440000Y86710000D03*
X48440000Y87210000D03*
X48440000Y87710000D03*
X48440000Y88210000D03*
X48440000Y88710000D03*
X48440000Y89210000D03*
X48440000Y89710000D03*
X48440000Y90210000D03*
X48440000Y90710000D03*
X48440000Y91210000D03*
X48440000Y91710000D03*
X48440000Y92210000D03*
X48440000Y92710000D03*
X48440000Y93210000D03*
D60*
X50120000Y94890000D03*
X50620000Y94890000D03*
X51120000Y94890000D03*
X51620000Y94890000D03*
X52120000Y94890000D03*
X52620000Y94890000D03*
X53120000Y94890000D03*
X53620000Y94890000D03*
X54120000Y94890000D03*
X54620000Y94890000D03*
X55120000Y94890000D03*
X55620000Y94890000D03*
X56120000Y94890000D03*
X56620000Y94890000D03*
X57120000Y94890000D03*
X57620000Y94890000D03*
X58120000Y94890000D03*
X58620000Y94890000D03*
X59120000Y94890000D03*
X59620000Y94890000D03*
X60120000Y94890000D03*
X60620000Y94890000D03*
X61120000Y94890000D03*
X61620000Y94890000D03*
X62120000Y94890000D03*
D13*
X98625000Y58315000D03*
X100175000Y58315000D03*
D24*
X26770000Y33945000D03*
X25370000Y33945000D03*
M02*
