M48
; DRILL file {KiCad 9.0.0} date 2025-03-19T22:07:39+0700
; FORMAT={-:-/ absolute / metric / decimal}
; #@! TF.CreationDate,2025-03-19T22:07:39+07:00
; #@! TF.GenerationSoftware,Kicad,Pcbnew,9.0.0
; #@! TF.FileFunction,Plated,1,4,PTH
FMAT,2
METRIC
; #@! TA.AperFunction,Plated,PTH,ViaDrill
T1C0.250
; #@! TA.AperFunction,Plated,PTH,ViaDrill
T2C0.300
; #@! TA.AperFunction,Plated,PTH,ComponentDrill
T3C0.600
; #@! TA.AperFunction,Plated,PTH,ComponentDrill
T4C0.800
; #@! TA.AperFunction,Plated,PTH,ComponentDrill
T5C0.950
; #@! TA.AperFunction,Plated,PTH,ComponentDrill
T6C1.000
; #@! TA.AperFunction,Plated,PTH,ComponentDrill
T7C1.100
; #@! TA.AperFunction,Plated,PTH,ComponentDrill
T8C1.300
; #@! TA.AperFunction,Plated,PTH,ComponentDrill
T9C1.800
; #@! TA.AperFunction,Plated,PTH,ComponentDrill
T10C3.139
%
G90
G05
T1
X21.75Y100.535
X21.75Y99.885
X21.75Y99.035
X21.75Y98.385
X21.8Y97.373
X21.8Y96.722
X21.85Y95.873
X21.85Y95.222
X34.225Y59.59
X34.92Y59.59
X35.63Y59.61
X41.85Y68.34
X43.6Y74.39
X44.55Y74.39
X45.45Y74.39
X46.4Y74.39
X49.425Y10.61
X50.84Y59.85
X53.77Y104.14
X54.23Y103.68
X55.72Y103.69
X55.95Y47.447
X55.95Y46.447
X55.95Y45.447
X55.95Y29.63
X55.95Y28.63
X55.95Y27.63
X56.18Y103.23
X56.95Y47.447
X56.95Y46.447
X56.95Y45.447
X56.95Y29.63
X56.95Y28.63
X56.95Y27.63
X57.87Y102.79
X57.95Y47.447
X57.95Y46.447
X57.95Y45.447
X57.95Y29.63
X57.95Y28.63
X57.95Y27.63
X58.33Y102.33
X60.27Y103.14
X60.73Y102.68
X61.477Y48.787
X119.4Y83.675
X120.34Y81.535
X120.34Y80.84
X120.34Y80.145
X120.36Y79.435
X128.1Y33.615
X131.8Y80.025
X132.35Y83.975
X134.525Y29.935
X135.065Y86.08
X135.07Y85.33
X135.13Y26.205
X135.13Y22.905
X135.775Y86.1
X135.78Y85.35
X136.47Y86.1
X136.475Y85.35
X137.23Y72.135
X137.25Y71.425
X138.025Y72.135
X138.025Y71.44
X139.2Y78.26
T2
X1.35Y67.61
X2.35Y66.96
X2.4Y65.51
X2.85Y66.36
X6.75Y67.01
X7.95Y64.81
X8.15Y65.88
X8.35Y70.71
X8.875Y69.635
X9.075Y90.01
X9.075Y62.535
X9.625Y68.66
X12.0Y99.435
X12.325Y96.285
X12.375Y87.235
X12.65Y65.41
X13.5Y91.96
X14.9Y69.96
X14.9Y69.26
X14.9Y68.56
X15.6Y69.96
X15.6Y69.26
X15.6Y68.56
X15.75Y99.51
X16.3Y76.06
X16.3Y75.36
X17.0Y76.06
X17.0Y75.36
X17.0Y34.86
X17.1Y96.335
X17.7Y76.06
X17.7Y75.36
X18.375Y39.9
X18.625Y71.875
X19.2Y52.46
X19.2Y51.76
X19.2Y51.06
X19.2Y50.36
X19.3Y40.86
X19.4Y71.875
X19.9Y52.46
X19.9Y51.76
X19.9Y51.06
X19.9Y50.36
X20.35Y84.56
X20.4Y40.86
X20.7Y36.76
X20.7Y36.06
X20.7Y35.36
X21.0Y66.61
X21.0Y65.86
X21.05Y68.56
X21.175Y64.86
X21.275Y63.86
X21.4Y36.76
X21.4Y36.06
X21.4Y35.36
X21.65Y76.5
X22.1Y92.26
X22.57Y27.145
X22.62Y33.795
X22.62Y30.245
X22.95Y87.66
X23.1Y76.96
X23.175Y78.085
X23.9Y64.785
X24.116Y93.619
X24.265Y87.76
X24.45Y63.685
X24.7Y49.96
X25.0Y92.21
X25.6Y49.91
X26.65Y67.56
X26.975Y42.335
X27.0Y43.46
X27.3Y45.01
X27.45Y49.51
X27.85Y51.91
X27.85Y51.21
X29.3Y44.41
X29.4Y39.26
X29.9Y50.81
X30.3Y46.51
X30.42Y32.22
X30.45Y38.36
X30.47Y28.42
X30.47Y24.745
X31.0Y48.46
X31.5Y10.41
X31.6Y18.935
X31.85Y50.51
X32.188Y12.872
X32.446Y27.106
X32.65Y84.56
X33.05Y34.11
X33.6Y4.91
X33.65Y46.46
X33.7Y24.66
X33.85Y29.21
X34.2Y47.11
X34.45Y42.21
X34.85Y47.66
X35.15Y53.36
X35.6Y28.96
X35.75Y19.085
X37.65Y29.11
X38.85Y42.36
X39.05Y39.36
X39.75Y80.96
X41.6Y31.91
X41.85Y47.66
X42.65Y31.96
X42.76Y13.037
X43.15Y34.51
X43.25Y39.46
X43.65Y32.21
X44.05Y86.36
X44.25Y36.06
X44.45Y28.81
X44.45Y24.31
X44.85Y35.41
X45.2Y84.21
X46.05Y51.86
X46.2Y24.36
X46.25Y94.11
X46.3Y89.36
X46.45Y44.56
X46.55Y43.46
X46.85Y52.31
X47.6Y65.76
X47.85Y46.685
X48.35Y32.71
X48.5Y46.16
X48.9Y33.66
X50.12Y89.74
X50.15Y93.21
X50.45Y28.86
X50.6Y74.36
X50.65Y35.46
X50.7Y73.41
X50.75Y72.56
X50.8Y51.56
X51.65Y93.21
X52.25Y19.085
X52.65Y77.71
X52.85Y76.81
X53.0Y75.81
X53.45Y102.11
X53.65Y97.11
X53.65Y93.21
X53.7Y55.16
X53.75Y39.71
X54.172Y89.252
X54.172Y88.502
X54.172Y87.752
X54.172Y87.002
X54.172Y86.252
X54.172Y85.502
X54.6Y36.16
X54.7Y55.41
X55.172Y89.202
X55.172Y88.452
X55.172Y87.702
X55.172Y86.952
X55.172Y86.202
X55.172Y85.452
X55.55Y75.41
X55.65Y93.21
X55.65Y81.41
X55.8Y101.71
X56.12Y97.11
X56.172Y89.202
X56.172Y88.452
X56.172Y87.702
X56.172Y86.952
X56.172Y86.202
X56.172Y85.452
X56.45Y36.21
X56.62Y73.61
X56.65Y93.21
X56.8Y71.81
X57.05Y50.51
X57.12Y74.16
X57.172Y89.202
X57.172Y88.452
X57.172Y87.702
X57.172Y86.952
X57.172Y86.202
X57.172Y85.452
X57.65Y74.71
X57.8Y39.71
X58.15Y93.21
X58.15Y75.26
X58.172Y89.202
X58.172Y88.452
X58.172Y87.702
X58.172Y86.952
X58.172Y86.202
X58.172Y85.452
X58.6Y72.31
X58.62Y75.793
X58.65Y39.71
X58.8Y66.16
X59.1Y64.61
X59.12Y76.41
X59.45Y68.01
X59.469Y24.052
X59.5Y69.61
X59.5Y39.71
X59.55Y23.26
X59.6Y63.26
X59.62Y77.08
X59.625Y13.01
X60.05Y97.36
X60.12Y77.78
X60.35Y39.71
X60.5Y71.56
X60.6Y22.96
X61.09Y81.21
X61.15Y93.21
X61.2Y39.71
X61.375Y97.335
X61.75Y91.56
X61.75Y90.31
X61.75Y77.91
X62.05Y39.71
X62.1Y84.16
X62.9Y78.21
X63.1Y36.46
X65.15Y64.16
X65.55Y83.71
X65.55Y82.71
X65.55Y81.71
X65.85Y84.66
X66.25Y83.21
X66.25Y82.21
X66.25Y81.21
X67.55Y90.71
X68.15Y59.535
X68.35Y92.46
X68.45Y100.01
X68.5Y96.41
X68.6Y98.26
X68.66Y19.055
X68.9Y53.235
X69.1Y59.585
X71.3Y87.01
X73.3Y91.56
X73.675Y99.21
X73.675Y97.51
X73.8Y101.56
X74.25Y94.11
X76.65Y12.932
X77.55Y79.46
X79.167Y79.46
X80.783Y79.46
X82.4Y79.46
X84.017Y79.46
X84.35Y53.47
X85.16Y19.055
X85.35Y53.52
X85.633Y79.46
X87.25Y79.46
X88.5Y59.485
X88.867Y79.46
X89.475Y58.785
X89.55Y60.085
X90.075Y57.76
X90.45Y74.06
X92.067Y74.06
X93.0Y12.885
X93.683Y74.06
X95.3Y74.06
X96.917Y74.06
X98.533Y74.06
X100.15Y74.06
X101.695Y19.025
X101.75Y61.01
X101.767Y74.06
X102.325Y56.56
X102.45Y54.835
X102.575Y52.86
X103.225Y56.06
X103.383Y74.06
X103.75Y77.31
X109.101Y13.211
X110.1Y62.36
X110.9Y62.36
X112.6Y77.26
X116.1Y56.86
X116.9Y56.86
X117.35Y68.21
X117.35Y65.36
X118.195Y19.025
X118.35Y68.21
X121.0Y62.26
X124.85Y56.16
X125.35Y73.31
X127.462Y69.41
X127.462Y68.66
X127.462Y67.91
X127.462Y67.16
X127.462Y66.41
X127.462Y65.66
X127.513Y64.892
X127.513Y64.142
X127.513Y63.392
X127.85Y24.41
X128.25Y60.46
X128.81Y32.865
X128.876Y69.406
X128.876Y68.656
X128.876Y67.906
X128.876Y67.156
X128.876Y66.406
X128.876Y65.656
X128.927Y64.888
X128.927Y64.138
X128.927Y63.388
X129.11Y28.965
X130.85Y74.51
X132.95Y62.81
X133.15Y52.71
X134.125Y48.75
X134.225Y44.085
X135.1Y61.91
X137.257Y62.217
X138.9Y75.097
X139.25Y57.36
X139.325Y52.55
X139.7Y91.91
X139.92Y31.585
X140.05Y57.36
X140.125Y75.097
X142.112Y77.476
X143.175Y37.9
X146.025Y51.825
X146.225Y90.56
X147.175Y79.95
X147.375Y87.647
X147.4Y66.075
X147.675Y48.535
X148.125Y61.0
X148.975Y74.925
X149.412Y51.398
X149.65Y62.3
T5
X2.875Y13.385
X2.875Y10.885
X2.875Y8.385
X2.875Y5.885
X4.025Y22.71
X6.525Y22.71
X9.025Y22.71
X11.525Y22.71
X140.175Y22.71
X142.675Y22.71
X145.175Y22.71
X147.675Y22.71
X148.7Y12.785
X148.7Y10.285
X148.7Y7.785
X148.7Y5.285
T6
X13.3Y83.16
X13.3Y80.66
X13.3Y78.16
X13.3Y57.16
X13.3Y54.66
X13.3Y52.16
X20.375Y103.76
X22.915Y103.76
X25.455Y103.76
X27.995Y103.76
X29.865Y2.285
X32.405Y2.285
X34.945Y2.285
X37.485Y2.285
X40.025Y2.285
T7
X6.525Y11.435
X6.525Y8.935
X6.525Y6.435
X21.025Y11.435
X21.025Y6.435
X23.525Y11.475
X23.525Y8.935
X23.525Y6.395
X127.8Y11.8
X127.8Y9.26
X127.8Y6.72
X130.3Y11.76
X130.3Y6.76
X144.8Y11.76
X144.8Y9.26
X144.8Y6.76
T8
X2.837Y96.477
X6.137Y103.727
X6.137Y89.227
T10
X14.025Y14.435
X14.025Y3.435
X137.3Y14.76
X137.3Y3.76
T3
X2.51Y69.155G85X2.51Y68.905
G05
X2.51Y64.355G85X2.51Y64.105
G05
X6.81Y69.155G85X6.81Y68.905
G05
X6.81Y64.355G85X6.81Y64.105
G05
T4
X10.63Y38.86G85X10.63Y37.16
G05
X13.13Y42.14G85X13.13Y40.44
G05
T6
X9.15Y43.96G85X6.65Y43.96
G05
T9
X6.45Y85.06G85X6.15Y85.06
G05
X6.45Y76.26G85X6.15Y76.26
G05
X6.45Y59.06G85X6.15Y59.06
G05
X6.45Y50.26G85X6.15Y50.26
G05
M30
