G04 #@! TF.GenerationSoftware,KiCad,Pcbnew,9.0.0*
G04 #@! TF.CreationDate,2025-03-19T22:07:30+07:00*
G04 #@! TF.ProjectId,USB_Screen_V0,5553425f-5363-4726-9565-6e5f56302e6b,rev?*
G04 #@! TF.SameCoordinates,PX3f8d880PY80f7230*
G04 #@! TF.FileFunction,Legend,Top*
G04 #@! TF.FilePolarity,Positive*
%FSLAX46Y46*%
G04 Gerber Fmt 4.6, Leading zero omitted, Abs format (unit mm)*
G04 Created by KiCad (PCBNEW 9.0.0) date 2025-03-19 22:07:30*
%MOMM*%
%LPD*%
G01*
G04 APERTURE LIST*
G04 Aperture macros list*
%AMRoundRect*
0 Rectangle with rounded corners*
0 $1 Rounding radius*
0 $2 $3 $4 $5 $6 $7 $8 $9 X,Y pos of 4 corners*
0 Add a 4 corners polygon primitive as box body*
4,1,4,$2,$3,$4,$5,$6,$7,$8,$9,$2,$3,0*
0 Add four circle primitives for the rounded corners*
1,1,$1+$1,$2,$3*
1,1,$1+$1,$4,$5*
1,1,$1+$1,$6,$7*
1,1,$1+$1,$8,$9*
0 Add four rect primitives between the rounded corners*
20,1,$1+$1,$2,$3,$4,$5,0*
20,1,$1+$1,$4,$5,$6,$7,0*
20,1,$1+$1,$6,$7,$8,$9,0*
20,1,$1+$1,$8,$9,$2,$3,0*%
G04 Aperture macros list end*
%ADD10C,0.300000*%
%ADD11C,1.000000*%
%ADD12C,0.200000*%
%ADD13C,0.150000*%
%ADD14C,0.120000*%
%ADD15C,0.100000*%
%ADD16C,1.013500*%
%ADD17R,1.200000X1.500000*%
%ADD18R,1.600000X1.200000*%
%ADD19C,3.200000*%
%ADD20R,1.500000X1.200000*%
%ADD21R,1.200000X1.600000*%
%ADD22R,1.800000X1.800000*%
%ADD23C,1.800000*%
%ADD24RoundRect,0.750000X1.250000X0.750000X-1.250000X0.750000X-1.250000X-0.750000X1.250000X-0.750000X0*%
%ADD25C,1.650000*%
%ADD26C,4.708000*%
%ADD27RoundRect,0.250000X-0.600000X-0.725000X0.600000X-0.725000X0.600000X0.725000X-0.600000X0.725000X0*%
%ADD28O,1.700000X1.950000*%
%ADD29R,1.700000X1.700000*%
%ADD30O,1.700000X1.700000*%
%ADD31C,0.520000*%
%ADD32O,0.520000X0.720000*%
%ADD33O,1.304000X1.554000*%
%ADD34RoundRect,0.250000X0.725000X-0.600000X0.725000X0.600000X-0.725000X0.600000X-0.725000X-0.600000X0*%
%ADD35O,1.950000X1.700000*%
%ADD36RoundRect,0.250000X-0.725000X0.600000X-0.725000X-0.600000X0.725000X-0.600000X0.725000X0.600000X0*%
%ADD37RoundRect,0.102000X-2.000000X0.750000X-2.000000X-0.750000X2.000000X-0.750000X2.000000X0.750000X0*%
%ADD38RoundRect,0.102000X-0.650000X1.500000X-0.650000X-1.500000X0.650000X-1.500000X0.650000X1.500000X0*%
G04 APERTURE END LIST*
D10*
X18454000Y106225000D02*
X136104000Y106225000D01*
X136104000Y21340000D01*
X18454000Y21340000D01*
X18454000Y106225000D01*
D11*
X75999322Y64403905D02*
X73618370Y64403905D01*
X73618370Y64403905D02*
X73618370Y69403905D01*
X80523132Y64880096D02*
X80285036Y64642000D01*
X80285036Y64642000D02*
X79570751Y64403905D01*
X79570751Y64403905D02*
X79094560Y64403905D01*
X79094560Y64403905D02*
X78380274Y64642000D01*
X78380274Y64642000D02*
X77904084Y65118191D01*
X77904084Y65118191D02*
X77665989Y65594381D01*
X77665989Y65594381D02*
X77427893Y66546762D01*
X77427893Y66546762D02*
X77427893Y67261048D01*
X77427893Y67261048D02*
X77665989Y68213429D01*
X77665989Y68213429D02*
X77904084Y68689620D01*
X77904084Y68689620D02*
X78380274Y69165810D01*
X78380274Y69165810D02*
X79094560Y69403905D01*
X79094560Y69403905D02*
X79570751Y69403905D01*
X79570751Y69403905D02*
X80285036Y69165810D01*
X80285036Y69165810D02*
X80523132Y68927715D01*
X82665989Y64403905D02*
X82665989Y69403905D01*
X82665989Y69403905D02*
X83856465Y69403905D01*
X83856465Y69403905D02*
X84570751Y69165810D01*
X84570751Y69165810D02*
X85046941Y68689620D01*
X85046941Y68689620D02*
X85285036Y68213429D01*
X85285036Y68213429D02*
X85523132Y67261048D01*
X85523132Y67261048D02*
X85523132Y66546762D01*
X85523132Y66546762D02*
X85285036Y65594381D01*
X85285036Y65594381D02*
X85046941Y65118191D01*
X85046941Y65118191D02*
X84570751Y64642000D01*
X84570751Y64642000D02*
X83856465Y64403905D01*
X83856465Y64403905D02*
X82665989Y64403905D01*
D12*
X148108332Y91263400D02*
X148222618Y91225305D01*
X148222618Y91225305D02*
X148413094Y91225305D01*
X148413094Y91225305D02*
X148489285Y91263400D01*
X148489285Y91263400D02*
X148527380Y91301496D01*
X148527380Y91301496D02*
X148565475Y91377686D01*
X148565475Y91377686D02*
X148565475Y91453877D01*
X148565475Y91453877D02*
X148527380Y91530067D01*
X148527380Y91530067D02*
X148489285Y91568162D01*
X148489285Y91568162D02*
X148413094Y91606258D01*
X148413094Y91606258D02*
X148260713Y91644353D01*
X148260713Y91644353D02*
X148184523Y91682448D01*
X148184523Y91682448D02*
X148146428Y91720543D01*
X148146428Y91720543D02*
X148108332Y91796734D01*
X148108332Y91796734D02*
X148108332Y91872924D01*
X148108332Y91872924D02*
X148146428Y91949115D01*
X148146428Y91949115D02*
X148184523Y91987210D01*
X148184523Y91987210D02*
X148260713Y92025305D01*
X148260713Y92025305D02*
X148451190Y92025305D01*
X148451190Y92025305D02*
X148565475Y91987210D01*
X148832142Y92025305D02*
X149022618Y91225305D01*
X149022618Y91225305D02*
X149174999Y91796734D01*
X149174999Y91796734D02*
X149327380Y91225305D01*
X149327380Y91225305D02*
X149517857Y92025305D01*
X150241666Y91225305D02*
X149784523Y91225305D01*
X150013095Y91225305D02*
X150013095Y92025305D01*
X150013095Y92025305D02*
X149936904Y91911020D01*
X149936904Y91911020D02*
X149860714Y91834829D01*
X149860714Y91834829D02*
X149784523Y91796734D01*
X137556933Y93149555D02*
X137556933Y93759078D01*
X137861695Y93454317D02*
X137252171Y93454317D01*
X146356933Y93059555D02*
X146356933Y93669078D01*
X147358332Y56128400D02*
X147472618Y56090305D01*
X147472618Y56090305D02*
X147663094Y56090305D01*
X147663094Y56090305D02*
X147739285Y56128400D01*
X147739285Y56128400D02*
X147777380Y56166496D01*
X147777380Y56166496D02*
X147815475Y56242686D01*
X147815475Y56242686D02*
X147815475Y56318877D01*
X147815475Y56318877D02*
X147777380Y56395067D01*
X147777380Y56395067D02*
X147739285Y56433162D01*
X147739285Y56433162D02*
X147663094Y56471258D01*
X147663094Y56471258D02*
X147510713Y56509353D01*
X147510713Y56509353D02*
X147434523Y56547448D01*
X147434523Y56547448D02*
X147396428Y56585543D01*
X147396428Y56585543D02*
X147358332Y56661734D01*
X147358332Y56661734D02*
X147358332Y56737924D01*
X147358332Y56737924D02*
X147396428Y56814115D01*
X147396428Y56814115D02*
X147434523Y56852210D01*
X147434523Y56852210D02*
X147510713Y56890305D01*
X147510713Y56890305D02*
X147701190Y56890305D01*
X147701190Y56890305D02*
X147815475Y56852210D01*
X148082142Y56890305D02*
X148272618Y56090305D01*
X148272618Y56090305D02*
X148424999Y56661734D01*
X148424999Y56661734D02*
X148577380Y56090305D01*
X148577380Y56090305D02*
X148767857Y56890305D01*
X149415476Y56623639D02*
X149415476Y56090305D01*
X149225000Y56928400D02*
X149034523Y56356972D01*
X149034523Y56356972D02*
X149529762Y56356972D01*
X140797945Y61294434D02*
X140188422Y61294434D01*
X140707945Y52494434D02*
X140098422Y52494434D01*
X140403183Y52799196D02*
X140403183Y52189672D01*
X65402380Y18388400D02*
X65516666Y18350305D01*
X65516666Y18350305D02*
X65707142Y18350305D01*
X65707142Y18350305D02*
X65783333Y18388400D01*
X65783333Y18388400D02*
X65821428Y18426496D01*
X65821428Y18426496D02*
X65859523Y18502686D01*
X65859523Y18502686D02*
X65859523Y18578877D01*
X65859523Y18578877D02*
X65821428Y18655067D01*
X65821428Y18655067D02*
X65783333Y18693162D01*
X65783333Y18693162D02*
X65707142Y18731258D01*
X65707142Y18731258D02*
X65554761Y18769353D01*
X65554761Y18769353D02*
X65478571Y18807448D01*
X65478571Y18807448D02*
X65440476Y18845543D01*
X65440476Y18845543D02*
X65402380Y18921734D01*
X65402380Y18921734D02*
X65402380Y18997924D01*
X65402380Y18997924D02*
X65440476Y19074115D01*
X65440476Y19074115D02*
X65478571Y19112210D01*
X65478571Y19112210D02*
X65554761Y19150305D01*
X65554761Y19150305D02*
X65745238Y19150305D01*
X65745238Y19150305D02*
X65859523Y19112210D01*
X66126190Y19150305D02*
X66316666Y18350305D01*
X66316666Y18350305D02*
X66469047Y18921734D01*
X66469047Y18921734D02*
X66621428Y18350305D01*
X66621428Y18350305D02*
X66811905Y19150305D01*
X67535714Y18350305D02*
X67078571Y18350305D01*
X67307143Y18350305D02*
X67307143Y19150305D01*
X67307143Y19150305D02*
X67230952Y19036020D01*
X67230952Y19036020D02*
X67154762Y18959829D01*
X67154762Y18959829D02*
X67078571Y18921734D01*
X68030953Y19150305D02*
X68107143Y19150305D01*
X68107143Y19150305D02*
X68183334Y19112210D01*
X68183334Y19112210D02*
X68221429Y19074115D01*
X68221429Y19074115D02*
X68259524Y18997924D01*
X68259524Y18997924D02*
X68297619Y18845543D01*
X68297619Y18845543D02*
X68297619Y18655067D01*
X68297619Y18655067D02*
X68259524Y18502686D01*
X68259524Y18502686D02*
X68221429Y18426496D01*
X68221429Y18426496D02*
X68183334Y18388400D01*
X68183334Y18388400D02*
X68107143Y18350305D01*
X68107143Y18350305D02*
X68030953Y18350305D01*
X68030953Y18350305D02*
X67954762Y18388400D01*
X67954762Y18388400D02*
X67916667Y18426496D01*
X67916667Y18426496D02*
X67878572Y18502686D01*
X67878572Y18502686D02*
X67840476Y18655067D01*
X67840476Y18655067D02*
X67840476Y18845543D01*
X67840476Y18845543D02*
X67878572Y18997924D01*
X67878572Y18997924D02*
X67916667Y19074115D01*
X67916667Y19074115D02*
X67954762Y19112210D01*
X67954762Y19112210D02*
X68030953Y19150305D01*
X62006933Y14222054D02*
X62006933Y14831577D01*
X62311695Y14526816D02*
X61702171Y14526816D01*
X70806933Y14132054D02*
X70806933Y14741577D01*
D13*
X16074819Y80004762D02*
X15598628Y79671429D01*
X16074819Y79433334D02*
X15074819Y79433334D01*
X15074819Y79433334D02*
X15074819Y79814286D01*
X15074819Y79814286D02*
X15122438Y79909524D01*
X15122438Y79909524D02*
X15170057Y79957143D01*
X15170057Y79957143D02*
X15265295Y80004762D01*
X15265295Y80004762D02*
X15408152Y80004762D01*
X15408152Y80004762D02*
X15503390Y79957143D01*
X15503390Y79957143D02*
X15551009Y79909524D01*
X15551009Y79909524D02*
X15598628Y79814286D01*
X15598628Y79814286D02*
X15598628Y79433334D01*
X15074819Y80290477D02*
X16074819Y80623810D01*
X16074819Y80623810D02*
X15074819Y80957143D01*
X16074819Y81814286D02*
X16074819Y81242858D01*
X16074819Y81528572D02*
X15074819Y81528572D01*
X15074819Y81528572D02*
X15217676Y81433334D01*
X15217676Y81433334D02*
X15312914Y81338096D01*
X15312914Y81338096D02*
X15360533Y81242858D01*
D12*
X11977380Y73188400D02*
X12091666Y73150305D01*
X12091666Y73150305D02*
X12282142Y73150305D01*
X12282142Y73150305D02*
X12358333Y73188400D01*
X12358333Y73188400D02*
X12396428Y73226496D01*
X12396428Y73226496D02*
X12434523Y73302686D01*
X12434523Y73302686D02*
X12434523Y73378877D01*
X12434523Y73378877D02*
X12396428Y73455067D01*
X12396428Y73455067D02*
X12358333Y73493162D01*
X12358333Y73493162D02*
X12282142Y73531258D01*
X12282142Y73531258D02*
X12129761Y73569353D01*
X12129761Y73569353D02*
X12053571Y73607448D01*
X12053571Y73607448D02*
X12015476Y73645543D01*
X12015476Y73645543D02*
X11977380Y73721734D01*
X11977380Y73721734D02*
X11977380Y73797924D01*
X11977380Y73797924D02*
X12015476Y73874115D01*
X12015476Y73874115D02*
X12053571Y73912210D01*
X12053571Y73912210D02*
X12129761Y73950305D01*
X12129761Y73950305D02*
X12320238Y73950305D01*
X12320238Y73950305D02*
X12434523Y73912210D01*
X12701190Y73950305D02*
X12891666Y73150305D01*
X12891666Y73150305D02*
X13044047Y73721734D01*
X13044047Y73721734D02*
X13196428Y73150305D01*
X13196428Y73150305D02*
X13386905Y73950305D01*
X14110714Y73150305D02*
X13653571Y73150305D01*
X13882143Y73150305D02*
X13882143Y73950305D01*
X13882143Y73950305D02*
X13805952Y73836020D01*
X13805952Y73836020D02*
X13729762Y73759829D01*
X13729762Y73759829D02*
X13653571Y73721734D01*
X14377381Y73950305D02*
X14872619Y73950305D01*
X14872619Y73950305D02*
X14605953Y73645543D01*
X14605953Y73645543D02*
X14720238Y73645543D01*
X14720238Y73645543D02*
X14796429Y73607448D01*
X14796429Y73607448D02*
X14834524Y73569353D01*
X14834524Y73569353D02*
X14872619Y73493162D01*
X14872619Y73493162D02*
X14872619Y73302686D01*
X14872619Y73302686D02*
X14834524Y73226496D01*
X14834524Y73226496D02*
X14796429Y73188400D01*
X14796429Y73188400D02*
X14720238Y73150305D01*
X14720238Y73150305D02*
X14491667Y73150305D01*
X14491667Y73150305D02*
X14415476Y73188400D01*
X14415476Y73188400D02*
X14377381Y73226496D01*
X8956266Y68447174D02*
X8956266Y69209078D01*
X9337219Y68828126D02*
X8575314Y68828126D01*
X17756266Y68357174D02*
X17756266Y69119078D01*
X98258332Y18413400D02*
X98372618Y18375305D01*
X98372618Y18375305D02*
X98563094Y18375305D01*
X98563094Y18375305D02*
X98639285Y18413400D01*
X98639285Y18413400D02*
X98677380Y18451496D01*
X98677380Y18451496D02*
X98715475Y18527686D01*
X98715475Y18527686D02*
X98715475Y18603877D01*
X98715475Y18603877D02*
X98677380Y18680067D01*
X98677380Y18680067D02*
X98639285Y18718162D01*
X98639285Y18718162D02*
X98563094Y18756258D01*
X98563094Y18756258D02*
X98410713Y18794353D01*
X98410713Y18794353D02*
X98334523Y18832448D01*
X98334523Y18832448D02*
X98296428Y18870543D01*
X98296428Y18870543D02*
X98258332Y18946734D01*
X98258332Y18946734D02*
X98258332Y19022924D01*
X98258332Y19022924D02*
X98296428Y19099115D01*
X98296428Y19099115D02*
X98334523Y19137210D01*
X98334523Y19137210D02*
X98410713Y19175305D01*
X98410713Y19175305D02*
X98601190Y19175305D01*
X98601190Y19175305D02*
X98715475Y19137210D01*
X98982142Y19175305D02*
X99172618Y18375305D01*
X99172618Y18375305D02*
X99324999Y18946734D01*
X99324999Y18946734D02*
X99477380Y18375305D01*
X99477380Y18375305D02*
X99667857Y19175305D01*
X100086904Y18832448D02*
X100010714Y18870543D01*
X100010714Y18870543D02*
X99972619Y18908639D01*
X99972619Y18908639D02*
X99934523Y18984829D01*
X99934523Y18984829D02*
X99934523Y19022924D01*
X99934523Y19022924D02*
X99972619Y19099115D01*
X99972619Y19099115D02*
X100010714Y19137210D01*
X100010714Y19137210D02*
X100086904Y19175305D01*
X100086904Y19175305D02*
X100239285Y19175305D01*
X100239285Y19175305D02*
X100315476Y19137210D01*
X100315476Y19137210D02*
X100353571Y19099115D01*
X100353571Y19099115D02*
X100391666Y19022924D01*
X100391666Y19022924D02*
X100391666Y18984829D01*
X100391666Y18984829D02*
X100353571Y18908639D01*
X100353571Y18908639D02*
X100315476Y18870543D01*
X100315476Y18870543D02*
X100239285Y18832448D01*
X100239285Y18832448D02*
X100086904Y18832448D01*
X100086904Y18832448D02*
X100010714Y18794353D01*
X100010714Y18794353D02*
X99972619Y18756258D01*
X99972619Y18756258D02*
X99934523Y18680067D01*
X99934523Y18680067D02*
X99934523Y18527686D01*
X99934523Y18527686D02*
X99972619Y18451496D01*
X99972619Y18451496D02*
X100010714Y18413400D01*
X100010714Y18413400D02*
X100086904Y18375305D01*
X100086904Y18375305D02*
X100239285Y18375305D01*
X100239285Y18375305D02*
X100315476Y18413400D01*
X100315476Y18413400D02*
X100353571Y18451496D01*
X100353571Y18451496D02*
X100391666Y18527686D01*
X100391666Y18527686D02*
X100391666Y18680067D01*
X100391666Y18680067D02*
X100353571Y18756258D01*
X100353571Y18756258D02*
X100315476Y18794353D01*
X100315476Y18794353D02*
X100239285Y18832448D01*
X95041933Y14192054D02*
X95041933Y14801577D01*
X95346695Y14496816D02*
X94737171Y14496816D01*
X103841933Y14102054D02*
X103841933Y14711577D01*
X136097695Y8269525D02*
X136745314Y8269525D01*
X136745314Y8269525D02*
X136821504Y8307620D01*
X136821504Y8307620D02*
X136859600Y8345715D01*
X136859600Y8345715D02*
X136897695Y8421906D01*
X136897695Y8421906D02*
X136897695Y8574287D01*
X136897695Y8574287D02*
X136859600Y8650477D01*
X136859600Y8650477D02*
X136821504Y8688572D01*
X136821504Y8688572D02*
X136745314Y8726668D01*
X136745314Y8726668D02*
X136097695Y8726668D01*
X136897695Y9526667D02*
X136897695Y9069524D01*
X136897695Y9298096D02*
X136097695Y9298096D01*
X136097695Y9298096D02*
X136211980Y9221905D01*
X136211980Y9221905D02*
X136288171Y9145715D01*
X136288171Y9145715D02*
X136326266Y9069524D01*
X136097695Y10021906D02*
X136097695Y10098096D01*
X136097695Y10098096D02*
X136135790Y10174287D01*
X136135790Y10174287D02*
X136173885Y10212382D01*
X136173885Y10212382D02*
X136250076Y10250477D01*
X136250076Y10250477D02*
X136402457Y10288572D01*
X136402457Y10288572D02*
X136592933Y10288572D01*
X136592933Y10288572D02*
X136745314Y10250477D01*
X136745314Y10250477D02*
X136821504Y10212382D01*
X136821504Y10212382D02*
X136859600Y10174287D01*
X136859600Y10174287D02*
X136897695Y10098096D01*
X136897695Y10098096D02*
X136897695Y10021906D01*
X136897695Y10021906D02*
X136859600Y9945715D01*
X136859600Y9945715D02*
X136821504Y9907620D01*
X136821504Y9907620D02*
X136745314Y9869525D01*
X136745314Y9869525D02*
X136592933Y9831429D01*
X136592933Y9831429D02*
X136402457Y9831429D01*
X136402457Y9831429D02*
X136250076Y9869525D01*
X136250076Y9869525D02*
X136173885Y9907620D01*
X136173885Y9907620D02*
X136135790Y9945715D01*
X136135790Y9945715D02*
X136097695Y10021906D01*
X14346695Y7944525D02*
X14994314Y7944525D01*
X14994314Y7944525D02*
X15070504Y7982620D01*
X15070504Y7982620D02*
X15108600Y8020715D01*
X15108600Y8020715D02*
X15146695Y8096906D01*
X15146695Y8096906D02*
X15146695Y8249287D01*
X15146695Y8249287D02*
X15108600Y8325477D01*
X15108600Y8325477D02*
X15070504Y8363572D01*
X15070504Y8363572D02*
X14994314Y8401668D01*
X14994314Y8401668D02*
X14346695Y8401668D01*
X15146695Y9201667D02*
X15146695Y8744524D01*
X15146695Y8973096D02*
X14346695Y8973096D01*
X14346695Y8973096D02*
X14460980Y8896905D01*
X14460980Y8896905D02*
X14537171Y8820715D01*
X14537171Y8820715D02*
X14575266Y8744524D01*
X15146695Y9963572D02*
X15146695Y9506429D01*
X15146695Y9735001D02*
X14346695Y9735001D01*
X14346695Y9735001D02*
X14460980Y9658810D01*
X14460980Y9658810D02*
X14537171Y9582620D01*
X14537171Y9582620D02*
X14575266Y9506429D01*
X147458332Y34703400D02*
X147572618Y34665305D01*
X147572618Y34665305D02*
X147763094Y34665305D01*
X147763094Y34665305D02*
X147839285Y34703400D01*
X147839285Y34703400D02*
X147877380Y34741496D01*
X147877380Y34741496D02*
X147915475Y34817686D01*
X147915475Y34817686D02*
X147915475Y34893877D01*
X147915475Y34893877D02*
X147877380Y34970067D01*
X147877380Y34970067D02*
X147839285Y35008162D01*
X147839285Y35008162D02*
X147763094Y35046258D01*
X147763094Y35046258D02*
X147610713Y35084353D01*
X147610713Y35084353D02*
X147534523Y35122448D01*
X147534523Y35122448D02*
X147496428Y35160543D01*
X147496428Y35160543D02*
X147458332Y35236734D01*
X147458332Y35236734D02*
X147458332Y35312924D01*
X147458332Y35312924D02*
X147496428Y35389115D01*
X147496428Y35389115D02*
X147534523Y35427210D01*
X147534523Y35427210D02*
X147610713Y35465305D01*
X147610713Y35465305D02*
X147801190Y35465305D01*
X147801190Y35465305D02*
X147915475Y35427210D01*
X148182142Y35465305D02*
X148372618Y34665305D01*
X148372618Y34665305D02*
X148524999Y35236734D01*
X148524999Y35236734D02*
X148677380Y34665305D01*
X148677380Y34665305D02*
X148867857Y35465305D01*
X149515476Y35465305D02*
X149363095Y35465305D01*
X149363095Y35465305D02*
X149286904Y35427210D01*
X149286904Y35427210D02*
X149248809Y35389115D01*
X149248809Y35389115D02*
X149172619Y35274829D01*
X149172619Y35274829D02*
X149134523Y35122448D01*
X149134523Y35122448D02*
X149134523Y34817686D01*
X149134523Y34817686D02*
X149172619Y34741496D01*
X149172619Y34741496D02*
X149210714Y34703400D01*
X149210714Y34703400D02*
X149286904Y34665305D01*
X149286904Y34665305D02*
X149439285Y34665305D01*
X149439285Y34665305D02*
X149515476Y34703400D01*
X149515476Y34703400D02*
X149553571Y34741496D01*
X149553571Y34741496D02*
X149591666Y34817686D01*
X149591666Y34817686D02*
X149591666Y35008162D01*
X149591666Y35008162D02*
X149553571Y35084353D01*
X149553571Y35084353D02*
X149515476Y35122448D01*
X149515476Y35122448D02*
X149439285Y35160543D01*
X149439285Y35160543D02*
X149286904Y35160543D01*
X149286904Y35160543D02*
X149210714Y35122448D01*
X149210714Y35122448D02*
X149172619Y35084353D01*
X149172619Y35084353D02*
X149134523Y35008162D01*
X140797945Y40294434D02*
X140188422Y40294434D01*
X140707945Y31494434D02*
X140098422Y31494434D01*
X140403183Y31799196D02*
X140403183Y31189672D01*
X31952380Y18438400D02*
X32066666Y18400305D01*
X32066666Y18400305D02*
X32257142Y18400305D01*
X32257142Y18400305D02*
X32333333Y18438400D01*
X32333333Y18438400D02*
X32371428Y18476496D01*
X32371428Y18476496D02*
X32409523Y18552686D01*
X32409523Y18552686D02*
X32409523Y18628877D01*
X32409523Y18628877D02*
X32371428Y18705067D01*
X32371428Y18705067D02*
X32333333Y18743162D01*
X32333333Y18743162D02*
X32257142Y18781258D01*
X32257142Y18781258D02*
X32104761Y18819353D01*
X32104761Y18819353D02*
X32028571Y18857448D01*
X32028571Y18857448D02*
X31990476Y18895543D01*
X31990476Y18895543D02*
X31952380Y18971734D01*
X31952380Y18971734D02*
X31952380Y19047924D01*
X31952380Y19047924D02*
X31990476Y19124115D01*
X31990476Y19124115D02*
X32028571Y19162210D01*
X32028571Y19162210D02*
X32104761Y19200305D01*
X32104761Y19200305D02*
X32295238Y19200305D01*
X32295238Y19200305D02*
X32409523Y19162210D01*
X32676190Y19200305D02*
X32866666Y18400305D01*
X32866666Y18400305D02*
X33019047Y18971734D01*
X33019047Y18971734D02*
X33171428Y18400305D01*
X33171428Y18400305D02*
X33361905Y19200305D01*
X34085714Y18400305D02*
X33628571Y18400305D01*
X33857143Y18400305D02*
X33857143Y19200305D01*
X33857143Y19200305D02*
X33780952Y19086020D01*
X33780952Y19086020D02*
X33704762Y19009829D01*
X33704762Y19009829D02*
X33628571Y18971734D01*
X34390476Y19124115D02*
X34428572Y19162210D01*
X34428572Y19162210D02*
X34504762Y19200305D01*
X34504762Y19200305D02*
X34695238Y19200305D01*
X34695238Y19200305D02*
X34771429Y19162210D01*
X34771429Y19162210D02*
X34809524Y19124115D01*
X34809524Y19124115D02*
X34847619Y19047924D01*
X34847619Y19047924D02*
X34847619Y18971734D01*
X34847619Y18971734D02*
X34809524Y18857448D01*
X34809524Y18857448D02*
X34352381Y18400305D01*
X34352381Y18400305D02*
X34847619Y18400305D01*
X37896933Y14162055D02*
X37896933Y14771578D01*
X29096933Y14252055D02*
X29096933Y14861578D01*
X29401695Y14556817D02*
X28792171Y14556817D01*
X147733332Y78903400D02*
X147847618Y78865305D01*
X147847618Y78865305D02*
X148038094Y78865305D01*
X148038094Y78865305D02*
X148114285Y78903400D01*
X148114285Y78903400D02*
X148152380Y78941496D01*
X148152380Y78941496D02*
X148190475Y79017686D01*
X148190475Y79017686D02*
X148190475Y79093877D01*
X148190475Y79093877D02*
X148152380Y79170067D01*
X148152380Y79170067D02*
X148114285Y79208162D01*
X148114285Y79208162D02*
X148038094Y79246258D01*
X148038094Y79246258D02*
X147885713Y79284353D01*
X147885713Y79284353D02*
X147809523Y79322448D01*
X147809523Y79322448D02*
X147771428Y79360543D01*
X147771428Y79360543D02*
X147733332Y79436734D01*
X147733332Y79436734D02*
X147733332Y79512924D01*
X147733332Y79512924D02*
X147771428Y79589115D01*
X147771428Y79589115D02*
X147809523Y79627210D01*
X147809523Y79627210D02*
X147885713Y79665305D01*
X147885713Y79665305D02*
X148076190Y79665305D01*
X148076190Y79665305D02*
X148190475Y79627210D01*
X148457142Y79665305D02*
X148647618Y78865305D01*
X148647618Y78865305D02*
X148799999Y79436734D01*
X148799999Y79436734D02*
X148952380Y78865305D01*
X148952380Y78865305D02*
X149142857Y79665305D01*
X149409523Y79589115D02*
X149447619Y79627210D01*
X149447619Y79627210D02*
X149523809Y79665305D01*
X149523809Y79665305D02*
X149714285Y79665305D01*
X149714285Y79665305D02*
X149790476Y79627210D01*
X149790476Y79627210D02*
X149828571Y79589115D01*
X149828571Y79589115D02*
X149866666Y79512924D01*
X149866666Y79512924D02*
X149866666Y79436734D01*
X149866666Y79436734D02*
X149828571Y79322448D01*
X149828571Y79322448D02*
X149371428Y78865305D01*
X149371428Y78865305D02*
X149866666Y78865305D01*
X140797945Y83794434D02*
X140188422Y83794434D01*
X140707945Y74994434D02*
X140098422Y74994434D01*
X140403183Y75299196D02*
X140403183Y74689672D01*
X114358332Y18563400D02*
X114472618Y18525305D01*
X114472618Y18525305D02*
X114663094Y18525305D01*
X114663094Y18525305D02*
X114739285Y18563400D01*
X114739285Y18563400D02*
X114777380Y18601496D01*
X114777380Y18601496D02*
X114815475Y18677686D01*
X114815475Y18677686D02*
X114815475Y18753877D01*
X114815475Y18753877D02*
X114777380Y18830067D01*
X114777380Y18830067D02*
X114739285Y18868162D01*
X114739285Y18868162D02*
X114663094Y18906258D01*
X114663094Y18906258D02*
X114510713Y18944353D01*
X114510713Y18944353D02*
X114434523Y18982448D01*
X114434523Y18982448D02*
X114396428Y19020543D01*
X114396428Y19020543D02*
X114358332Y19096734D01*
X114358332Y19096734D02*
X114358332Y19172924D01*
X114358332Y19172924D02*
X114396428Y19249115D01*
X114396428Y19249115D02*
X114434523Y19287210D01*
X114434523Y19287210D02*
X114510713Y19325305D01*
X114510713Y19325305D02*
X114701190Y19325305D01*
X114701190Y19325305D02*
X114815475Y19287210D01*
X115082142Y19325305D02*
X115272618Y18525305D01*
X115272618Y18525305D02*
X115424999Y19096734D01*
X115424999Y19096734D02*
X115577380Y18525305D01*
X115577380Y18525305D02*
X115767857Y19325305D01*
X115996428Y19325305D02*
X116529762Y19325305D01*
X116529762Y19325305D02*
X116186904Y18525305D01*
X111541933Y14192054D02*
X111541933Y14801577D01*
X111846695Y14496816D02*
X111237171Y14496816D01*
X120341933Y14102054D02*
X120341933Y14711577D01*
X147933332Y66938400D02*
X148047618Y66900305D01*
X148047618Y66900305D02*
X148238094Y66900305D01*
X148238094Y66900305D02*
X148314285Y66938400D01*
X148314285Y66938400D02*
X148352380Y66976496D01*
X148352380Y66976496D02*
X148390475Y67052686D01*
X148390475Y67052686D02*
X148390475Y67128877D01*
X148390475Y67128877D02*
X148352380Y67205067D01*
X148352380Y67205067D02*
X148314285Y67243162D01*
X148314285Y67243162D02*
X148238094Y67281258D01*
X148238094Y67281258D02*
X148085713Y67319353D01*
X148085713Y67319353D02*
X148009523Y67357448D01*
X148009523Y67357448D02*
X147971428Y67395543D01*
X147971428Y67395543D02*
X147933332Y67471734D01*
X147933332Y67471734D02*
X147933332Y67547924D01*
X147933332Y67547924D02*
X147971428Y67624115D01*
X147971428Y67624115D02*
X148009523Y67662210D01*
X148009523Y67662210D02*
X148085713Y67700305D01*
X148085713Y67700305D02*
X148276190Y67700305D01*
X148276190Y67700305D02*
X148390475Y67662210D01*
X148657142Y67700305D02*
X148847618Y66900305D01*
X148847618Y66900305D02*
X148999999Y67471734D01*
X148999999Y67471734D02*
X149152380Y66900305D01*
X149152380Y66900305D02*
X149342857Y67700305D01*
X149571428Y67700305D02*
X150066666Y67700305D01*
X150066666Y67700305D02*
X149800000Y67395543D01*
X149800000Y67395543D02*
X149914285Y67395543D01*
X149914285Y67395543D02*
X149990476Y67357448D01*
X149990476Y67357448D02*
X150028571Y67319353D01*
X150028571Y67319353D02*
X150066666Y67243162D01*
X150066666Y67243162D02*
X150066666Y67052686D01*
X150066666Y67052686D02*
X150028571Y66976496D01*
X150028571Y66976496D02*
X149990476Y66938400D01*
X149990476Y66938400D02*
X149914285Y66900305D01*
X149914285Y66900305D02*
X149685714Y66900305D01*
X149685714Y66900305D02*
X149609523Y66938400D01*
X149609523Y66938400D02*
X149571428Y66976496D01*
X146356933Y68559555D02*
X146356933Y69169078D01*
X137556933Y68649555D02*
X137556933Y69259078D01*
X137861695Y68954317D02*
X137252171Y68954317D01*
X147833332Y46038400D02*
X147947618Y46000305D01*
X147947618Y46000305D02*
X148138094Y46000305D01*
X148138094Y46000305D02*
X148214285Y46038400D01*
X148214285Y46038400D02*
X148252380Y46076496D01*
X148252380Y46076496D02*
X148290475Y46152686D01*
X148290475Y46152686D02*
X148290475Y46228877D01*
X148290475Y46228877D02*
X148252380Y46305067D01*
X148252380Y46305067D02*
X148214285Y46343162D01*
X148214285Y46343162D02*
X148138094Y46381258D01*
X148138094Y46381258D02*
X147985713Y46419353D01*
X147985713Y46419353D02*
X147909523Y46457448D01*
X147909523Y46457448D02*
X147871428Y46495543D01*
X147871428Y46495543D02*
X147833332Y46571734D01*
X147833332Y46571734D02*
X147833332Y46647924D01*
X147833332Y46647924D02*
X147871428Y46724115D01*
X147871428Y46724115D02*
X147909523Y46762210D01*
X147909523Y46762210D02*
X147985713Y46800305D01*
X147985713Y46800305D02*
X148176190Y46800305D01*
X148176190Y46800305D02*
X148290475Y46762210D01*
X148557142Y46800305D02*
X148747618Y46000305D01*
X148747618Y46000305D02*
X148899999Y46571734D01*
X148899999Y46571734D02*
X149052380Y46000305D01*
X149052380Y46000305D02*
X149242857Y46800305D01*
X149928571Y46800305D02*
X149547619Y46800305D01*
X149547619Y46800305D02*
X149509523Y46419353D01*
X149509523Y46419353D02*
X149547619Y46457448D01*
X149547619Y46457448D02*
X149623809Y46495543D01*
X149623809Y46495543D02*
X149814285Y46495543D01*
X149814285Y46495543D02*
X149890476Y46457448D01*
X149890476Y46457448D02*
X149928571Y46419353D01*
X149928571Y46419353D02*
X149966666Y46343162D01*
X149966666Y46343162D02*
X149966666Y46152686D01*
X149966666Y46152686D02*
X149928571Y46076496D01*
X149928571Y46076496D02*
X149890476Y46038400D01*
X149890476Y46038400D02*
X149814285Y46000305D01*
X149814285Y46000305D02*
X149623809Y46000305D01*
X149623809Y46000305D02*
X149547619Y46038400D01*
X149547619Y46038400D02*
X149509523Y46076496D01*
X146356933Y47559555D02*
X146356933Y48169078D01*
X137556933Y47649555D02*
X137556933Y48259078D01*
X137861695Y47954317D02*
X137252171Y47954317D01*
X16139695Y54933811D02*
X15758742Y54667144D01*
X16139695Y54476668D02*
X15339695Y54476668D01*
X15339695Y54476668D02*
X15339695Y54781430D01*
X15339695Y54781430D02*
X15377790Y54857620D01*
X15377790Y54857620D02*
X15415885Y54895715D01*
X15415885Y54895715D02*
X15492076Y54933811D01*
X15492076Y54933811D02*
X15606361Y54933811D01*
X15606361Y54933811D02*
X15682552Y54895715D01*
X15682552Y54895715D02*
X15720647Y54857620D01*
X15720647Y54857620D02*
X15758742Y54781430D01*
X15758742Y54781430D02*
X15758742Y54476668D01*
X15339695Y55162382D02*
X16139695Y55429049D01*
X16139695Y55429049D02*
X15339695Y55695715D01*
X15415885Y55924286D02*
X15377790Y55962382D01*
X15377790Y55962382D02*
X15339695Y56038572D01*
X15339695Y56038572D02*
X15339695Y56229048D01*
X15339695Y56229048D02*
X15377790Y56305239D01*
X15377790Y56305239D02*
X15415885Y56343334D01*
X15415885Y56343334D02*
X15492076Y56381429D01*
X15492076Y56381429D02*
X15568266Y56381429D01*
X15568266Y56381429D02*
X15682552Y56343334D01*
X15682552Y56343334D02*
X16139695Y55886191D01*
X16139695Y55886191D02*
X16139695Y56381429D01*
X81783332Y18488400D02*
X81897618Y18450305D01*
X81897618Y18450305D02*
X82088094Y18450305D01*
X82088094Y18450305D02*
X82164285Y18488400D01*
X82164285Y18488400D02*
X82202380Y18526496D01*
X82202380Y18526496D02*
X82240475Y18602686D01*
X82240475Y18602686D02*
X82240475Y18678877D01*
X82240475Y18678877D02*
X82202380Y18755067D01*
X82202380Y18755067D02*
X82164285Y18793162D01*
X82164285Y18793162D02*
X82088094Y18831258D01*
X82088094Y18831258D02*
X81935713Y18869353D01*
X81935713Y18869353D02*
X81859523Y18907448D01*
X81859523Y18907448D02*
X81821428Y18945543D01*
X81821428Y18945543D02*
X81783332Y19021734D01*
X81783332Y19021734D02*
X81783332Y19097924D01*
X81783332Y19097924D02*
X81821428Y19174115D01*
X81821428Y19174115D02*
X81859523Y19212210D01*
X81859523Y19212210D02*
X81935713Y19250305D01*
X81935713Y19250305D02*
X82126190Y19250305D01*
X82126190Y19250305D02*
X82240475Y19212210D01*
X82507142Y19250305D02*
X82697618Y18450305D01*
X82697618Y18450305D02*
X82849999Y19021734D01*
X82849999Y19021734D02*
X83002380Y18450305D01*
X83002380Y18450305D02*
X83192857Y19250305D01*
X83535714Y18450305D02*
X83688095Y18450305D01*
X83688095Y18450305D02*
X83764285Y18488400D01*
X83764285Y18488400D02*
X83802381Y18526496D01*
X83802381Y18526496D02*
X83878571Y18640781D01*
X83878571Y18640781D02*
X83916666Y18793162D01*
X83916666Y18793162D02*
X83916666Y19097924D01*
X83916666Y19097924D02*
X83878571Y19174115D01*
X83878571Y19174115D02*
X83840476Y19212210D01*
X83840476Y19212210D02*
X83764285Y19250305D01*
X83764285Y19250305D02*
X83611904Y19250305D01*
X83611904Y19250305D02*
X83535714Y19212210D01*
X83535714Y19212210D02*
X83497619Y19174115D01*
X83497619Y19174115D02*
X83459523Y19097924D01*
X83459523Y19097924D02*
X83459523Y18907448D01*
X83459523Y18907448D02*
X83497619Y18831258D01*
X83497619Y18831258D02*
X83535714Y18793162D01*
X83535714Y18793162D02*
X83611904Y18755067D01*
X83611904Y18755067D02*
X83764285Y18755067D01*
X83764285Y18755067D02*
X83840476Y18793162D01*
X83840476Y18793162D02*
X83878571Y18831258D01*
X83878571Y18831258D02*
X83916666Y18907448D01*
X78506933Y14222054D02*
X78506933Y14831577D01*
X78811695Y14526816D02*
X78202171Y14526816D01*
X87306933Y14132054D02*
X87306933Y14741577D01*
X48627380Y18588400D02*
X48741666Y18550305D01*
X48741666Y18550305D02*
X48932142Y18550305D01*
X48932142Y18550305D02*
X49008333Y18588400D01*
X49008333Y18588400D02*
X49046428Y18626496D01*
X49046428Y18626496D02*
X49084523Y18702686D01*
X49084523Y18702686D02*
X49084523Y18778877D01*
X49084523Y18778877D02*
X49046428Y18855067D01*
X49046428Y18855067D02*
X49008333Y18893162D01*
X49008333Y18893162D02*
X48932142Y18931258D01*
X48932142Y18931258D02*
X48779761Y18969353D01*
X48779761Y18969353D02*
X48703571Y19007448D01*
X48703571Y19007448D02*
X48665476Y19045543D01*
X48665476Y19045543D02*
X48627380Y19121734D01*
X48627380Y19121734D02*
X48627380Y19197924D01*
X48627380Y19197924D02*
X48665476Y19274115D01*
X48665476Y19274115D02*
X48703571Y19312210D01*
X48703571Y19312210D02*
X48779761Y19350305D01*
X48779761Y19350305D02*
X48970238Y19350305D01*
X48970238Y19350305D02*
X49084523Y19312210D01*
X49351190Y19350305D02*
X49541666Y18550305D01*
X49541666Y18550305D02*
X49694047Y19121734D01*
X49694047Y19121734D02*
X49846428Y18550305D01*
X49846428Y18550305D02*
X50036905Y19350305D01*
X50760714Y18550305D02*
X50303571Y18550305D01*
X50532143Y18550305D02*
X50532143Y19350305D01*
X50532143Y19350305D02*
X50455952Y19236020D01*
X50455952Y19236020D02*
X50379762Y19159829D01*
X50379762Y19159829D02*
X50303571Y19121734D01*
X51522619Y18550305D02*
X51065476Y18550305D01*
X51294048Y18550305D02*
X51294048Y19350305D01*
X51294048Y19350305D02*
X51217857Y19236020D01*
X51217857Y19236020D02*
X51141667Y19159829D01*
X51141667Y19159829D02*
X51065476Y19121734D01*
X54396933Y14162055D02*
X54396933Y14771578D01*
X45596933Y14252055D02*
X45596933Y14861578D01*
X45901695Y14556817D02*
X45292171Y14556817D01*
X12227380Y98713400D02*
X12341666Y98675305D01*
X12341666Y98675305D02*
X12532142Y98675305D01*
X12532142Y98675305D02*
X12608333Y98713400D01*
X12608333Y98713400D02*
X12646428Y98751496D01*
X12646428Y98751496D02*
X12684523Y98827686D01*
X12684523Y98827686D02*
X12684523Y98903877D01*
X12684523Y98903877D02*
X12646428Y98980067D01*
X12646428Y98980067D02*
X12608333Y99018162D01*
X12608333Y99018162D02*
X12532142Y99056258D01*
X12532142Y99056258D02*
X12379761Y99094353D01*
X12379761Y99094353D02*
X12303571Y99132448D01*
X12303571Y99132448D02*
X12265476Y99170543D01*
X12265476Y99170543D02*
X12227380Y99246734D01*
X12227380Y99246734D02*
X12227380Y99322924D01*
X12227380Y99322924D02*
X12265476Y99399115D01*
X12265476Y99399115D02*
X12303571Y99437210D01*
X12303571Y99437210D02*
X12379761Y99475305D01*
X12379761Y99475305D02*
X12570238Y99475305D01*
X12570238Y99475305D02*
X12684523Y99437210D01*
X12951190Y99475305D02*
X13141666Y98675305D01*
X13141666Y98675305D02*
X13294047Y99246734D01*
X13294047Y99246734D02*
X13446428Y98675305D01*
X13446428Y98675305D02*
X13636905Y99475305D01*
X14360714Y98675305D02*
X13903571Y98675305D01*
X14132143Y98675305D02*
X14132143Y99475305D01*
X14132143Y99475305D02*
X14055952Y99361020D01*
X14055952Y99361020D02*
X13979762Y99284829D01*
X13979762Y99284829D02*
X13903571Y99246734D01*
X15046429Y99208639D02*
X15046429Y98675305D01*
X14855953Y99513400D02*
X14665476Y98941972D01*
X14665476Y98941972D02*
X15160715Y98941972D01*
X9056933Y94399555D02*
X9056933Y95009078D01*
X9361695Y94704317D02*
X8752171Y94704317D01*
X17461933Y94309555D02*
X17461933Y94919078D01*
D14*
X138800000Y89767500D02*
X138800000Y94067500D01*
D15*
X140140000Y91897500D02*
X141620000Y91897500D01*
D14*
X141170000Y88917500D02*
X142770000Y88917500D01*
X141180000Y95137500D02*
X142780000Y95137500D01*
D15*
X141620000Y92547500D02*
X141620000Y91897500D01*
X141620000Y91897500D02*
X141620000Y91247500D01*
X141620000Y91247500D02*
X142520000Y91897500D01*
X142520000Y92547500D02*
X142520000Y91897500D01*
X142520000Y91897500D02*
X141620000Y92547500D01*
X142520000Y91897500D02*
X142520000Y91247500D01*
X142520000Y91897500D02*
X144000000Y91897500D01*
D14*
X145040000Y89697500D02*
X145040000Y93997500D01*
X138720000Y56117500D02*
X138720000Y57717500D01*
D15*
X141310000Y57457500D02*
X141960000Y57457500D01*
X141310000Y56557500D02*
X141960000Y56557500D01*
X141960000Y57457500D02*
X141310000Y56557500D01*
X141960000Y57457500D02*
X141960000Y58937500D01*
X141960000Y57457500D02*
X142610000Y57457500D01*
X141960000Y56557500D02*
X142610000Y56557500D01*
X141960000Y55077500D02*
X141960000Y56557500D01*
X142610000Y56557500D02*
X141960000Y57457500D01*
D14*
X144090000Y53737500D02*
X139790000Y53737500D01*
X144160000Y59977500D02*
X139860000Y59977500D01*
X144940000Y56107500D02*
X144940000Y57707500D01*
X63250000Y10839999D02*
X63250000Y15139999D01*
D15*
X64590000Y12969999D02*
X66070000Y12969999D01*
D14*
X65620000Y9989999D02*
X67220000Y9989999D01*
X65630000Y16209999D02*
X67230000Y16209999D01*
D15*
X66070000Y13619999D02*
X66070000Y12969999D01*
X66070000Y12969999D02*
X66070000Y12319999D01*
X66070000Y12319999D02*
X66970000Y12969999D01*
X66970000Y13619999D02*
X66970000Y12969999D01*
X66970000Y12969999D02*
X66070000Y13619999D01*
X66970000Y12969999D02*
X66970000Y12319999D01*
X66970000Y12969999D02*
X68450000Y12969999D01*
D14*
X69490000Y10769999D02*
X69490000Y15069999D01*
X180000Y75639000D02*
X180000Y85680000D01*
X4116000Y85680000D02*
X180000Y85680000D01*
X4116000Y75639000D02*
X180000Y75639000D01*
X12420000Y85680000D02*
X8483000Y85680000D01*
X12420000Y84030000D02*
X12420000Y85680000D01*
X12420000Y81531000D02*
X12420000Y82290000D01*
X12420000Y79410000D02*
X12420000Y79790000D01*
X12420000Y75639000D02*
X8483000Y75639000D01*
X12420000Y75639000D02*
X12420000Y76960000D01*
X10300000Y65017500D02*
X10300000Y69317500D01*
D15*
X11640000Y67147500D02*
X13120000Y67147500D01*
D14*
X12670000Y64167500D02*
X14270000Y64167500D01*
X12680000Y70387500D02*
X14280000Y70387500D01*
D15*
X13120000Y67797500D02*
X13120000Y67147500D01*
X13120000Y67147500D02*
X13120000Y66497500D01*
X13120000Y66497500D02*
X14020000Y67147500D01*
X14020000Y67797500D02*
X14020000Y67147500D01*
X14020000Y67147500D02*
X13120000Y67797500D01*
X14020000Y67147500D02*
X14020000Y66497500D01*
X14020000Y67147500D02*
X15500000Y67147500D01*
D14*
X16540000Y64947500D02*
X16540000Y69247500D01*
X96285000Y10809999D02*
X96285000Y15109999D01*
D15*
X97625000Y12939999D02*
X99105000Y12939999D01*
D14*
X98655000Y9959999D02*
X100255000Y9959999D01*
X98665000Y16179999D02*
X100265000Y16179999D01*
D15*
X99105000Y13589999D02*
X99105000Y12939999D01*
X99105000Y12939999D02*
X99105000Y12289999D01*
X99105000Y12289999D02*
X100005000Y12939999D01*
X100005000Y13589999D02*
X100005000Y12939999D01*
X100005000Y12939999D02*
X99105000Y13589999D01*
X100005000Y12939999D02*
X100005000Y12289999D01*
X100005000Y12939999D02*
X101485000Y12939999D01*
D14*
X102525000Y10739999D02*
X102525000Y15039999D01*
D15*
X129300000Y15110000D02*
X134300000Y15110000D01*
X129300000Y3410000D02*
X129300000Y15110000D01*
X134300000Y3410000D02*
X129300000Y3410000D01*
X140300000Y3410000D02*
X143800000Y3410000D01*
X143800000Y15110000D02*
X140300000Y15110000D01*
X143800000Y3410000D02*
X143800000Y15110000D01*
D12*
X146000000Y6860000D02*
X146000000Y6860000D01*
X146000000Y6660000D02*
X146000000Y6660000D01*
X146000000Y6860000D02*
G75*
G02*
X146000000Y6660000I0J-100000D01*
G01*
X146000000Y6660000D02*
G75*
G02*
X146000000Y6860000I0J100000D01*
G01*
X5325000Y11535000D02*
X5325000Y11535000D01*
X5325000Y11335000D02*
X5325000Y11335000D01*
D15*
X7525000Y14785000D02*
X7525000Y3085000D01*
X7525000Y3085000D02*
X11025000Y3085000D01*
X11025000Y14785000D02*
X7525000Y14785000D01*
X17025000Y14785000D02*
X22025000Y14785000D01*
X22025000Y14785000D02*
X22025000Y3085000D01*
X22025000Y3085000D02*
X17025000Y3085000D01*
D12*
X5325000Y11535000D02*
G75*
G02*
X5325000Y11335000I0J-100000D01*
G01*
X5325000Y11335000D02*
G75*
G02*
X5325000Y11535000I0J100000D01*
G01*
D14*
X138720000Y35117500D02*
X138720000Y36717500D01*
D15*
X141310000Y36457500D02*
X141960000Y36457500D01*
X141310000Y35557500D02*
X141960000Y35557500D01*
X141960000Y36457500D02*
X141310000Y35557500D01*
X141960000Y36457500D02*
X141960000Y37937500D01*
X141960000Y36457500D02*
X142610000Y36457500D01*
X141960000Y35557500D02*
X142610000Y35557500D01*
X141960000Y34077500D02*
X141960000Y35557500D01*
X142610000Y35557500D02*
X141960000Y36457500D01*
D14*
X144090000Y32737500D02*
X139790000Y32737500D01*
X144160000Y38977500D02*
X139860000Y38977500D01*
X144940000Y35107500D02*
X144940000Y36707500D01*
X30340000Y10870000D02*
X30340000Y15170000D01*
D15*
X31680000Y13000000D02*
X33160000Y13000000D01*
D14*
X32710000Y10020000D02*
X34310000Y10020000D01*
X32720000Y16240000D02*
X34320000Y16240000D01*
D15*
X33160000Y13650000D02*
X33160000Y13000000D01*
X33160000Y13000000D02*
X33160000Y12350000D01*
X33160000Y12350000D02*
X34060000Y13000000D01*
X34060000Y13650000D02*
X34060000Y13000000D01*
X34060000Y13000000D02*
X33160000Y13650000D01*
X34060000Y13000000D02*
X34060000Y12350000D01*
X34060000Y13000000D02*
X35540000Y13000000D01*
D14*
X36580000Y10800000D02*
X36580000Y15100000D01*
X138720000Y78617500D02*
X138720000Y80217500D01*
D15*
X141310000Y79957500D02*
X141960000Y79957500D01*
X141310000Y79057500D02*
X141960000Y79057500D01*
X141960000Y79957500D02*
X141310000Y79057500D01*
X141960000Y79957500D02*
X141960000Y81437500D01*
X141960000Y79957500D02*
X142610000Y79957500D01*
X141960000Y79057500D02*
X142610000Y79057500D01*
X141960000Y77577500D02*
X141960000Y79057500D01*
X142610000Y79057500D02*
X141960000Y79957500D01*
D14*
X144090000Y76237500D02*
X139790000Y76237500D01*
X144160000Y82477500D02*
X139860000Y82477500D01*
X144940000Y78607500D02*
X144940000Y80207500D01*
X112785000Y10809999D02*
X112785000Y15109999D01*
D15*
X114125000Y12939999D02*
X115605000Y12939999D01*
D14*
X115155000Y9959999D02*
X116755000Y9959999D01*
X115165000Y16179999D02*
X116765000Y16179999D01*
D15*
X115605000Y13589999D02*
X115605000Y12939999D01*
X115605000Y12939999D02*
X115605000Y12289999D01*
X115605000Y12289999D02*
X116505000Y12939999D01*
X116505000Y13589999D02*
X116505000Y12939999D01*
X116505000Y12939999D02*
X115605000Y13589999D01*
X116505000Y12939999D02*
X116505000Y12289999D01*
X116505000Y12939999D02*
X117985000Y12939999D01*
D14*
X119025000Y10739999D02*
X119025000Y15039999D01*
X138800000Y65267500D02*
X138800000Y69567500D01*
D15*
X140140000Y67397500D02*
X141620000Y67397500D01*
D14*
X141170000Y64417500D02*
X142770000Y64417500D01*
X141180000Y70637500D02*
X142780000Y70637500D01*
D15*
X141620000Y68047500D02*
X141620000Y67397500D01*
X141620000Y67397500D02*
X141620000Y66747500D01*
X141620000Y66747500D02*
X142520000Y67397500D01*
X142520000Y68047500D02*
X142520000Y67397500D01*
X142520000Y67397500D02*
X141620000Y68047500D01*
X142520000Y67397500D02*
X142520000Y66747500D01*
X142520000Y67397500D02*
X144000000Y67397500D01*
D14*
X145040000Y65197500D02*
X145040000Y69497500D01*
X138800000Y44267500D02*
X138800000Y48567500D01*
D15*
X140140000Y46397500D02*
X141620000Y46397500D01*
D14*
X141170000Y43417500D02*
X142770000Y43417500D01*
X141180000Y49637500D02*
X142780000Y49637500D01*
D15*
X141620000Y47047500D02*
X141620000Y46397500D01*
X141620000Y46397500D02*
X141620000Y45747500D01*
X141620000Y45747500D02*
X142520000Y46397500D01*
X142520000Y47047500D02*
X142520000Y46397500D01*
X142520000Y46397500D02*
X141620000Y47047500D01*
X142520000Y46397500D02*
X142520000Y45747500D01*
X142520000Y46397500D02*
X144000000Y46397500D01*
D14*
X145040000Y44197500D02*
X145040000Y48497500D01*
X180000Y49639000D02*
X180000Y59680000D01*
X4116000Y59680000D02*
X180000Y59680000D01*
X4116000Y49639000D02*
X180000Y49639000D01*
X12420000Y59680000D02*
X8483000Y59680000D01*
X12420000Y58030000D02*
X12420000Y59680000D01*
X12420000Y55531000D02*
X12420000Y56290000D01*
X12420000Y53410000D02*
X12420000Y53790000D01*
X12420000Y49639000D02*
X8483000Y49639000D01*
X12420000Y49639000D02*
X12420000Y50960000D01*
X79750000Y10839999D02*
X79750000Y15139999D01*
D15*
X81090000Y12969999D02*
X82570000Y12969999D01*
D14*
X82120000Y9989999D02*
X83720000Y9989999D01*
X82130000Y16209999D02*
X83730000Y16209999D01*
D15*
X82570000Y13619999D02*
X82570000Y12969999D01*
X82570000Y12969999D02*
X82570000Y12319999D01*
X82570000Y12319999D02*
X83470000Y12969999D01*
X83470000Y13619999D02*
X83470000Y12969999D01*
X83470000Y12969999D02*
X82570000Y13619999D01*
X83470000Y12969999D02*
X83470000Y12319999D01*
X83470000Y12969999D02*
X84950000Y12969999D01*
D14*
X85990000Y10769999D02*
X85990000Y15069999D01*
X46840000Y10870000D02*
X46840000Y15170000D01*
D15*
X48180000Y13000000D02*
X49660000Y13000000D01*
D14*
X49210000Y10020000D02*
X50810000Y10020000D01*
X49220000Y16240000D02*
X50820000Y16240000D01*
D15*
X49660000Y13650000D02*
X49660000Y13000000D01*
X49660000Y13000000D02*
X49660000Y12350000D01*
X49660000Y12350000D02*
X50560000Y13000000D01*
X50560000Y13650000D02*
X50560000Y13000000D01*
X50560000Y13000000D02*
X49660000Y13650000D01*
X50560000Y13000000D02*
X50560000Y12350000D01*
X50560000Y13000000D02*
X52040000Y13000000D01*
D14*
X53080000Y10800000D02*
X53080000Y15100000D01*
X10300000Y91017500D02*
X10300000Y95317500D01*
D15*
X11640000Y93147500D02*
X13120000Y93147500D01*
D14*
X12670000Y90167500D02*
X14270000Y90167500D01*
X12680000Y96387500D02*
X14280000Y96387500D01*
D15*
X13120000Y93797500D02*
X13120000Y93147500D01*
X13120000Y93147500D02*
X13120000Y92497500D01*
X13120000Y92497500D02*
X14020000Y93147500D01*
X14020000Y93797500D02*
X14020000Y93147500D01*
X14020000Y93147500D02*
X13120000Y93797500D01*
X14020000Y93147500D02*
X14020000Y92497500D01*
X14020000Y93147500D02*
X15500000Y93147500D01*
D14*
X16540000Y90947500D02*
X16540000Y95247500D01*
%LPC*%
D16*
X3344250Y96477500D02*
G75*
G02*
X2330750Y96477500I-506750J0D01*
G01*
X2330750Y96477500D02*
G75*
G02*
X3344250Y96477500I506750J0D01*
G01*
X6644250Y103727500D02*
G75*
G02*
X5630750Y103727500I-506750J0D01*
G01*
X5630750Y103727500D02*
G75*
G02*
X6644250Y103727500I506750J0D01*
G01*
X6644250Y89227500D02*
G75*
G02*
X5630750Y89227500I-506750J0D01*
G01*
X5630750Y89227500D02*
G75*
G02*
X6644250Y89227500I506750J0D01*
G01*
D17*
X139710000Y87647500D03*
X139710000Y96147500D03*
X144210000Y87647500D03*
X144210000Y96147500D03*
D18*
X146260000Y91897500D03*
X137660000Y91897500D03*
D19*
X145250000Y29000000D03*
D20*
X146210000Y54647500D03*
X137710000Y54647500D03*
X146210000Y59147500D03*
X137710000Y59147500D03*
D21*
X141960000Y61197500D03*
X141960000Y52597500D03*
D17*
X64160000Y8719999D03*
X64160000Y17219999D03*
X68660000Y8719999D03*
X68660000Y17219999D03*
D18*
X70710000Y12969999D03*
X62110000Y12969999D03*
D22*
X13300000Y78160000D03*
D23*
X13300000Y80660000D03*
X13300000Y83160000D03*
D24*
X6300000Y76260000D03*
X6300000Y85060000D03*
D17*
X11210000Y62897500D03*
X11210000Y71397500D03*
X15710000Y62897500D03*
X15710000Y71397500D03*
D18*
X17760000Y67147500D03*
X9160000Y67147500D03*
D19*
X12750000Y104200000D03*
D17*
X97195000Y8689999D03*
X97195000Y17189999D03*
X101695000Y8689999D03*
X101695000Y17189999D03*
D18*
X103745000Y12939999D03*
X95145000Y12939999D03*
D19*
X7250000Y30460000D03*
D25*
X144800000Y6760000D03*
X127800000Y6720000D03*
X144800000Y11760000D03*
X127800000Y11800000D03*
X144800000Y9260000D03*
X127800000Y9260000D03*
X130300000Y6760000D03*
X130300000Y11760000D03*
D26*
X137300000Y3760000D03*
X137300000Y14760000D03*
D25*
X6525000Y11435000D03*
X23525000Y11475000D03*
X6525000Y6435000D03*
X23525000Y6395000D03*
X6525000Y8935000D03*
X23525000Y8935000D03*
X21025000Y11435000D03*
X21025000Y6435000D03*
D26*
X14025000Y14435000D03*
X14025000Y3435000D03*
D20*
X146210000Y33647500D03*
X137710000Y33647500D03*
X146210000Y38147500D03*
X137710000Y38147500D03*
D21*
X141960000Y40197500D03*
X141960000Y31597500D03*
D17*
X31250000Y8750000D03*
X31250000Y17250000D03*
X35750000Y8750000D03*
X35750000Y17250000D03*
D18*
X37800000Y13000000D03*
X29200000Y13000000D03*
D20*
X146210000Y77147500D03*
X137710000Y77147500D03*
X146210000Y81647500D03*
X137710000Y81647500D03*
D21*
X141960000Y83697500D03*
X141960000Y75097500D03*
D19*
X145250000Y104200000D03*
D17*
X113695000Y8689999D03*
X113695000Y17189999D03*
X118195000Y8689999D03*
X118195000Y17189999D03*
D18*
X120245000Y12939999D03*
X111645000Y12939999D03*
D17*
X139710000Y63147500D03*
X139710000Y71647500D03*
X144210000Y63147500D03*
X144210000Y71647500D03*
D18*
X146260000Y67397500D03*
X137660000Y67397500D03*
D17*
X139710000Y42147500D03*
X139710000Y50647500D03*
X144210000Y42147500D03*
X144210000Y50647500D03*
D18*
X146260000Y46397500D03*
X137660000Y46397500D03*
D22*
X13300000Y52160000D03*
D23*
X13300000Y54660000D03*
X13300000Y57160000D03*
D24*
X6300000Y50260000D03*
X6300000Y59060000D03*
D17*
X80660000Y8719999D03*
X80660000Y17219999D03*
X85160000Y8719999D03*
X85160000Y17219999D03*
D18*
X87210000Y12969999D03*
X78610000Y12969999D03*
D17*
X47750000Y8750000D03*
X47750000Y17250000D03*
X52250000Y8750000D03*
X52250000Y17250000D03*
D18*
X54300000Y13000000D03*
X45700000Y13000000D03*
D17*
X11210000Y88897500D03*
X11210000Y97397500D03*
X15710000Y88897500D03*
X15710000Y97397500D03*
D18*
X17760000Y93147500D03*
X9160000Y93147500D03*
D27*
X140175000Y22710000D03*
D28*
X142675000Y22710000D03*
X145175000Y22710000D03*
X147675000Y22710000D03*
D29*
X20375000Y103760000D03*
D30*
X22915000Y103760000D03*
X25455000Y103760000D03*
X27995000Y103760000D03*
D31*
X4660000Y70380000D03*
D32*
X4660000Y62880000D03*
D33*
X6810000Y69030000D03*
X2510000Y69030000D03*
X6810000Y64230000D03*
X2510000Y64230000D03*
D27*
X4025000Y22710000D03*
D28*
X6525000Y22710000D03*
X9025000Y22710000D03*
X11525000Y22710000D03*
D34*
X2875000Y5885000D03*
D35*
X2875000Y8385000D03*
X2875000Y10885000D03*
X2875000Y13385000D03*
D36*
X148700000Y12785000D03*
D35*
X148700000Y10285000D03*
X148700000Y7785000D03*
X148700000Y5285000D03*
D37*
X7900000Y43960000D03*
D38*
X13130000Y41290000D03*
X10630000Y38010000D03*
D29*
X40025000Y2285000D03*
D30*
X37485000Y2285000D03*
X34945000Y2285000D03*
X32405000Y2285000D03*
X29865000Y2285000D03*
%LPD*%
M02*
