G04 #@! TF.GenerationSoftware,KiCad,Pcbnew,9.0.0*
G04 #@! TF.CreationDate,2025-03-19T22:07:30+07:00*
G04 #@! TF.ProjectId,USB_Screen_V0,5553425f-5363-4726-9565-6e5f56302e6b,rev?*
G04 #@! TF.SameCoordinates,PX3f8d880PY80f7230*
G04 #@! TF.FileFunction,Soldermask,Top*
G04 #@! TF.FilePolarity,Negative*
%FSLAX46Y46*%
G04 Gerber Fmt 4.6, Leading zero omitted, Abs format (unit mm)*
G04 Created by KiCad (PCBNEW 9.0.0) date 2025-03-19 22:07:30*
%MOMM*%
%LPD*%
G01*
G04 APERTURE LIST*
G04 Aperture macros list*
%AMRoundRect*
0 Rectangle with rounded corners*
0 $1 Rounding radius*
0 $2 $3 $4 $5 $6 $7 $8 $9 X,Y pos of 4 corners*
0 Add a 4 corners polygon primitive as box body*
4,1,4,$2,$3,$4,$5,$6,$7,$8,$9,$2,$3,0*
0 Add four circle primitives for the rounded corners*
1,1,$1+$1,$2,$3*
1,1,$1+$1,$4,$5*
1,1,$1+$1,$6,$7*
1,1,$1+$1,$8,$9*
0 Add four rect primitives between the rounded corners*
20,1,$1+$1,$2,$3,$4,$5,0*
20,1,$1+$1,$4,$5,$6,$7,0*
20,1,$1+$1,$6,$7,$8,$9,0*
20,1,$1+$1,$8,$9,$2,$3,0*%
G04 Aperture macros list end*
%ADD10C,1.013500*%
%ADD11R,1.200000X1.500000*%
%ADD12R,1.600000X1.200000*%
%ADD13C,3.200000*%
%ADD14R,1.500000X1.200000*%
%ADD15R,1.200000X1.600000*%
%ADD16R,1.800000X1.800000*%
%ADD17C,1.800000*%
%ADD18RoundRect,0.750000X1.250000X0.750000X-1.250000X0.750000X-1.250000X-0.750000X1.250000X-0.750000X0*%
%ADD19C,1.650000*%
%ADD20C,4.708000*%
%ADD21RoundRect,0.250000X-0.600000X-0.725000X0.600000X-0.725000X0.600000X0.725000X-0.600000X0.725000X0*%
%ADD22O,1.700000X1.950000*%
%ADD23R,1.700000X1.700000*%
%ADD24O,1.700000X1.700000*%
%ADD25C,0.520000*%
%ADD26O,0.520000X0.720000*%
%ADD27O,1.304000X1.554000*%
%ADD28RoundRect,0.250000X0.725000X-0.600000X0.725000X0.600000X-0.725000X0.600000X-0.725000X-0.600000X0*%
%ADD29O,1.950000X1.700000*%
%ADD30RoundRect,0.250000X-0.725000X0.600000X-0.725000X-0.600000X0.725000X-0.600000X0.725000X0.600000X0*%
%ADD31RoundRect,0.102000X-2.000000X0.750000X-2.000000X-0.750000X2.000000X-0.750000X2.000000X0.750000X0*%
%ADD32RoundRect,0.102000X-0.650000X1.500000X-0.650000X-1.500000X0.650000X-1.500000X0.650000X1.500000X0*%
G04 APERTURE END LIST*
D10*
X3344250Y96477500D02*
G75*
G02*
X2330750Y96477500I-506750J0D01*
G01*
X2330750Y96477500D02*
G75*
G02*
X3344250Y96477500I506750J0D01*
G01*
X6644250Y103727500D02*
G75*
G02*
X5630750Y103727500I-506750J0D01*
G01*
X5630750Y103727500D02*
G75*
G02*
X6644250Y103727500I506750J0D01*
G01*
X6644250Y89227500D02*
G75*
G02*
X5630750Y89227500I-506750J0D01*
G01*
X5630750Y89227500D02*
G75*
G02*
X6644250Y89227500I506750J0D01*
G01*
D11*
X139710000Y87647500D03*
X139710000Y96147500D03*
X144210000Y87647500D03*
X144210000Y96147500D03*
D12*
X146260000Y91897500D03*
X137660000Y91897500D03*
D13*
X145250000Y29000000D03*
D14*
X146210000Y54647500D03*
X137710000Y54647500D03*
X146210000Y59147500D03*
X137710000Y59147500D03*
D15*
X141960000Y61197500D03*
X141960000Y52597500D03*
D11*
X64160000Y8719999D03*
X64160000Y17219999D03*
X68660000Y8719999D03*
X68660000Y17219999D03*
D12*
X70710000Y12969999D03*
X62110000Y12969999D03*
D16*
X13300000Y78160000D03*
D17*
X13300000Y80660000D03*
X13300000Y83160000D03*
D18*
X6300000Y76260000D03*
X6300000Y85060000D03*
D11*
X11210000Y62897500D03*
X11210000Y71397500D03*
X15710000Y62897500D03*
X15710000Y71397500D03*
D12*
X17760000Y67147500D03*
X9160000Y67147500D03*
D13*
X12750000Y104200000D03*
D11*
X97195000Y8689999D03*
X97195000Y17189999D03*
X101695000Y8689999D03*
X101695000Y17189999D03*
D12*
X103745000Y12939999D03*
X95145000Y12939999D03*
D13*
X7250000Y30460000D03*
D19*
X144800000Y6760000D03*
X127800000Y6720000D03*
X144800000Y11760000D03*
X127800000Y11800000D03*
X144800000Y9260000D03*
X127800000Y9260000D03*
X130300000Y6760000D03*
X130300000Y11760000D03*
D20*
X137300000Y3760000D03*
X137300000Y14760000D03*
D19*
X6525000Y11435000D03*
X23525000Y11475000D03*
X6525000Y6435000D03*
X23525000Y6395000D03*
X6525000Y8935000D03*
X23525000Y8935000D03*
X21025000Y11435000D03*
X21025000Y6435000D03*
D20*
X14025000Y14435000D03*
X14025000Y3435000D03*
D14*
X146210000Y33647500D03*
X137710000Y33647500D03*
X146210000Y38147500D03*
X137710000Y38147500D03*
D15*
X141960000Y40197500D03*
X141960000Y31597500D03*
D11*
X31250000Y8750000D03*
X31250000Y17250000D03*
X35750000Y8750000D03*
X35750000Y17250000D03*
D12*
X37800000Y13000000D03*
X29200000Y13000000D03*
D14*
X146210000Y77147500D03*
X137710000Y77147500D03*
X146210000Y81647500D03*
X137710000Y81647500D03*
D15*
X141960000Y83697500D03*
X141960000Y75097500D03*
D13*
X145250000Y104200000D03*
D11*
X113695000Y8689999D03*
X113695000Y17189999D03*
X118195000Y8689999D03*
X118195000Y17189999D03*
D12*
X120245000Y12939999D03*
X111645000Y12939999D03*
D11*
X139710000Y63147500D03*
X139710000Y71647500D03*
X144210000Y63147500D03*
X144210000Y71647500D03*
D12*
X146260000Y67397500D03*
X137660000Y67397500D03*
D11*
X139710000Y42147500D03*
X139710000Y50647500D03*
X144210000Y42147500D03*
X144210000Y50647500D03*
D12*
X146260000Y46397500D03*
X137660000Y46397500D03*
D16*
X13300000Y52160000D03*
D17*
X13300000Y54660000D03*
X13300000Y57160000D03*
D18*
X6300000Y50260000D03*
X6300000Y59060000D03*
D11*
X80660000Y8719999D03*
X80660000Y17219999D03*
X85160000Y8719999D03*
X85160000Y17219999D03*
D12*
X87210000Y12969999D03*
X78610000Y12969999D03*
D11*
X47750000Y8750000D03*
X47750000Y17250000D03*
X52250000Y8750000D03*
X52250000Y17250000D03*
D12*
X54300000Y13000000D03*
X45700000Y13000000D03*
D11*
X11210000Y88897500D03*
X11210000Y97397500D03*
X15710000Y88897500D03*
X15710000Y97397500D03*
D12*
X17760000Y93147500D03*
X9160000Y93147500D03*
D21*
X140175000Y22710000D03*
D22*
X142675000Y22710000D03*
X145175000Y22710000D03*
X147675000Y22710000D03*
D23*
X20375000Y103760000D03*
D24*
X22915000Y103760000D03*
X25455000Y103760000D03*
X27995000Y103760000D03*
D25*
X4660000Y70380000D03*
D26*
X4660000Y62880000D03*
D27*
X6810000Y69030000D03*
X2510000Y69030000D03*
X6810000Y64230000D03*
X2510000Y64230000D03*
D21*
X4025000Y22710000D03*
D22*
X6525000Y22710000D03*
X9025000Y22710000D03*
X11525000Y22710000D03*
D28*
X2875000Y5885000D03*
D29*
X2875000Y8385000D03*
X2875000Y10885000D03*
X2875000Y13385000D03*
D30*
X148700000Y12785000D03*
D29*
X148700000Y10285000D03*
X148700000Y7785000D03*
X148700000Y5285000D03*
D31*
X7900000Y43960000D03*
D32*
X13130000Y41290000D03*
X10630000Y38010000D03*
D23*
X40025000Y2285000D03*
D24*
X37485000Y2285000D03*
X34945000Y2285000D03*
X32405000Y2285000D03*
X29865000Y2285000D03*
M02*
