G04 #@! TF.GenerationSoftware,KiCad,Pcbnew,9.0.0*
G04 #@! TF.CreationDate,2025-03-19T22:07:30+07:00*
G04 #@! TF.ProjectId,USB_Screen_V0,5553425f-5363-4726-9565-6e5f56302e6b,rev?*
G04 #@! TF.SameCoordinates,PX3f8d880PY80f7230*
G04 #@! TF.FileFunction,Paste,Top*
G04 #@! TF.FilePolarity,Positive*
%FSLAX46Y46*%
G04 Gerber Fmt 4.6, Leading zero omitted, Abs format (unit mm)*
G04 Created by KiCad (PCBNEW 9.0.0) date 2025-03-19 22:07:30*
%MOMM*%
%LPD*%
G01*
G04 APERTURE LIST*
%ADD10R,1.200000X1.500000*%
%ADD11R,1.600000X1.200000*%
%ADD12R,1.500000X1.200000*%
%ADD13R,1.200000X1.600000*%
G04 APERTURE END LIST*
D10*
X139710000Y87647500D03*
X139710000Y96147500D03*
X144210000Y87647500D03*
X144210000Y96147500D03*
D11*
X146260000Y91897500D03*
X137660000Y91897500D03*
D12*
X146210000Y54647500D03*
X137710000Y54647500D03*
X146210000Y59147500D03*
X137710000Y59147500D03*
D13*
X141960000Y61197500D03*
X141960000Y52597500D03*
D10*
X64160000Y8719999D03*
X64160000Y17219999D03*
X68660000Y8719999D03*
X68660000Y17219999D03*
D11*
X70710000Y12969999D03*
X62110000Y12969999D03*
D10*
X11210000Y62897500D03*
X11210000Y71397500D03*
X15710000Y62897500D03*
X15710000Y71397500D03*
D11*
X17760000Y67147500D03*
X9160000Y67147500D03*
D10*
X97195000Y8689999D03*
X97195000Y17189999D03*
X101695000Y8689999D03*
X101695000Y17189999D03*
D11*
X103745000Y12939999D03*
X95145000Y12939999D03*
D12*
X146210000Y33647500D03*
X137710000Y33647500D03*
X146210000Y38147500D03*
X137710000Y38147500D03*
D13*
X141960000Y40197500D03*
X141960000Y31597500D03*
D10*
X31250000Y8750000D03*
X31250000Y17250000D03*
X35750000Y8750000D03*
X35750000Y17250000D03*
D11*
X37800000Y13000000D03*
X29200000Y13000000D03*
D12*
X146210000Y77147500D03*
X137710000Y77147500D03*
X146210000Y81647500D03*
X137710000Y81647500D03*
D13*
X141960000Y83697500D03*
X141960000Y75097500D03*
D10*
X113695000Y8689999D03*
X113695000Y17189999D03*
X118195000Y8689999D03*
X118195000Y17189999D03*
D11*
X120245000Y12939999D03*
X111645000Y12939999D03*
D10*
X139710000Y63147500D03*
X139710000Y71647500D03*
X144210000Y63147500D03*
X144210000Y71647500D03*
D11*
X146260000Y67397500D03*
X137660000Y67397500D03*
D10*
X139710000Y42147500D03*
X139710000Y50647500D03*
X144210000Y42147500D03*
X144210000Y50647500D03*
D11*
X146260000Y46397500D03*
X137660000Y46397500D03*
D10*
X80660000Y8719999D03*
X80660000Y17219999D03*
X85160000Y8719999D03*
X85160000Y17219999D03*
D11*
X87210000Y12969999D03*
X78610000Y12969999D03*
D10*
X47750000Y8750000D03*
X47750000Y17250000D03*
X52250000Y8750000D03*
X52250000Y17250000D03*
D11*
X54300000Y13000000D03*
X45700000Y13000000D03*
D10*
X11210000Y88897500D03*
X11210000Y97397500D03*
X15710000Y88897500D03*
X15710000Y97397500D03*
D11*
X17760000Y93147500D03*
X9160000Y93147500D03*
M02*
