G04 #@! TF.GenerationSoftware,KiCad,Pcbnew,9.0.0*
G04 #@! TF.CreationDate,2025-03-19T22:07:30+07:00*
G04 #@! TF.ProjectId,USB_Screen_V0,5553425f-5363-4726-9565-6e5f56302e6b,rev?*
G04 #@! TF.SameCoordinates,PX3f8d880PY80f7230*
G04 #@! TF.FileFunction,Soldermask,Bot*
G04 #@! TF.FilePolarity,Negative*
%FSLAX46Y46*%
G04 Gerber Fmt 4.6, Leading zero omitted, Abs format (unit mm)*
G04 Created by KiCad (PCBNEW 9.0.0) date 2025-03-19 22:07:30*
%MOMM*%
%LPD*%
G01*
G04 APERTURE LIST*
G04 Aperture macros list*
%AMRoundRect*
0 Rectangle with rounded corners*
0 $1 Rounding radius*
0 $2 $3 $4 $5 $6 $7 $8 $9 X,Y pos of 4 corners*
0 Add a 4 corners polygon primitive as box body*
4,1,4,$2,$3,$4,$5,$6,$7,$8,$9,$2,$3,0*
0 Add four circle primitives for the rounded corners*
1,1,$1+$1,$2,$3*
1,1,$1+$1,$4,$5*
1,1,$1+$1,$6,$7*
1,1,$1+$1,$8,$9*
0 Add four rect primitives between the rounded corners*
20,1,$1+$1,$2,$3,$4,$5,0*
20,1,$1+$1,$4,$5,$6,$7,0*
20,1,$1+$1,$6,$7,$8,$9,0*
20,1,$1+$1,$8,$9,$2,$3,0*%
G04 Aperture macros list end*
%ADD10C,1.013500*%
%ADD11C,0.010000*%
%ADD12C,3.200000*%
%ADD13R,1.800000X1.800000*%
%ADD14C,1.800000*%
%ADD15RoundRect,0.750000X1.250000X0.750000X-1.250000X0.750000X-1.250000X-0.750000X1.250000X-0.750000X0*%
%ADD16C,1.650000*%
%ADD17C,4.708000*%
%ADD18RoundRect,0.200000X-0.275000X0.200000X-0.275000X-0.200000X0.275000X-0.200000X0.275000X0.200000X0*%
%ADD19RoundRect,0.218750X0.218750X0.256250X-0.218750X0.256250X-0.218750X-0.256250X0.218750X-0.256250X0*%
%ADD20RoundRect,0.225000X-0.225000X-0.250000X0.225000X-0.250000X0.225000X0.250000X-0.225000X0.250000X0*%
%ADD21RoundRect,0.200000X-0.200000X-0.275000X0.200000X-0.275000X0.200000X0.275000X-0.200000X0.275000X0*%
%ADD22RoundRect,0.225000X0.250000X-0.225000X0.250000X0.225000X-0.250000X0.225000X-0.250000X-0.225000X0*%
%ADD23RoundRect,0.225000X0.225000X0.250000X-0.225000X0.250000X-0.225000X-0.250000X0.225000X-0.250000X0*%
%ADD24C,1.000000*%
%ADD25RoundRect,0.200000X0.275000X-0.200000X0.275000X0.200000X-0.275000X0.200000X-0.275000X-0.200000X0*%
%ADD26RoundRect,0.225000X-0.250000X0.225000X-0.250000X-0.225000X0.250000X-0.225000X0.250000X0.225000X0*%
%ADD27RoundRect,0.250000X-0.600000X-0.725000X0.600000X-0.725000X0.600000X0.725000X-0.600000X0.725000X0*%
%ADD28O,1.700000X1.950000*%
%ADD29RoundRect,0.075000X-0.200000X0.075000X-0.200000X-0.075000X0.200000X-0.075000X0.200000X0.075000X0*%
%ADD30RoundRect,0.200000X0.200000X0.275000X-0.200000X0.275000X-0.200000X-0.275000X0.200000X-0.275000X0*%
%ADD31RoundRect,0.250000X-0.475000X0.250000X-0.475000X-0.250000X0.475000X-0.250000X0.475000X0.250000X0*%
%ADD32RoundRect,0.250000X1.000000X0.650000X-1.000000X0.650000X-1.000000X-0.650000X1.000000X-0.650000X0*%
%ADD33RoundRect,0.150000X-0.150000X-0.200000X0.150000X-0.200000X0.150000X0.200000X-0.150000X0.200000X0*%
%ADD34R,1.700000X1.700000*%
%ADD35O,1.700000X1.700000*%
%ADD36R,0.450000X1.450000*%
%ADD37R,2.400000X4.680000*%
%ADD38RoundRect,0.100000X0.687500X0.100000X-0.687500X0.100000X-0.687500X-0.100000X0.687500X-0.100000X0*%
%ADD39RoundRect,0.250000X0.650000X-1.000000X0.650000X1.000000X-0.650000X1.000000X-0.650000X-1.000000X0*%
%ADD40C,0.520000*%
%ADD41O,0.520000X0.720000*%
%ADD42R,0.870000X0.300000*%
%ADD43O,1.100000X1.350000*%
%ADD44RoundRect,0.250000X-0.650000X1.000000X-0.650000X-1.000000X0.650000X-1.000000X0.650000X1.000000X0*%
%ADD45RoundRect,0.218750X-0.218750X-0.256250X0.218750X-0.256250X0.218750X0.256250X-0.218750X0.256250X0*%
%ADD46RoundRect,0.250000X0.475000X-0.250000X0.475000X0.250000X-0.475000X0.250000X-0.475000X-0.250000X0*%
%ADD47RoundRect,0.250000X-1.425000X0.362500X-1.425000X-0.362500X1.425000X-0.362500X1.425000X0.362500X0*%
%ADD48RoundRect,0.100000X-0.712500X-0.100000X0.712500X-0.100000X0.712500X0.100000X-0.712500X0.100000X0*%
%ADD49R,0.300000X1.300000*%
%ADD50R,1.800000X2.200000*%
%ADD51R,2.400000X5.700000*%
%ADD52RoundRect,0.150000X0.150000X0.200000X-0.150000X0.200000X-0.150000X-0.200000X0.150000X-0.200000X0*%
%ADD53RoundRect,0.150000X-0.512500X-0.150000X0.512500X-0.150000X0.512500X0.150000X-0.512500X0.150000X0*%
%ADD54RoundRect,0.250000X-1.000000X-0.650000X1.000000X-0.650000X1.000000X0.650000X-1.000000X0.650000X0*%
%ADD55RoundRect,0.250000X0.725000X-0.600000X0.725000X0.600000X-0.725000X0.600000X-0.725000X-0.600000X0*%
%ADD56O,1.950000X1.700000*%
%ADD57R,3.700000X1.100000*%
%ADD58R,1.200000X1.400000*%
%ADD59RoundRect,0.075000X-0.437500X-0.075000X0.437500X-0.075000X0.437500X0.075000X-0.437500X0.075000X0*%
%ADD60RoundRect,0.075000X-0.075000X-0.437500X0.075000X-0.437500X0.075000X0.437500X-0.075000X0.437500X0*%
%ADD61R,4.250000X4.250000*%
%ADD62RoundRect,0.218750X0.256250X-0.218750X0.256250X0.218750X-0.256250X0.218750X-0.256250X-0.218750X0*%
%ADD63RoundRect,0.150000X0.587500X0.150000X-0.587500X0.150000X-0.587500X-0.150000X0.587500X-0.150000X0*%
%ADD64RoundRect,0.250000X-0.725000X0.600000X-0.725000X-0.600000X0.725000X-0.600000X0.725000X0.600000X0*%
%ADD65R,4.000000X1.500000*%
%ADD66R,1.300000X3.000000*%
%ADD67RoundRect,0.250000X-0.250000X-0.475000X0.250000X-0.475000X0.250000X0.475000X-0.250000X0.475000X0*%
%ADD68RoundRect,0.150000X0.150000X-0.825000X0.150000X0.825000X-0.150000X0.825000X-0.150000X-0.825000X0*%
%ADD69RoundRect,0.150000X-0.587500X-0.150000X0.587500X-0.150000X0.587500X0.150000X-0.587500X0.150000X0*%
%ADD70RoundRect,0.062500X0.375000X0.062500X-0.375000X0.062500X-0.375000X-0.062500X0.375000X-0.062500X0*%
%ADD71RoundRect,0.062500X0.062500X0.375000X-0.062500X0.375000X-0.062500X-0.375000X0.062500X-0.375000X0*%
%ADD72R,3.100000X3.100000*%
%ADD73R,1.150000X3.600000*%
%ADD74RoundRect,0.075000X0.662500X0.075000X-0.662500X0.075000X-0.662500X-0.075000X0.662500X-0.075000X0*%
%ADD75RoundRect,0.075000X0.075000X0.662500X-0.075000X0.662500X-0.075000X-0.662500X0.075000X-0.662500X0*%
%ADD76RoundRect,0.250000X0.250000X0.475000X-0.250000X0.475000X-0.250000X-0.475000X0.250000X-0.475000X0*%
%ADD77R,1.600000X0.300000*%
%ADD78R,0.300000X1.600000*%
%ADD79R,5.200000X5.200000*%
G04 APERTURE END LIST*
D10*
X3344250Y96477500D02*
G75*
G02*
X2330750Y96477500I-506750J0D01*
G01*
X2330750Y96477500D02*
G75*
G02*
X3344250Y96477500I506750J0D01*
G01*
X6644250Y103727500D02*
G75*
G02*
X5630750Y103727500I-506750J0D01*
G01*
X5630750Y103727500D02*
G75*
G02*
X6644250Y103727500I506750J0D01*
G01*
X6644250Y89227500D02*
G75*
G02*
X5630750Y89227500I-506750J0D01*
G01*
X5630750Y89227500D02*
G75*
G02*
X6644250Y89227500I506750J0D01*
G01*
D11*
X9401000Y100475000D02*
X7474000Y100475000D01*
X7474000Y100900000D01*
X9401000Y100900000D01*
X9401000Y100475000D01*
G36*
X9401000Y100475000D02*
G01*
X7474000Y100475000D01*
X7474000Y100900000D01*
X9401000Y100900000D01*
X9401000Y100475000D01*
G37*
X9401000Y99975000D02*
X7474000Y99975000D01*
X7474000Y100400000D01*
X9401000Y100400000D01*
X9401000Y99975000D01*
G36*
X9401000Y99975000D02*
G01*
X7474000Y99975000D01*
X7474000Y100400000D01*
X9401000Y100400000D01*
X9401000Y99975000D01*
G37*
X9401000Y99475000D02*
X7474000Y99475000D01*
X7474000Y99900000D01*
X9401000Y99900000D01*
X9401000Y99475000D01*
G36*
X9401000Y99475000D02*
G01*
X7474000Y99475000D01*
X7474000Y99900000D01*
X9401000Y99900000D01*
X9401000Y99475000D01*
G37*
X9401000Y98975000D02*
X7474000Y98975000D01*
X7474000Y99400000D01*
X9401000Y99400000D01*
X9401000Y98975000D01*
G36*
X9401000Y98975000D02*
G01*
X7474000Y98975000D01*
X7474000Y99400000D01*
X9401000Y99400000D01*
X9401000Y98975000D01*
G37*
X9401000Y98475000D02*
X7474000Y98475000D01*
X7474000Y98900000D01*
X9401000Y98900000D01*
X9401000Y98475000D01*
G36*
X9401000Y98475000D02*
G01*
X7474000Y98475000D01*
X7474000Y98900000D01*
X9401000Y98900000D01*
X9401000Y98475000D01*
G37*
X9401000Y97975000D02*
X7474000Y97975000D01*
X7474000Y98400000D01*
X9401000Y98400000D01*
X9401000Y97975000D01*
G36*
X9401000Y97975000D02*
G01*
X7474000Y97975000D01*
X7474000Y98400000D01*
X9401000Y98400000D01*
X9401000Y97975000D01*
G37*
X9401000Y97475000D02*
X7474000Y97475000D01*
X7474000Y97900000D01*
X9401000Y97900000D01*
X9401000Y97475000D01*
G36*
X9401000Y97475000D02*
G01*
X7474000Y97475000D01*
X7474000Y97900000D01*
X9401000Y97900000D01*
X9401000Y97475000D01*
G37*
X9401000Y96975000D02*
X7474000Y96975000D01*
X7474000Y97400000D01*
X9401000Y97400000D01*
X9401000Y96975000D01*
G36*
X9401000Y96975000D02*
G01*
X7474000Y96975000D01*
X7474000Y97400000D01*
X9401000Y97400000D01*
X9401000Y96975000D01*
G37*
X9401000Y96475000D02*
X7474000Y96475000D01*
X7474000Y96900000D01*
X9401000Y96900000D01*
X9401000Y96475000D01*
G36*
X9401000Y96475000D02*
G01*
X7474000Y96475000D01*
X7474000Y96900000D01*
X9401000Y96900000D01*
X9401000Y96475000D01*
G37*
X9401000Y95975000D02*
X7474000Y95975000D01*
X7474000Y96400000D01*
X9401000Y96400000D01*
X9401000Y95975000D01*
G36*
X9401000Y95975000D02*
G01*
X7474000Y95975000D01*
X7474000Y96400000D01*
X9401000Y96400000D01*
X9401000Y95975000D01*
G37*
X9401000Y95475000D02*
X7474000Y95475000D01*
X7474000Y95900000D01*
X9401000Y95900000D01*
X9401000Y95475000D01*
G36*
X9401000Y95475000D02*
G01*
X7474000Y95475000D01*
X7474000Y95900000D01*
X9401000Y95900000D01*
X9401000Y95475000D01*
G37*
X9401000Y94975000D02*
X7474000Y94975000D01*
X7474000Y95400000D01*
X9401000Y95400000D01*
X9401000Y94975000D01*
G36*
X9401000Y94975000D02*
G01*
X7474000Y94975000D01*
X7474000Y95400000D01*
X9401000Y95400000D01*
X9401000Y94975000D01*
G37*
X9401000Y94475000D02*
X7474000Y94475000D01*
X7474000Y94900000D01*
X9401000Y94900000D01*
X9401000Y94475000D01*
G36*
X9401000Y94475000D02*
G01*
X7474000Y94475000D01*
X7474000Y94900000D01*
X9401000Y94900000D01*
X9401000Y94475000D01*
G37*
X9401000Y93975000D02*
X7474000Y93975000D01*
X7474000Y94400000D01*
X9401000Y94400000D01*
X9401000Y93975000D01*
G36*
X9401000Y93975000D02*
G01*
X7474000Y93975000D01*
X7474000Y94400000D01*
X9401000Y94400000D01*
X9401000Y93975000D01*
G37*
X9401000Y93475000D02*
X7474000Y93475000D01*
X7474000Y93900000D01*
X9401000Y93900000D01*
X9401000Y93475000D01*
G36*
X9401000Y93475000D02*
G01*
X7474000Y93475000D01*
X7474000Y93900000D01*
X9401000Y93900000D01*
X9401000Y93475000D01*
G37*
X9401000Y92975000D02*
X7474000Y92975000D01*
X7474000Y93400000D01*
X9401000Y93400000D01*
X9401000Y92975000D01*
G36*
X9401000Y92975000D02*
G01*
X7474000Y92975000D01*
X7474000Y93400000D01*
X9401000Y93400000D01*
X9401000Y92975000D01*
G37*
X9401000Y92475000D02*
X7474000Y92475000D01*
X7474000Y92900000D01*
X9401000Y92900000D01*
X9401000Y92475000D01*
G36*
X9401000Y92475000D02*
G01*
X7474000Y92475000D01*
X7474000Y92900000D01*
X9401000Y92900000D01*
X9401000Y92475000D01*
G37*
X9401000Y91975000D02*
X7474000Y91975000D01*
X7474000Y92400000D01*
X9401000Y92400000D01*
X9401000Y91975000D01*
G36*
X9401000Y91975000D02*
G01*
X7474000Y91975000D01*
X7474000Y92400000D01*
X9401000Y92400000D01*
X9401000Y91975000D01*
G37*
X9401000Y91475000D02*
X7474000Y91475000D01*
X7474000Y91900000D01*
X9401000Y91900000D01*
X9401000Y91475000D01*
G36*
X9401000Y91475000D02*
G01*
X7474000Y91475000D01*
X7474000Y91900000D01*
X9401000Y91900000D01*
X9401000Y91475000D01*
G37*
X19253000Y42164000D02*
X19255000Y42164000D01*
X19258000Y42163000D01*
X19260000Y42163000D01*
X19263000Y42162000D01*
X19265000Y42161000D01*
X19268000Y42160000D01*
X19270000Y42158000D01*
X19272000Y42157000D01*
X19274000Y42155000D01*
X19276000Y42154000D01*
X19278000Y42152000D01*
X19280000Y42150000D01*
X19282000Y42148000D01*
X19284000Y42146000D01*
X19285000Y42144000D01*
X19287000Y42142000D01*
X19288000Y42140000D01*
X19290000Y42138000D01*
X19291000Y42135000D01*
X19292000Y42133000D01*
X19293000Y42130000D01*
X19293000Y42128000D01*
X19294000Y42125000D01*
X19294000Y42123000D01*
X19295000Y42120000D01*
X19295000Y42118000D01*
X19295000Y42115000D01*
X19295000Y41575000D01*
X19295000Y41572000D01*
X19295000Y41570000D01*
X19294000Y41567000D01*
X19294000Y41565000D01*
X19293000Y41562000D01*
X19293000Y41560000D01*
X19292000Y41557000D01*
X19291000Y41555000D01*
X19290000Y41552000D01*
X19288000Y41550000D01*
X19287000Y41548000D01*
X19285000Y41546000D01*
X19284000Y41544000D01*
X19282000Y41542000D01*
X19280000Y41540000D01*
X19278000Y41538000D01*
X19276000Y41536000D01*
X19274000Y41535000D01*
X19272000Y41533000D01*
X19270000Y41532000D01*
X19268000Y41530000D01*
X19265000Y41529000D01*
X19263000Y41528000D01*
X19260000Y41527000D01*
X19258000Y41527000D01*
X19255000Y41526000D01*
X19253000Y41526000D01*
X19250000Y41525000D01*
X19248000Y41525000D01*
X19245000Y41525000D01*
X18955000Y41525000D01*
X18952000Y41525000D01*
X18950000Y41525000D01*
X18947000Y41526000D01*
X18945000Y41526000D01*
X18942000Y41527000D01*
X18940000Y41527000D01*
X18937000Y41528000D01*
X18935000Y41529000D01*
X18932000Y41530000D01*
X18930000Y41532000D01*
X18928000Y41533000D01*
X18926000Y41535000D01*
X18924000Y41536000D01*
X18922000Y41538000D01*
X18920000Y41540000D01*
X18918000Y41542000D01*
X18916000Y41544000D01*
X18915000Y41546000D01*
X18913000Y41548000D01*
X18912000Y41550000D01*
X18910000Y41552000D01*
X18909000Y41555000D01*
X18908000Y41557000D01*
X18907000Y41560000D01*
X18907000Y41562000D01*
X18906000Y41565000D01*
X18906000Y41567000D01*
X18905000Y41570000D01*
X18905000Y41572000D01*
X18905000Y41575000D01*
X18905000Y42115000D01*
X18905000Y42118000D01*
X18905000Y42120000D01*
X18906000Y42123000D01*
X18906000Y42125000D01*
X18907000Y42128000D01*
X18907000Y42130000D01*
X18908000Y42133000D01*
X18909000Y42135000D01*
X18910000Y42138000D01*
X18912000Y42140000D01*
X18913000Y42142000D01*
X18915000Y42144000D01*
X18916000Y42146000D01*
X18918000Y42148000D01*
X18920000Y42150000D01*
X18922000Y42152000D01*
X18924000Y42154000D01*
X18926000Y42155000D01*
X18928000Y42157000D01*
X18930000Y42158000D01*
X18932000Y42160000D01*
X18935000Y42161000D01*
X18937000Y42162000D01*
X18940000Y42163000D01*
X18942000Y42163000D01*
X18945000Y42164000D01*
X18947000Y42164000D01*
X18950000Y42165000D01*
X18952000Y42165000D01*
X18955000Y42165000D01*
X19245000Y42165000D01*
X19248000Y42165000D01*
X19250000Y42165000D01*
X19253000Y42164000D01*
G36*
X19253000Y42164000D02*
G01*
X19255000Y42164000D01*
X19258000Y42163000D01*
X19260000Y42163000D01*
X19263000Y42162000D01*
X19265000Y42161000D01*
X19268000Y42160000D01*
X19270000Y42158000D01*
X19272000Y42157000D01*
X19274000Y42155000D01*
X19276000Y42154000D01*
X19278000Y42152000D01*
X19280000Y42150000D01*
X19282000Y42148000D01*
X19284000Y42146000D01*
X19285000Y42144000D01*
X19287000Y42142000D01*
X19288000Y42140000D01*
X19290000Y42138000D01*
X19291000Y42135000D01*
X19292000Y42133000D01*
X19293000Y42130000D01*
X19293000Y42128000D01*
X19294000Y42125000D01*
X19294000Y42123000D01*
X19295000Y42120000D01*
X19295000Y42118000D01*
X19295000Y42115000D01*
X19295000Y41575000D01*
X19295000Y41572000D01*
X19295000Y41570000D01*
X19294000Y41567000D01*
X19294000Y41565000D01*
X19293000Y41562000D01*
X19293000Y41560000D01*
X19292000Y41557000D01*
X19291000Y41555000D01*
X19290000Y41552000D01*
X19288000Y41550000D01*
X19287000Y41548000D01*
X19285000Y41546000D01*
X19284000Y41544000D01*
X19282000Y41542000D01*
X19280000Y41540000D01*
X19278000Y41538000D01*
X19276000Y41536000D01*
X19274000Y41535000D01*
X19272000Y41533000D01*
X19270000Y41532000D01*
X19268000Y41530000D01*
X19265000Y41529000D01*
X19263000Y41528000D01*
X19260000Y41527000D01*
X19258000Y41527000D01*
X19255000Y41526000D01*
X19253000Y41526000D01*
X19250000Y41525000D01*
X19248000Y41525000D01*
X19245000Y41525000D01*
X18955000Y41525000D01*
X18952000Y41525000D01*
X18950000Y41525000D01*
X18947000Y41526000D01*
X18945000Y41526000D01*
X18942000Y41527000D01*
X18940000Y41527000D01*
X18937000Y41528000D01*
X18935000Y41529000D01*
X18932000Y41530000D01*
X18930000Y41532000D01*
X18928000Y41533000D01*
X18926000Y41535000D01*
X18924000Y41536000D01*
X18922000Y41538000D01*
X18920000Y41540000D01*
X18918000Y41542000D01*
X18916000Y41544000D01*
X18915000Y41546000D01*
X18913000Y41548000D01*
X18912000Y41550000D01*
X18910000Y41552000D01*
X18909000Y41555000D01*
X18908000Y41557000D01*
X18907000Y41560000D01*
X18907000Y41562000D01*
X18906000Y41565000D01*
X18906000Y41567000D01*
X18905000Y41570000D01*
X18905000Y41572000D01*
X18905000Y41575000D01*
X18905000Y42115000D01*
X18905000Y42118000D01*
X18905000Y42120000D01*
X18906000Y42123000D01*
X18906000Y42125000D01*
X18907000Y42128000D01*
X18907000Y42130000D01*
X18908000Y42133000D01*
X18909000Y42135000D01*
X18910000Y42138000D01*
X18912000Y42140000D01*
X18913000Y42142000D01*
X18915000Y42144000D01*
X18916000Y42146000D01*
X18918000Y42148000D01*
X18920000Y42150000D01*
X18922000Y42152000D01*
X18924000Y42154000D01*
X18926000Y42155000D01*
X18928000Y42157000D01*
X18930000Y42158000D01*
X18932000Y42160000D01*
X18935000Y42161000D01*
X18937000Y42162000D01*
X18940000Y42163000D01*
X18942000Y42163000D01*
X18945000Y42164000D01*
X18947000Y42164000D01*
X18950000Y42165000D01*
X18952000Y42165000D01*
X18955000Y42165000D01*
X19245000Y42165000D01*
X19248000Y42165000D01*
X19250000Y42165000D01*
X19253000Y42164000D01*
G37*
X19253000Y40194000D02*
X19255000Y40194000D01*
X19258000Y40193000D01*
X19260000Y40193000D01*
X19263000Y40192000D01*
X19265000Y40191000D01*
X19268000Y40190000D01*
X19270000Y40188000D01*
X19272000Y40187000D01*
X19274000Y40185000D01*
X19276000Y40184000D01*
X19278000Y40182000D01*
X19280000Y40180000D01*
X19282000Y40178000D01*
X19284000Y40176000D01*
X19285000Y40174000D01*
X19287000Y40172000D01*
X19288000Y40170000D01*
X19290000Y40168000D01*
X19291000Y40165000D01*
X19292000Y40163000D01*
X19293000Y40160000D01*
X19293000Y40158000D01*
X19294000Y40155000D01*
X19294000Y40153000D01*
X19295000Y40150000D01*
X19295000Y40148000D01*
X19295000Y40145000D01*
X19295000Y39605000D01*
X19295000Y39602000D01*
X19295000Y39600000D01*
X19294000Y39597000D01*
X19294000Y39595000D01*
X19293000Y39592000D01*
X19293000Y39590000D01*
X19292000Y39587000D01*
X19291000Y39585000D01*
X19290000Y39582000D01*
X19288000Y39580000D01*
X19287000Y39578000D01*
X19285000Y39576000D01*
X19284000Y39574000D01*
X19282000Y39572000D01*
X19280000Y39570000D01*
X19278000Y39568000D01*
X19276000Y39566000D01*
X19274000Y39565000D01*
X19272000Y39563000D01*
X19270000Y39562000D01*
X19268000Y39560000D01*
X19265000Y39559000D01*
X19263000Y39558000D01*
X19260000Y39557000D01*
X19258000Y39557000D01*
X19255000Y39556000D01*
X19253000Y39556000D01*
X19250000Y39555000D01*
X19248000Y39555000D01*
X19245000Y39555000D01*
X18955000Y39555000D01*
X18952000Y39555000D01*
X18950000Y39555000D01*
X18947000Y39556000D01*
X18945000Y39556000D01*
X18942000Y39557000D01*
X18940000Y39557000D01*
X18937000Y39558000D01*
X18935000Y39559000D01*
X18932000Y39560000D01*
X18930000Y39562000D01*
X18928000Y39563000D01*
X18926000Y39565000D01*
X18924000Y39566000D01*
X18922000Y39568000D01*
X18920000Y39570000D01*
X18918000Y39572000D01*
X18916000Y39574000D01*
X18915000Y39576000D01*
X18913000Y39578000D01*
X18912000Y39580000D01*
X18910000Y39582000D01*
X18909000Y39585000D01*
X18908000Y39587000D01*
X18907000Y39590000D01*
X18907000Y39592000D01*
X18906000Y39595000D01*
X18906000Y39597000D01*
X18905000Y39600000D01*
X18905000Y39602000D01*
X18905000Y39605000D01*
X18905000Y40145000D01*
X18905000Y40148000D01*
X18905000Y40150000D01*
X18906000Y40153000D01*
X18906000Y40155000D01*
X18907000Y40158000D01*
X18907000Y40160000D01*
X18908000Y40163000D01*
X18909000Y40165000D01*
X18910000Y40168000D01*
X18912000Y40170000D01*
X18913000Y40172000D01*
X18915000Y40174000D01*
X18916000Y40176000D01*
X18918000Y40178000D01*
X18920000Y40180000D01*
X18922000Y40182000D01*
X18924000Y40184000D01*
X18926000Y40185000D01*
X18928000Y40187000D01*
X18930000Y40188000D01*
X18932000Y40190000D01*
X18935000Y40191000D01*
X18937000Y40192000D01*
X18940000Y40193000D01*
X18942000Y40193000D01*
X18945000Y40194000D01*
X18947000Y40194000D01*
X18950000Y40195000D01*
X18952000Y40195000D01*
X18955000Y40195000D01*
X19245000Y40195000D01*
X19248000Y40195000D01*
X19250000Y40195000D01*
X19253000Y40194000D01*
G36*
X19253000Y40194000D02*
G01*
X19255000Y40194000D01*
X19258000Y40193000D01*
X19260000Y40193000D01*
X19263000Y40192000D01*
X19265000Y40191000D01*
X19268000Y40190000D01*
X19270000Y40188000D01*
X19272000Y40187000D01*
X19274000Y40185000D01*
X19276000Y40184000D01*
X19278000Y40182000D01*
X19280000Y40180000D01*
X19282000Y40178000D01*
X19284000Y40176000D01*
X19285000Y40174000D01*
X19287000Y40172000D01*
X19288000Y40170000D01*
X19290000Y40168000D01*
X19291000Y40165000D01*
X19292000Y40163000D01*
X19293000Y40160000D01*
X19293000Y40158000D01*
X19294000Y40155000D01*
X19294000Y40153000D01*
X19295000Y40150000D01*
X19295000Y40148000D01*
X19295000Y40145000D01*
X19295000Y39605000D01*
X19295000Y39602000D01*
X19295000Y39600000D01*
X19294000Y39597000D01*
X19294000Y39595000D01*
X19293000Y39592000D01*
X19293000Y39590000D01*
X19292000Y39587000D01*
X19291000Y39585000D01*
X19290000Y39582000D01*
X19288000Y39580000D01*
X19287000Y39578000D01*
X19285000Y39576000D01*
X19284000Y39574000D01*
X19282000Y39572000D01*
X19280000Y39570000D01*
X19278000Y39568000D01*
X19276000Y39566000D01*
X19274000Y39565000D01*
X19272000Y39563000D01*
X19270000Y39562000D01*
X19268000Y39560000D01*
X19265000Y39559000D01*
X19263000Y39558000D01*
X19260000Y39557000D01*
X19258000Y39557000D01*
X19255000Y39556000D01*
X19253000Y39556000D01*
X19250000Y39555000D01*
X19248000Y39555000D01*
X19245000Y39555000D01*
X18955000Y39555000D01*
X18952000Y39555000D01*
X18950000Y39555000D01*
X18947000Y39556000D01*
X18945000Y39556000D01*
X18942000Y39557000D01*
X18940000Y39557000D01*
X18937000Y39558000D01*
X18935000Y39559000D01*
X18932000Y39560000D01*
X18930000Y39562000D01*
X18928000Y39563000D01*
X18926000Y39565000D01*
X18924000Y39566000D01*
X18922000Y39568000D01*
X18920000Y39570000D01*
X18918000Y39572000D01*
X18916000Y39574000D01*
X18915000Y39576000D01*
X18913000Y39578000D01*
X18912000Y39580000D01*
X18910000Y39582000D01*
X18909000Y39585000D01*
X18908000Y39587000D01*
X18907000Y39590000D01*
X18907000Y39592000D01*
X18906000Y39595000D01*
X18906000Y39597000D01*
X18905000Y39600000D01*
X18905000Y39602000D01*
X18905000Y39605000D01*
X18905000Y40145000D01*
X18905000Y40148000D01*
X18905000Y40150000D01*
X18906000Y40153000D01*
X18906000Y40155000D01*
X18907000Y40158000D01*
X18907000Y40160000D01*
X18908000Y40163000D01*
X18909000Y40165000D01*
X18910000Y40168000D01*
X18912000Y40170000D01*
X18913000Y40172000D01*
X18915000Y40174000D01*
X18916000Y40176000D01*
X18918000Y40178000D01*
X18920000Y40180000D01*
X18922000Y40182000D01*
X18924000Y40184000D01*
X18926000Y40185000D01*
X18928000Y40187000D01*
X18930000Y40188000D01*
X18932000Y40190000D01*
X18935000Y40191000D01*
X18937000Y40192000D01*
X18940000Y40193000D01*
X18942000Y40193000D01*
X18945000Y40194000D01*
X18947000Y40194000D01*
X18950000Y40195000D01*
X18952000Y40195000D01*
X18955000Y40195000D01*
X19245000Y40195000D01*
X19248000Y40195000D01*
X19250000Y40195000D01*
X19253000Y40194000D01*
G37*
X19753000Y42164000D02*
X19755000Y42164000D01*
X19758000Y42163000D01*
X19760000Y42163000D01*
X19763000Y42162000D01*
X19765000Y42161000D01*
X19768000Y42160000D01*
X19770000Y42158000D01*
X19772000Y42157000D01*
X19774000Y42155000D01*
X19776000Y42154000D01*
X19778000Y42152000D01*
X19780000Y42150000D01*
X19782000Y42148000D01*
X19784000Y42146000D01*
X19785000Y42144000D01*
X19787000Y42142000D01*
X19788000Y42140000D01*
X19790000Y42138000D01*
X19791000Y42135000D01*
X19792000Y42133000D01*
X19793000Y42130000D01*
X19793000Y42128000D01*
X19794000Y42125000D01*
X19794000Y42123000D01*
X19795000Y42120000D01*
X19795000Y42118000D01*
X19795000Y42115000D01*
X19795000Y41575000D01*
X19795000Y41572000D01*
X19795000Y41570000D01*
X19794000Y41567000D01*
X19794000Y41565000D01*
X19793000Y41562000D01*
X19793000Y41560000D01*
X19792000Y41557000D01*
X19791000Y41555000D01*
X19790000Y41552000D01*
X19788000Y41550000D01*
X19787000Y41548000D01*
X19785000Y41546000D01*
X19784000Y41544000D01*
X19782000Y41542000D01*
X19780000Y41540000D01*
X19778000Y41538000D01*
X19776000Y41536000D01*
X19774000Y41535000D01*
X19772000Y41533000D01*
X19770000Y41532000D01*
X19768000Y41530000D01*
X19765000Y41529000D01*
X19763000Y41528000D01*
X19760000Y41527000D01*
X19758000Y41527000D01*
X19755000Y41526000D01*
X19753000Y41526000D01*
X19750000Y41525000D01*
X19748000Y41525000D01*
X19745000Y41525000D01*
X19455000Y41525000D01*
X19452000Y41525000D01*
X19450000Y41525000D01*
X19447000Y41526000D01*
X19445000Y41526000D01*
X19442000Y41527000D01*
X19440000Y41527000D01*
X19437000Y41528000D01*
X19435000Y41529000D01*
X19432000Y41530000D01*
X19430000Y41532000D01*
X19428000Y41533000D01*
X19426000Y41535000D01*
X19424000Y41536000D01*
X19422000Y41538000D01*
X19420000Y41540000D01*
X19418000Y41542000D01*
X19416000Y41544000D01*
X19415000Y41546000D01*
X19413000Y41548000D01*
X19412000Y41550000D01*
X19410000Y41552000D01*
X19409000Y41555000D01*
X19408000Y41557000D01*
X19407000Y41560000D01*
X19407000Y41562000D01*
X19406000Y41565000D01*
X19406000Y41567000D01*
X19405000Y41570000D01*
X19405000Y41572000D01*
X19405000Y41575000D01*
X19405000Y42115000D01*
X19405000Y42118000D01*
X19405000Y42120000D01*
X19406000Y42123000D01*
X19406000Y42125000D01*
X19407000Y42128000D01*
X19407000Y42130000D01*
X19408000Y42133000D01*
X19409000Y42135000D01*
X19410000Y42138000D01*
X19412000Y42140000D01*
X19413000Y42142000D01*
X19415000Y42144000D01*
X19416000Y42146000D01*
X19418000Y42148000D01*
X19420000Y42150000D01*
X19422000Y42152000D01*
X19424000Y42154000D01*
X19426000Y42155000D01*
X19428000Y42157000D01*
X19430000Y42158000D01*
X19432000Y42160000D01*
X19435000Y42161000D01*
X19437000Y42162000D01*
X19440000Y42163000D01*
X19442000Y42163000D01*
X19445000Y42164000D01*
X19447000Y42164000D01*
X19450000Y42165000D01*
X19452000Y42165000D01*
X19455000Y42165000D01*
X19745000Y42165000D01*
X19748000Y42165000D01*
X19750000Y42165000D01*
X19753000Y42164000D01*
G36*
X19753000Y42164000D02*
G01*
X19755000Y42164000D01*
X19758000Y42163000D01*
X19760000Y42163000D01*
X19763000Y42162000D01*
X19765000Y42161000D01*
X19768000Y42160000D01*
X19770000Y42158000D01*
X19772000Y42157000D01*
X19774000Y42155000D01*
X19776000Y42154000D01*
X19778000Y42152000D01*
X19780000Y42150000D01*
X19782000Y42148000D01*
X19784000Y42146000D01*
X19785000Y42144000D01*
X19787000Y42142000D01*
X19788000Y42140000D01*
X19790000Y42138000D01*
X19791000Y42135000D01*
X19792000Y42133000D01*
X19793000Y42130000D01*
X19793000Y42128000D01*
X19794000Y42125000D01*
X19794000Y42123000D01*
X19795000Y42120000D01*
X19795000Y42118000D01*
X19795000Y42115000D01*
X19795000Y41575000D01*
X19795000Y41572000D01*
X19795000Y41570000D01*
X19794000Y41567000D01*
X19794000Y41565000D01*
X19793000Y41562000D01*
X19793000Y41560000D01*
X19792000Y41557000D01*
X19791000Y41555000D01*
X19790000Y41552000D01*
X19788000Y41550000D01*
X19787000Y41548000D01*
X19785000Y41546000D01*
X19784000Y41544000D01*
X19782000Y41542000D01*
X19780000Y41540000D01*
X19778000Y41538000D01*
X19776000Y41536000D01*
X19774000Y41535000D01*
X19772000Y41533000D01*
X19770000Y41532000D01*
X19768000Y41530000D01*
X19765000Y41529000D01*
X19763000Y41528000D01*
X19760000Y41527000D01*
X19758000Y41527000D01*
X19755000Y41526000D01*
X19753000Y41526000D01*
X19750000Y41525000D01*
X19748000Y41525000D01*
X19745000Y41525000D01*
X19455000Y41525000D01*
X19452000Y41525000D01*
X19450000Y41525000D01*
X19447000Y41526000D01*
X19445000Y41526000D01*
X19442000Y41527000D01*
X19440000Y41527000D01*
X19437000Y41528000D01*
X19435000Y41529000D01*
X19432000Y41530000D01*
X19430000Y41532000D01*
X19428000Y41533000D01*
X19426000Y41535000D01*
X19424000Y41536000D01*
X19422000Y41538000D01*
X19420000Y41540000D01*
X19418000Y41542000D01*
X19416000Y41544000D01*
X19415000Y41546000D01*
X19413000Y41548000D01*
X19412000Y41550000D01*
X19410000Y41552000D01*
X19409000Y41555000D01*
X19408000Y41557000D01*
X19407000Y41560000D01*
X19407000Y41562000D01*
X19406000Y41565000D01*
X19406000Y41567000D01*
X19405000Y41570000D01*
X19405000Y41572000D01*
X19405000Y41575000D01*
X19405000Y42115000D01*
X19405000Y42118000D01*
X19405000Y42120000D01*
X19406000Y42123000D01*
X19406000Y42125000D01*
X19407000Y42128000D01*
X19407000Y42130000D01*
X19408000Y42133000D01*
X19409000Y42135000D01*
X19410000Y42138000D01*
X19412000Y42140000D01*
X19413000Y42142000D01*
X19415000Y42144000D01*
X19416000Y42146000D01*
X19418000Y42148000D01*
X19420000Y42150000D01*
X19422000Y42152000D01*
X19424000Y42154000D01*
X19426000Y42155000D01*
X19428000Y42157000D01*
X19430000Y42158000D01*
X19432000Y42160000D01*
X19435000Y42161000D01*
X19437000Y42162000D01*
X19440000Y42163000D01*
X19442000Y42163000D01*
X19445000Y42164000D01*
X19447000Y42164000D01*
X19450000Y42165000D01*
X19452000Y42165000D01*
X19455000Y42165000D01*
X19745000Y42165000D01*
X19748000Y42165000D01*
X19750000Y42165000D01*
X19753000Y42164000D01*
G37*
X19753000Y40194000D02*
X19755000Y40194000D01*
X19758000Y40193000D01*
X19760000Y40193000D01*
X19763000Y40192000D01*
X19765000Y40191000D01*
X19768000Y40190000D01*
X19770000Y40188000D01*
X19772000Y40187000D01*
X19774000Y40185000D01*
X19776000Y40184000D01*
X19778000Y40182000D01*
X19780000Y40180000D01*
X19782000Y40178000D01*
X19784000Y40176000D01*
X19785000Y40174000D01*
X19787000Y40172000D01*
X19788000Y40170000D01*
X19790000Y40168000D01*
X19791000Y40165000D01*
X19792000Y40163000D01*
X19793000Y40160000D01*
X19793000Y40158000D01*
X19794000Y40155000D01*
X19794000Y40153000D01*
X19795000Y40150000D01*
X19795000Y40148000D01*
X19795000Y40145000D01*
X19795000Y39605000D01*
X19795000Y39602000D01*
X19795000Y39600000D01*
X19794000Y39597000D01*
X19794000Y39595000D01*
X19793000Y39592000D01*
X19793000Y39590000D01*
X19792000Y39587000D01*
X19791000Y39585000D01*
X19790000Y39582000D01*
X19788000Y39580000D01*
X19787000Y39578000D01*
X19785000Y39576000D01*
X19784000Y39574000D01*
X19782000Y39572000D01*
X19780000Y39570000D01*
X19778000Y39568000D01*
X19776000Y39566000D01*
X19774000Y39565000D01*
X19772000Y39563000D01*
X19770000Y39562000D01*
X19768000Y39560000D01*
X19765000Y39559000D01*
X19763000Y39558000D01*
X19760000Y39557000D01*
X19758000Y39557000D01*
X19755000Y39556000D01*
X19753000Y39556000D01*
X19750000Y39555000D01*
X19748000Y39555000D01*
X19745000Y39555000D01*
X19455000Y39555000D01*
X19452000Y39555000D01*
X19450000Y39555000D01*
X19447000Y39556000D01*
X19445000Y39556000D01*
X19442000Y39557000D01*
X19440000Y39557000D01*
X19437000Y39558000D01*
X19435000Y39559000D01*
X19432000Y39560000D01*
X19430000Y39562000D01*
X19428000Y39563000D01*
X19426000Y39565000D01*
X19424000Y39566000D01*
X19422000Y39568000D01*
X19420000Y39570000D01*
X19418000Y39572000D01*
X19416000Y39574000D01*
X19415000Y39576000D01*
X19413000Y39578000D01*
X19412000Y39580000D01*
X19410000Y39582000D01*
X19409000Y39585000D01*
X19408000Y39587000D01*
X19407000Y39590000D01*
X19407000Y39592000D01*
X19406000Y39595000D01*
X19406000Y39597000D01*
X19405000Y39600000D01*
X19405000Y39602000D01*
X19405000Y39605000D01*
X19405000Y40145000D01*
X19405000Y40148000D01*
X19405000Y40150000D01*
X19406000Y40153000D01*
X19406000Y40155000D01*
X19407000Y40158000D01*
X19407000Y40160000D01*
X19408000Y40163000D01*
X19409000Y40165000D01*
X19410000Y40168000D01*
X19412000Y40170000D01*
X19413000Y40172000D01*
X19415000Y40174000D01*
X19416000Y40176000D01*
X19418000Y40178000D01*
X19420000Y40180000D01*
X19422000Y40182000D01*
X19424000Y40184000D01*
X19426000Y40185000D01*
X19428000Y40187000D01*
X19430000Y40188000D01*
X19432000Y40190000D01*
X19435000Y40191000D01*
X19437000Y40192000D01*
X19440000Y40193000D01*
X19442000Y40193000D01*
X19445000Y40194000D01*
X19447000Y40194000D01*
X19450000Y40195000D01*
X19452000Y40195000D01*
X19455000Y40195000D01*
X19745000Y40195000D01*
X19748000Y40195000D01*
X19750000Y40195000D01*
X19753000Y40194000D01*
G36*
X19753000Y40194000D02*
G01*
X19755000Y40194000D01*
X19758000Y40193000D01*
X19760000Y40193000D01*
X19763000Y40192000D01*
X19765000Y40191000D01*
X19768000Y40190000D01*
X19770000Y40188000D01*
X19772000Y40187000D01*
X19774000Y40185000D01*
X19776000Y40184000D01*
X19778000Y40182000D01*
X19780000Y40180000D01*
X19782000Y40178000D01*
X19784000Y40176000D01*
X19785000Y40174000D01*
X19787000Y40172000D01*
X19788000Y40170000D01*
X19790000Y40168000D01*
X19791000Y40165000D01*
X19792000Y40163000D01*
X19793000Y40160000D01*
X19793000Y40158000D01*
X19794000Y40155000D01*
X19794000Y40153000D01*
X19795000Y40150000D01*
X19795000Y40148000D01*
X19795000Y40145000D01*
X19795000Y39605000D01*
X19795000Y39602000D01*
X19795000Y39600000D01*
X19794000Y39597000D01*
X19794000Y39595000D01*
X19793000Y39592000D01*
X19793000Y39590000D01*
X19792000Y39587000D01*
X19791000Y39585000D01*
X19790000Y39582000D01*
X19788000Y39580000D01*
X19787000Y39578000D01*
X19785000Y39576000D01*
X19784000Y39574000D01*
X19782000Y39572000D01*
X19780000Y39570000D01*
X19778000Y39568000D01*
X19776000Y39566000D01*
X19774000Y39565000D01*
X19772000Y39563000D01*
X19770000Y39562000D01*
X19768000Y39560000D01*
X19765000Y39559000D01*
X19763000Y39558000D01*
X19760000Y39557000D01*
X19758000Y39557000D01*
X19755000Y39556000D01*
X19753000Y39556000D01*
X19750000Y39555000D01*
X19748000Y39555000D01*
X19745000Y39555000D01*
X19455000Y39555000D01*
X19452000Y39555000D01*
X19450000Y39555000D01*
X19447000Y39556000D01*
X19445000Y39556000D01*
X19442000Y39557000D01*
X19440000Y39557000D01*
X19437000Y39558000D01*
X19435000Y39559000D01*
X19432000Y39560000D01*
X19430000Y39562000D01*
X19428000Y39563000D01*
X19426000Y39565000D01*
X19424000Y39566000D01*
X19422000Y39568000D01*
X19420000Y39570000D01*
X19418000Y39572000D01*
X19416000Y39574000D01*
X19415000Y39576000D01*
X19413000Y39578000D01*
X19412000Y39580000D01*
X19410000Y39582000D01*
X19409000Y39585000D01*
X19408000Y39587000D01*
X19407000Y39590000D01*
X19407000Y39592000D01*
X19406000Y39595000D01*
X19406000Y39597000D01*
X19405000Y39600000D01*
X19405000Y39602000D01*
X19405000Y39605000D01*
X19405000Y40145000D01*
X19405000Y40148000D01*
X19405000Y40150000D01*
X19406000Y40153000D01*
X19406000Y40155000D01*
X19407000Y40158000D01*
X19407000Y40160000D01*
X19408000Y40163000D01*
X19409000Y40165000D01*
X19410000Y40168000D01*
X19412000Y40170000D01*
X19413000Y40172000D01*
X19415000Y40174000D01*
X19416000Y40176000D01*
X19418000Y40178000D01*
X19420000Y40180000D01*
X19422000Y40182000D01*
X19424000Y40184000D01*
X19426000Y40185000D01*
X19428000Y40187000D01*
X19430000Y40188000D01*
X19432000Y40190000D01*
X19435000Y40191000D01*
X19437000Y40192000D01*
X19440000Y40193000D01*
X19442000Y40193000D01*
X19445000Y40194000D01*
X19447000Y40194000D01*
X19450000Y40195000D01*
X19452000Y40195000D01*
X19455000Y40195000D01*
X19745000Y40195000D01*
X19748000Y40195000D01*
X19750000Y40195000D01*
X19753000Y40194000D01*
G37*
X20253000Y42164000D02*
X20255000Y42164000D01*
X20258000Y42163000D01*
X20260000Y42163000D01*
X20263000Y42162000D01*
X20265000Y42161000D01*
X20268000Y42160000D01*
X20270000Y42158000D01*
X20272000Y42157000D01*
X20274000Y42155000D01*
X20276000Y42154000D01*
X20278000Y42152000D01*
X20280000Y42150000D01*
X20282000Y42148000D01*
X20284000Y42146000D01*
X20285000Y42144000D01*
X20287000Y42142000D01*
X20288000Y42140000D01*
X20290000Y42138000D01*
X20291000Y42135000D01*
X20292000Y42133000D01*
X20293000Y42130000D01*
X20293000Y42128000D01*
X20294000Y42125000D01*
X20294000Y42123000D01*
X20295000Y42120000D01*
X20295000Y42118000D01*
X20295000Y42115000D01*
X20295000Y41575000D01*
X20295000Y41572000D01*
X20295000Y41570000D01*
X20294000Y41567000D01*
X20294000Y41565000D01*
X20293000Y41562000D01*
X20293000Y41560000D01*
X20292000Y41557000D01*
X20291000Y41555000D01*
X20290000Y41552000D01*
X20288000Y41550000D01*
X20287000Y41548000D01*
X20285000Y41546000D01*
X20284000Y41544000D01*
X20282000Y41542000D01*
X20280000Y41540000D01*
X20278000Y41538000D01*
X20276000Y41536000D01*
X20274000Y41535000D01*
X20272000Y41533000D01*
X20270000Y41532000D01*
X20268000Y41530000D01*
X20265000Y41529000D01*
X20263000Y41528000D01*
X20260000Y41527000D01*
X20258000Y41527000D01*
X20255000Y41526000D01*
X20253000Y41526000D01*
X20250000Y41525000D01*
X20248000Y41525000D01*
X20245000Y41525000D01*
X19955000Y41525000D01*
X19952000Y41525000D01*
X19950000Y41525000D01*
X19947000Y41526000D01*
X19945000Y41526000D01*
X19942000Y41527000D01*
X19940000Y41527000D01*
X19937000Y41528000D01*
X19935000Y41529000D01*
X19932000Y41530000D01*
X19930000Y41532000D01*
X19928000Y41533000D01*
X19926000Y41535000D01*
X19924000Y41536000D01*
X19922000Y41538000D01*
X19920000Y41540000D01*
X19918000Y41542000D01*
X19916000Y41544000D01*
X19915000Y41546000D01*
X19913000Y41548000D01*
X19912000Y41550000D01*
X19910000Y41552000D01*
X19909000Y41555000D01*
X19908000Y41557000D01*
X19907000Y41560000D01*
X19907000Y41562000D01*
X19906000Y41565000D01*
X19906000Y41567000D01*
X19905000Y41570000D01*
X19905000Y41572000D01*
X19905000Y41575000D01*
X19905000Y42115000D01*
X19905000Y42118000D01*
X19905000Y42120000D01*
X19906000Y42123000D01*
X19906000Y42125000D01*
X19907000Y42128000D01*
X19907000Y42130000D01*
X19908000Y42133000D01*
X19909000Y42135000D01*
X19910000Y42138000D01*
X19912000Y42140000D01*
X19913000Y42142000D01*
X19915000Y42144000D01*
X19916000Y42146000D01*
X19918000Y42148000D01*
X19920000Y42150000D01*
X19922000Y42152000D01*
X19924000Y42154000D01*
X19926000Y42155000D01*
X19928000Y42157000D01*
X19930000Y42158000D01*
X19932000Y42160000D01*
X19935000Y42161000D01*
X19937000Y42162000D01*
X19940000Y42163000D01*
X19942000Y42163000D01*
X19945000Y42164000D01*
X19947000Y42164000D01*
X19950000Y42165000D01*
X19952000Y42165000D01*
X19955000Y42165000D01*
X20245000Y42165000D01*
X20248000Y42165000D01*
X20250000Y42165000D01*
X20253000Y42164000D01*
G36*
X20253000Y42164000D02*
G01*
X20255000Y42164000D01*
X20258000Y42163000D01*
X20260000Y42163000D01*
X20263000Y42162000D01*
X20265000Y42161000D01*
X20268000Y42160000D01*
X20270000Y42158000D01*
X20272000Y42157000D01*
X20274000Y42155000D01*
X20276000Y42154000D01*
X20278000Y42152000D01*
X20280000Y42150000D01*
X20282000Y42148000D01*
X20284000Y42146000D01*
X20285000Y42144000D01*
X20287000Y42142000D01*
X20288000Y42140000D01*
X20290000Y42138000D01*
X20291000Y42135000D01*
X20292000Y42133000D01*
X20293000Y42130000D01*
X20293000Y42128000D01*
X20294000Y42125000D01*
X20294000Y42123000D01*
X20295000Y42120000D01*
X20295000Y42118000D01*
X20295000Y42115000D01*
X20295000Y41575000D01*
X20295000Y41572000D01*
X20295000Y41570000D01*
X20294000Y41567000D01*
X20294000Y41565000D01*
X20293000Y41562000D01*
X20293000Y41560000D01*
X20292000Y41557000D01*
X20291000Y41555000D01*
X20290000Y41552000D01*
X20288000Y41550000D01*
X20287000Y41548000D01*
X20285000Y41546000D01*
X20284000Y41544000D01*
X20282000Y41542000D01*
X20280000Y41540000D01*
X20278000Y41538000D01*
X20276000Y41536000D01*
X20274000Y41535000D01*
X20272000Y41533000D01*
X20270000Y41532000D01*
X20268000Y41530000D01*
X20265000Y41529000D01*
X20263000Y41528000D01*
X20260000Y41527000D01*
X20258000Y41527000D01*
X20255000Y41526000D01*
X20253000Y41526000D01*
X20250000Y41525000D01*
X20248000Y41525000D01*
X20245000Y41525000D01*
X19955000Y41525000D01*
X19952000Y41525000D01*
X19950000Y41525000D01*
X19947000Y41526000D01*
X19945000Y41526000D01*
X19942000Y41527000D01*
X19940000Y41527000D01*
X19937000Y41528000D01*
X19935000Y41529000D01*
X19932000Y41530000D01*
X19930000Y41532000D01*
X19928000Y41533000D01*
X19926000Y41535000D01*
X19924000Y41536000D01*
X19922000Y41538000D01*
X19920000Y41540000D01*
X19918000Y41542000D01*
X19916000Y41544000D01*
X19915000Y41546000D01*
X19913000Y41548000D01*
X19912000Y41550000D01*
X19910000Y41552000D01*
X19909000Y41555000D01*
X19908000Y41557000D01*
X19907000Y41560000D01*
X19907000Y41562000D01*
X19906000Y41565000D01*
X19906000Y41567000D01*
X19905000Y41570000D01*
X19905000Y41572000D01*
X19905000Y41575000D01*
X19905000Y42115000D01*
X19905000Y42118000D01*
X19905000Y42120000D01*
X19906000Y42123000D01*
X19906000Y42125000D01*
X19907000Y42128000D01*
X19907000Y42130000D01*
X19908000Y42133000D01*
X19909000Y42135000D01*
X19910000Y42138000D01*
X19912000Y42140000D01*
X19913000Y42142000D01*
X19915000Y42144000D01*
X19916000Y42146000D01*
X19918000Y42148000D01*
X19920000Y42150000D01*
X19922000Y42152000D01*
X19924000Y42154000D01*
X19926000Y42155000D01*
X19928000Y42157000D01*
X19930000Y42158000D01*
X19932000Y42160000D01*
X19935000Y42161000D01*
X19937000Y42162000D01*
X19940000Y42163000D01*
X19942000Y42163000D01*
X19945000Y42164000D01*
X19947000Y42164000D01*
X19950000Y42165000D01*
X19952000Y42165000D01*
X19955000Y42165000D01*
X20245000Y42165000D01*
X20248000Y42165000D01*
X20250000Y42165000D01*
X20253000Y42164000D01*
G37*
X20253000Y40194000D02*
X20255000Y40194000D01*
X20258000Y40193000D01*
X20260000Y40193000D01*
X20263000Y40192000D01*
X20265000Y40191000D01*
X20268000Y40190000D01*
X20270000Y40188000D01*
X20272000Y40187000D01*
X20274000Y40185000D01*
X20276000Y40184000D01*
X20278000Y40182000D01*
X20280000Y40180000D01*
X20282000Y40178000D01*
X20284000Y40176000D01*
X20285000Y40174000D01*
X20287000Y40172000D01*
X20288000Y40170000D01*
X20290000Y40168000D01*
X20291000Y40165000D01*
X20292000Y40163000D01*
X20293000Y40160000D01*
X20293000Y40158000D01*
X20294000Y40155000D01*
X20294000Y40153000D01*
X20295000Y40150000D01*
X20295000Y40148000D01*
X20295000Y40145000D01*
X20295000Y39605000D01*
X20295000Y39602000D01*
X20295000Y39600000D01*
X20294000Y39597000D01*
X20294000Y39595000D01*
X20293000Y39592000D01*
X20293000Y39590000D01*
X20292000Y39587000D01*
X20291000Y39585000D01*
X20290000Y39582000D01*
X20288000Y39580000D01*
X20287000Y39578000D01*
X20285000Y39576000D01*
X20284000Y39574000D01*
X20282000Y39572000D01*
X20280000Y39570000D01*
X20278000Y39568000D01*
X20276000Y39566000D01*
X20274000Y39565000D01*
X20272000Y39563000D01*
X20270000Y39562000D01*
X20268000Y39560000D01*
X20265000Y39559000D01*
X20263000Y39558000D01*
X20260000Y39557000D01*
X20258000Y39557000D01*
X20255000Y39556000D01*
X20253000Y39556000D01*
X20250000Y39555000D01*
X20248000Y39555000D01*
X20245000Y39555000D01*
X19955000Y39555000D01*
X19952000Y39555000D01*
X19950000Y39555000D01*
X19947000Y39556000D01*
X19945000Y39556000D01*
X19942000Y39557000D01*
X19940000Y39557000D01*
X19937000Y39558000D01*
X19935000Y39559000D01*
X19932000Y39560000D01*
X19930000Y39562000D01*
X19928000Y39563000D01*
X19926000Y39565000D01*
X19924000Y39566000D01*
X19922000Y39568000D01*
X19920000Y39570000D01*
X19918000Y39572000D01*
X19916000Y39574000D01*
X19915000Y39576000D01*
X19913000Y39578000D01*
X19912000Y39580000D01*
X19910000Y39582000D01*
X19909000Y39585000D01*
X19908000Y39587000D01*
X19907000Y39590000D01*
X19907000Y39592000D01*
X19906000Y39595000D01*
X19906000Y39597000D01*
X19905000Y39600000D01*
X19905000Y39602000D01*
X19905000Y39605000D01*
X19905000Y40145000D01*
X19905000Y40148000D01*
X19905000Y40150000D01*
X19906000Y40153000D01*
X19906000Y40155000D01*
X19907000Y40158000D01*
X19907000Y40160000D01*
X19908000Y40163000D01*
X19909000Y40165000D01*
X19910000Y40168000D01*
X19912000Y40170000D01*
X19913000Y40172000D01*
X19915000Y40174000D01*
X19916000Y40176000D01*
X19918000Y40178000D01*
X19920000Y40180000D01*
X19922000Y40182000D01*
X19924000Y40184000D01*
X19926000Y40185000D01*
X19928000Y40187000D01*
X19930000Y40188000D01*
X19932000Y40190000D01*
X19935000Y40191000D01*
X19937000Y40192000D01*
X19940000Y40193000D01*
X19942000Y40193000D01*
X19945000Y40194000D01*
X19947000Y40194000D01*
X19950000Y40195000D01*
X19952000Y40195000D01*
X19955000Y40195000D01*
X20245000Y40195000D01*
X20248000Y40195000D01*
X20250000Y40195000D01*
X20253000Y40194000D01*
G36*
X20253000Y40194000D02*
G01*
X20255000Y40194000D01*
X20258000Y40193000D01*
X20260000Y40193000D01*
X20263000Y40192000D01*
X20265000Y40191000D01*
X20268000Y40190000D01*
X20270000Y40188000D01*
X20272000Y40187000D01*
X20274000Y40185000D01*
X20276000Y40184000D01*
X20278000Y40182000D01*
X20280000Y40180000D01*
X20282000Y40178000D01*
X20284000Y40176000D01*
X20285000Y40174000D01*
X20287000Y40172000D01*
X20288000Y40170000D01*
X20290000Y40168000D01*
X20291000Y40165000D01*
X20292000Y40163000D01*
X20293000Y40160000D01*
X20293000Y40158000D01*
X20294000Y40155000D01*
X20294000Y40153000D01*
X20295000Y40150000D01*
X20295000Y40148000D01*
X20295000Y40145000D01*
X20295000Y39605000D01*
X20295000Y39602000D01*
X20295000Y39600000D01*
X20294000Y39597000D01*
X20294000Y39595000D01*
X20293000Y39592000D01*
X20293000Y39590000D01*
X20292000Y39587000D01*
X20291000Y39585000D01*
X20290000Y39582000D01*
X20288000Y39580000D01*
X20287000Y39578000D01*
X20285000Y39576000D01*
X20284000Y39574000D01*
X20282000Y39572000D01*
X20280000Y39570000D01*
X20278000Y39568000D01*
X20276000Y39566000D01*
X20274000Y39565000D01*
X20272000Y39563000D01*
X20270000Y39562000D01*
X20268000Y39560000D01*
X20265000Y39559000D01*
X20263000Y39558000D01*
X20260000Y39557000D01*
X20258000Y39557000D01*
X20255000Y39556000D01*
X20253000Y39556000D01*
X20250000Y39555000D01*
X20248000Y39555000D01*
X20245000Y39555000D01*
X19955000Y39555000D01*
X19952000Y39555000D01*
X19950000Y39555000D01*
X19947000Y39556000D01*
X19945000Y39556000D01*
X19942000Y39557000D01*
X19940000Y39557000D01*
X19937000Y39558000D01*
X19935000Y39559000D01*
X19932000Y39560000D01*
X19930000Y39562000D01*
X19928000Y39563000D01*
X19926000Y39565000D01*
X19924000Y39566000D01*
X19922000Y39568000D01*
X19920000Y39570000D01*
X19918000Y39572000D01*
X19916000Y39574000D01*
X19915000Y39576000D01*
X19913000Y39578000D01*
X19912000Y39580000D01*
X19910000Y39582000D01*
X19909000Y39585000D01*
X19908000Y39587000D01*
X19907000Y39590000D01*
X19907000Y39592000D01*
X19906000Y39595000D01*
X19906000Y39597000D01*
X19905000Y39600000D01*
X19905000Y39602000D01*
X19905000Y39605000D01*
X19905000Y40145000D01*
X19905000Y40148000D01*
X19905000Y40150000D01*
X19906000Y40153000D01*
X19906000Y40155000D01*
X19907000Y40158000D01*
X19907000Y40160000D01*
X19908000Y40163000D01*
X19909000Y40165000D01*
X19910000Y40168000D01*
X19912000Y40170000D01*
X19913000Y40172000D01*
X19915000Y40174000D01*
X19916000Y40176000D01*
X19918000Y40178000D01*
X19920000Y40180000D01*
X19922000Y40182000D01*
X19924000Y40184000D01*
X19926000Y40185000D01*
X19928000Y40187000D01*
X19930000Y40188000D01*
X19932000Y40190000D01*
X19935000Y40191000D01*
X19937000Y40192000D01*
X19940000Y40193000D01*
X19942000Y40193000D01*
X19945000Y40194000D01*
X19947000Y40194000D01*
X19950000Y40195000D01*
X19952000Y40195000D01*
X19955000Y40195000D01*
X20245000Y40195000D01*
X20248000Y40195000D01*
X20250000Y40195000D01*
X20253000Y40194000D01*
G37*
X20753000Y42164000D02*
X20755000Y42164000D01*
X20758000Y42163000D01*
X20760000Y42163000D01*
X20763000Y42162000D01*
X20765000Y42161000D01*
X20768000Y42160000D01*
X20770000Y42158000D01*
X20772000Y42157000D01*
X20774000Y42155000D01*
X20776000Y42154000D01*
X20778000Y42152000D01*
X20780000Y42150000D01*
X20782000Y42148000D01*
X20784000Y42146000D01*
X20785000Y42144000D01*
X20787000Y42142000D01*
X20788000Y42140000D01*
X20790000Y42138000D01*
X20791000Y42135000D01*
X20792000Y42133000D01*
X20793000Y42130000D01*
X20793000Y42128000D01*
X20794000Y42125000D01*
X20794000Y42123000D01*
X20795000Y42120000D01*
X20795000Y42118000D01*
X20795000Y42115000D01*
X20795000Y41575000D01*
X20795000Y41572000D01*
X20795000Y41570000D01*
X20794000Y41567000D01*
X20794000Y41565000D01*
X20793000Y41562000D01*
X20793000Y41560000D01*
X20792000Y41557000D01*
X20791000Y41555000D01*
X20790000Y41552000D01*
X20788000Y41550000D01*
X20787000Y41548000D01*
X20785000Y41546000D01*
X20784000Y41544000D01*
X20782000Y41542000D01*
X20780000Y41540000D01*
X20778000Y41538000D01*
X20776000Y41536000D01*
X20774000Y41535000D01*
X20772000Y41533000D01*
X20770000Y41532000D01*
X20768000Y41530000D01*
X20765000Y41529000D01*
X20763000Y41528000D01*
X20760000Y41527000D01*
X20758000Y41527000D01*
X20755000Y41526000D01*
X20753000Y41526000D01*
X20750000Y41525000D01*
X20748000Y41525000D01*
X20745000Y41525000D01*
X20455000Y41525000D01*
X20452000Y41525000D01*
X20450000Y41525000D01*
X20447000Y41526000D01*
X20445000Y41526000D01*
X20442000Y41527000D01*
X20440000Y41527000D01*
X20437000Y41528000D01*
X20435000Y41529000D01*
X20432000Y41530000D01*
X20430000Y41532000D01*
X20428000Y41533000D01*
X20426000Y41535000D01*
X20424000Y41536000D01*
X20422000Y41538000D01*
X20420000Y41540000D01*
X20418000Y41542000D01*
X20416000Y41544000D01*
X20415000Y41546000D01*
X20413000Y41548000D01*
X20412000Y41550000D01*
X20410000Y41552000D01*
X20409000Y41555000D01*
X20408000Y41557000D01*
X20407000Y41560000D01*
X20407000Y41562000D01*
X20406000Y41565000D01*
X20406000Y41567000D01*
X20405000Y41570000D01*
X20405000Y41572000D01*
X20405000Y41575000D01*
X20405000Y42115000D01*
X20405000Y42118000D01*
X20405000Y42120000D01*
X20406000Y42123000D01*
X20406000Y42125000D01*
X20407000Y42128000D01*
X20407000Y42130000D01*
X20408000Y42133000D01*
X20409000Y42135000D01*
X20410000Y42138000D01*
X20412000Y42140000D01*
X20413000Y42142000D01*
X20415000Y42144000D01*
X20416000Y42146000D01*
X20418000Y42148000D01*
X20420000Y42150000D01*
X20422000Y42152000D01*
X20424000Y42154000D01*
X20426000Y42155000D01*
X20428000Y42157000D01*
X20430000Y42158000D01*
X20432000Y42160000D01*
X20435000Y42161000D01*
X20437000Y42162000D01*
X20440000Y42163000D01*
X20442000Y42163000D01*
X20445000Y42164000D01*
X20447000Y42164000D01*
X20450000Y42165000D01*
X20452000Y42165000D01*
X20455000Y42165000D01*
X20745000Y42165000D01*
X20748000Y42165000D01*
X20750000Y42165000D01*
X20753000Y42164000D01*
G36*
X20753000Y42164000D02*
G01*
X20755000Y42164000D01*
X20758000Y42163000D01*
X20760000Y42163000D01*
X20763000Y42162000D01*
X20765000Y42161000D01*
X20768000Y42160000D01*
X20770000Y42158000D01*
X20772000Y42157000D01*
X20774000Y42155000D01*
X20776000Y42154000D01*
X20778000Y42152000D01*
X20780000Y42150000D01*
X20782000Y42148000D01*
X20784000Y42146000D01*
X20785000Y42144000D01*
X20787000Y42142000D01*
X20788000Y42140000D01*
X20790000Y42138000D01*
X20791000Y42135000D01*
X20792000Y42133000D01*
X20793000Y42130000D01*
X20793000Y42128000D01*
X20794000Y42125000D01*
X20794000Y42123000D01*
X20795000Y42120000D01*
X20795000Y42118000D01*
X20795000Y42115000D01*
X20795000Y41575000D01*
X20795000Y41572000D01*
X20795000Y41570000D01*
X20794000Y41567000D01*
X20794000Y41565000D01*
X20793000Y41562000D01*
X20793000Y41560000D01*
X20792000Y41557000D01*
X20791000Y41555000D01*
X20790000Y41552000D01*
X20788000Y41550000D01*
X20787000Y41548000D01*
X20785000Y41546000D01*
X20784000Y41544000D01*
X20782000Y41542000D01*
X20780000Y41540000D01*
X20778000Y41538000D01*
X20776000Y41536000D01*
X20774000Y41535000D01*
X20772000Y41533000D01*
X20770000Y41532000D01*
X20768000Y41530000D01*
X20765000Y41529000D01*
X20763000Y41528000D01*
X20760000Y41527000D01*
X20758000Y41527000D01*
X20755000Y41526000D01*
X20753000Y41526000D01*
X20750000Y41525000D01*
X20748000Y41525000D01*
X20745000Y41525000D01*
X20455000Y41525000D01*
X20452000Y41525000D01*
X20450000Y41525000D01*
X20447000Y41526000D01*
X20445000Y41526000D01*
X20442000Y41527000D01*
X20440000Y41527000D01*
X20437000Y41528000D01*
X20435000Y41529000D01*
X20432000Y41530000D01*
X20430000Y41532000D01*
X20428000Y41533000D01*
X20426000Y41535000D01*
X20424000Y41536000D01*
X20422000Y41538000D01*
X20420000Y41540000D01*
X20418000Y41542000D01*
X20416000Y41544000D01*
X20415000Y41546000D01*
X20413000Y41548000D01*
X20412000Y41550000D01*
X20410000Y41552000D01*
X20409000Y41555000D01*
X20408000Y41557000D01*
X20407000Y41560000D01*
X20407000Y41562000D01*
X20406000Y41565000D01*
X20406000Y41567000D01*
X20405000Y41570000D01*
X20405000Y41572000D01*
X20405000Y41575000D01*
X20405000Y42115000D01*
X20405000Y42118000D01*
X20405000Y42120000D01*
X20406000Y42123000D01*
X20406000Y42125000D01*
X20407000Y42128000D01*
X20407000Y42130000D01*
X20408000Y42133000D01*
X20409000Y42135000D01*
X20410000Y42138000D01*
X20412000Y42140000D01*
X20413000Y42142000D01*
X20415000Y42144000D01*
X20416000Y42146000D01*
X20418000Y42148000D01*
X20420000Y42150000D01*
X20422000Y42152000D01*
X20424000Y42154000D01*
X20426000Y42155000D01*
X20428000Y42157000D01*
X20430000Y42158000D01*
X20432000Y42160000D01*
X20435000Y42161000D01*
X20437000Y42162000D01*
X20440000Y42163000D01*
X20442000Y42163000D01*
X20445000Y42164000D01*
X20447000Y42164000D01*
X20450000Y42165000D01*
X20452000Y42165000D01*
X20455000Y42165000D01*
X20745000Y42165000D01*
X20748000Y42165000D01*
X20750000Y42165000D01*
X20753000Y42164000D01*
G37*
X20753000Y40194000D02*
X20755000Y40194000D01*
X20758000Y40193000D01*
X20760000Y40193000D01*
X20763000Y40192000D01*
X20765000Y40191000D01*
X20768000Y40190000D01*
X20770000Y40188000D01*
X20772000Y40187000D01*
X20774000Y40185000D01*
X20776000Y40184000D01*
X20778000Y40182000D01*
X20780000Y40180000D01*
X20782000Y40178000D01*
X20784000Y40176000D01*
X20785000Y40174000D01*
X20787000Y40172000D01*
X20788000Y40170000D01*
X20790000Y40168000D01*
X20791000Y40165000D01*
X20792000Y40163000D01*
X20793000Y40160000D01*
X20793000Y40158000D01*
X20794000Y40155000D01*
X20794000Y40153000D01*
X20795000Y40150000D01*
X20795000Y40148000D01*
X20795000Y40145000D01*
X20795000Y39605000D01*
X20795000Y39602000D01*
X20795000Y39600000D01*
X20794000Y39597000D01*
X20794000Y39595000D01*
X20793000Y39592000D01*
X20793000Y39590000D01*
X20792000Y39587000D01*
X20791000Y39585000D01*
X20790000Y39582000D01*
X20788000Y39580000D01*
X20787000Y39578000D01*
X20785000Y39576000D01*
X20784000Y39574000D01*
X20782000Y39572000D01*
X20780000Y39570000D01*
X20778000Y39568000D01*
X20776000Y39566000D01*
X20774000Y39565000D01*
X20772000Y39563000D01*
X20770000Y39562000D01*
X20768000Y39560000D01*
X20765000Y39559000D01*
X20763000Y39558000D01*
X20760000Y39557000D01*
X20758000Y39557000D01*
X20755000Y39556000D01*
X20753000Y39556000D01*
X20750000Y39555000D01*
X20748000Y39555000D01*
X20745000Y39555000D01*
X20455000Y39555000D01*
X20452000Y39555000D01*
X20450000Y39555000D01*
X20447000Y39556000D01*
X20445000Y39556000D01*
X20442000Y39557000D01*
X20440000Y39557000D01*
X20437000Y39558000D01*
X20435000Y39559000D01*
X20432000Y39560000D01*
X20430000Y39562000D01*
X20428000Y39563000D01*
X20426000Y39565000D01*
X20424000Y39566000D01*
X20422000Y39568000D01*
X20420000Y39570000D01*
X20418000Y39572000D01*
X20416000Y39574000D01*
X20415000Y39576000D01*
X20413000Y39578000D01*
X20412000Y39580000D01*
X20410000Y39582000D01*
X20409000Y39585000D01*
X20408000Y39587000D01*
X20407000Y39590000D01*
X20407000Y39592000D01*
X20406000Y39595000D01*
X20406000Y39597000D01*
X20405000Y39600000D01*
X20405000Y39602000D01*
X20405000Y39605000D01*
X20405000Y40145000D01*
X20405000Y40148000D01*
X20405000Y40150000D01*
X20406000Y40153000D01*
X20406000Y40155000D01*
X20407000Y40158000D01*
X20407000Y40160000D01*
X20408000Y40163000D01*
X20409000Y40165000D01*
X20410000Y40168000D01*
X20412000Y40170000D01*
X20413000Y40172000D01*
X20415000Y40174000D01*
X20416000Y40176000D01*
X20418000Y40178000D01*
X20420000Y40180000D01*
X20422000Y40182000D01*
X20424000Y40184000D01*
X20426000Y40185000D01*
X20428000Y40187000D01*
X20430000Y40188000D01*
X20432000Y40190000D01*
X20435000Y40191000D01*
X20437000Y40192000D01*
X20440000Y40193000D01*
X20442000Y40193000D01*
X20445000Y40194000D01*
X20447000Y40194000D01*
X20450000Y40195000D01*
X20452000Y40195000D01*
X20455000Y40195000D01*
X20745000Y40195000D01*
X20748000Y40195000D01*
X20750000Y40195000D01*
X20753000Y40194000D01*
G36*
X20753000Y40194000D02*
G01*
X20755000Y40194000D01*
X20758000Y40193000D01*
X20760000Y40193000D01*
X20763000Y40192000D01*
X20765000Y40191000D01*
X20768000Y40190000D01*
X20770000Y40188000D01*
X20772000Y40187000D01*
X20774000Y40185000D01*
X20776000Y40184000D01*
X20778000Y40182000D01*
X20780000Y40180000D01*
X20782000Y40178000D01*
X20784000Y40176000D01*
X20785000Y40174000D01*
X20787000Y40172000D01*
X20788000Y40170000D01*
X20790000Y40168000D01*
X20791000Y40165000D01*
X20792000Y40163000D01*
X20793000Y40160000D01*
X20793000Y40158000D01*
X20794000Y40155000D01*
X20794000Y40153000D01*
X20795000Y40150000D01*
X20795000Y40148000D01*
X20795000Y40145000D01*
X20795000Y39605000D01*
X20795000Y39602000D01*
X20795000Y39600000D01*
X20794000Y39597000D01*
X20794000Y39595000D01*
X20793000Y39592000D01*
X20793000Y39590000D01*
X20792000Y39587000D01*
X20791000Y39585000D01*
X20790000Y39582000D01*
X20788000Y39580000D01*
X20787000Y39578000D01*
X20785000Y39576000D01*
X20784000Y39574000D01*
X20782000Y39572000D01*
X20780000Y39570000D01*
X20778000Y39568000D01*
X20776000Y39566000D01*
X20774000Y39565000D01*
X20772000Y39563000D01*
X20770000Y39562000D01*
X20768000Y39560000D01*
X20765000Y39559000D01*
X20763000Y39558000D01*
X20760000Y39557000D01*
X20758000Y39557000D01*
X20755000Y39556000D01*
X20753000Y39556000D01*
X20750000Y39555000D01*
X20748000Y39555000D01*
X20745000Y39555000D01*
X20455000Y39555000D01*
X20452000Y39555000D01*
X20450000Y39555000D01*
X20447000Y39556000D01*
X20445000Y39556000D01*
X20442000Y39557000D01*
X20440000Y39557000D01*
X20437000Y39558000D01*
X20435000Y39559000D01*
X20432000Y39560000D01*
X20430000Y39562000D01*
X20428000Y39563000D01*
X20426000Y39565000D01*
X20424000Y39566000D01*
X20422000Y39568000D01*
X20420000Y39570000D01*
X20418000Y39572000D01*
X20416000Y39574000D01*
X20415000Y39576000D01*
X20413000Y39578000D01*
X20412000Y39580000D01*
X20410000Y39582000D01*
X20409000Y39585000D01*
X20408000Y39587000D01*
X20407000Y39590000D01*
X20407000Y39592000D01*
X20406000Y39595000D01*
X20406000Y39597000D01*
X20405000Y39600000D01*
X20405000Y39602000D01*
X20405000Y39605000D01*
X20405000Y40145000D01*
X20405000Y40148000D01*
X20405000Y40150000D01*
X20406000Y40153000D01*
X20406000Y40155000D01*
X20407000Y40158000D01*
X20407000Y40160000D01*
X20408000Y40163000D01*
X20409000Y40165000D01*
X20410000Y40168000D01*
X20412000Y40170000D01*
X20413000Y40172000D01*
X20415000Y40174000D01*
X20416000Y40176000D01*
X20418000Y40178000D01*
X20420000Y40180000D01*
X20422000Y40182000D01*
X20424000Y40184000D01*
X20426000Y40185000D01*
X20428000Y40187000D01*
X20430000Y40188000D01*
X20432000Y40190000D01*
X20435000Y40191000D01*
X20437000Y40192000D01*
X20440000Y40193000D01*
X20442000Y40193000D01*
X20445000Y40194000D01*
X20447000Y40194000D01*
X20450000Y40195000D01*
X20452000Y40195000D01*
X20455000Y40195000D01*
X20745000Y40195000D01*
X20748000Y40195000D01*
X20750000Y40195000D01*
X20753000Y40194000D01*
G37*
X20678000Y41379000D02*
X20680000Y41379000D01*
X20683000Y41378000D01*
X20685000Y41378000D01*
X20688000Y41377000D01*
X20690000Y41376000D01*
X20693000Y41375000D01*
X20695000Y41373000D01*
X20697000Y41372000D01*
X20699000Y41370000D01*
X20701000Y41369000D01*
X20703000Y41367000D01*
X20705000Y41365000D01*
X20707000Y41363000D01*
X20709000Y41361000D01*
X20710000Y41359000D01*
X20712000Y41357000D01*
X20713000Y41355000D01*
X20715000Y41353000D01*
X20716000Y41350000D01*
X20717000Y41348000D01*
X20718000Y41345000D01*
X20718000Y41343000D01*
X20719000Y41340000D01*
X20719000Y41338000D01*
X20720000Y41335000D01*
X20720000Y41333000D01*
X20720000Y41330000D01*
X20720000Y40390000D01*
X20720000Y40387000D01*
X20720000Y40385000D01*
X20719000Y40382000D01*
X20719000Y40380000D01*
X20718000Y40377000D01*
X20718000Y40375000D01*
X20717000Y40372000D01*
X20716000Y40370000D01*
X20715000Y40367000D01*
X20713000Y40365000D01*
X20712000Y40363000D01*
X20710000Y40361000D01*
X20709000Y40359000D01*
X20707000Y40357000D01*
X20705000Y40355000D01*
X20703000Y40353000D01*
X20701000Y40351000D01*
X20699000Y40350000D01*
X20697000Y40348000D01*
X20695000Y40347000D01*
X20693000Y40345000D01*
X20690000Y40344000D01*
X20688000Y40343000D01*
X20685000Y40342000D01*
X20683000Y40342000D01*
X20680000Y40341000D01*
X20678000Y40341000D01*
X20675000Y40340000D01*
X20673000Y40340000D01*
X20670000Y40340000D01*
X19030000Y40340000D01*
X19027000Y40340000D01*
X19025000Y40340000D01*
X19022000Y40341000D01*
X19020000Y40341000D01*
X19017000Y40342000D01*
X19015000Y40342000D01*
X19012000Y40343000D01*
X19010000Y40344000D01*
X19007000Y40345000D01*
X19005000Y40347000D01*
X19003000Y40348000D01*
X19001000Y40350000D01*
X18999000Y40351000D01*
X18997000Y40353000D01*
X18995000Y40355000D01*
X18993000Y40357000D01*
X18991000Y40359000D01*
X18990000Y40361000D01*
X18988000Y40363000D01*
X18987000Y40365000D01*
X18985000Y40367000D01*
X18984000Y40370000D01*
X18983000Y40372000D01*
X18982000Y40375000D01*
X18982000Y40377000D01*
X18981000Y40380000D01*
X18981000Y40382000D01*
X18980000Y40385000D01*
X18980000Y40387000D01*
X18980000Y40390000D01*
X18980000Y41330000D01*
X18980000Y41333000D01*
X18980000Y41335000D01*
X18981000Y41338000D01*
X18981000Y41340000D01*
X18982000Y41343000D01*
X18982000Y41345000D01*
X18983000Y41348000D01*
X18984000Y41350000D01*
X18985000Y41353000D01*
X18987000Y41355000D01*
X18988000Y41357000D01*
X18990000Y41359000D01*
X18991000Y41361000D01*
X18993000Y41363000D01*
X18995000Y41365000D01*
X18997000Y41367000D01*
X18999000Y41369000D01*
X19001000Y41370000D01*
X19003000Y41372000D01*
X19005000Y41373000D01*
X19007000Y41375000D01*
X19010000Y41376000D01*
X19012000Y41377000D01*
X19015000Y41378000D01*
X19017000Y41378000D01*
X19020000Y41379000D01*
X19022000Y41379000D01*
X19025000Y41380000D01*
X19027000Y41380000D01*
X19030000Y41380000D01*
X20670000Y41380000D01*
X20673000Y41380000D01*
X20675000Y41380000D01*
X20678000Y41379000D01*
G36*
X20678000Y41379000D02*
G01*
X20680000Y41379000D01*
X20683000Y41378000D01*
X20685000Y41378000D01*
X20688000Y41377000D01*
X20690000Y41376000D01*
X20693000Y41375000D01*
X20695000Y41373000D01*
X20697000Y41372000D01*
X20699000Y41370000D01*
X20701000Y41369000D01*
X20703000Y41367000D01*
X20705000Y41365000D01*
X20707000Y41363000D01*
X20709000Y41361000D01*
X20710000Y41359000D01*
X20712000Y41357000D01*
X20713000Y41355000D01*
X20715000Y41353000D01*
X20716000Y41350000D01*
X20717000Y41348000D01*
X20718000Y41345000D01*
X20718000Y41343000D01*
X20719000Y41340000D01*
X20719000Y41338000D01*
X20720000Y41335000D01*
X20720000Y41333000D01*
X20720000Y41330000D01*
X20720000Y40390000D01*
X20720000Y40387000D01*
X20720000Y40385000D01*
X20719000Y40382000D01*
X20719000Y40380000D01*
X20718000Y40377000D01*
X20718000Y40375000D01*
X20717000Y40372000D01*
X20716000Y40370000D01*
X20715000Y40367000D01*
X20713000Y40365000D01*
X20712000Y40363000D01*
X20710000Y40361000D01*
X20709000Y40359000D01*
X20707000Y40357000D01*
X20705000Y40355000D01*
X20703000Y40353000D01*
X20701000Y40351000D01*
X20699000Y40350000D01*
X20697000Y40348000D01*
X20695000Y40347000D01*
X20693000Y40345000D01*
X20690000Y40344000D01*
X20688000Y40343000D01*
X20685000Y40342000D01*
X20683000Y40342000D01*
X20680000Y40341000D01*
X20678000Y40341000D01*
X20675000Y40340000D01*
X20673000Y40340000D01*
X20670000Y40340000D01*
X19030000Y40340000D01*
X19027000Y40340000D01*
X19025000Y40340000D01*
X19022000Y40341000D01*
X19020000Y40341000D01*
X19017000Y40342000D01*
X19015000Y40342000D01*
X19012000Y40343000D01*
X19010000Y40344000D01*
X19007000Y40345000D01*
X19005000Y40347000D01*
X19003000Y40348000D01*
X19001000Y40350000D01*
X18999000Y40351000D01*
X18997000Y40353000D01*
X18995000Y40355000D01*
X18993000Y40357000D01*
X18991000Y40359000D01*
X18990000Y40361000D01*
X18988000Y40363000D01*
X18987000Y40365000D01*
X18985000Y40367000D01*
X18984000Y40370000D01*
X18983000Y40372000D01*
X18982000Y40375000D01*
X18982000Y40377000D01*
X18981000Y40380000D01*
X18981000Y40382000D01*
X18980000Y40385000D01*
X18980000Y40387000D01*
X18980000Y40390000D01*
X18980000Y41330000D01*
X18980000Y41333000D01*
X18980000Y41335000D01*
X18981000Y41338000D01*
X18981000Y41340000D01*
X18982000Y41343000D01*
X18982000Y41345000D01*
X18983000Y41348000D01*
X18984000Y41350000D01*
X18985000Y41353000D01*
X18987000Y41355000D01*
X18988000Y41357000D01*
X18990000Y41359000D01*
X18991000Y41361000D01*
X18993000Y41363000D01*
X18995000Y41365000D01*
X18997000Y41367000D01*
X18999000Y41369000D01*
X19001000Y41370000D01*
X19003000Y41372000D01*
X19005000Y41373000D01*
X19007000Y41375000D01*
X19010000Y41376000D01*
X19012000Y41377000D01*
X19015000Y41378000D01*
X19017000Y41378000D01*
X19020000Y41379000D01*
X19022000Y41379000D01*
X19025000Y41380000D01*
X19027000Y41380000D01*
X19030000Y41380000D01*
X20670000Y41380000D01*
X20673000Y41380000D01*
X20675000Y41380000D01*
X20678000Y41379000D01*
G37*
D12*
X145250000Y29000000D03*
D13*
X13300000Y78160000D03*
D14*
X13300000Y80660000D03*
X13300000Y83160000D03*
D15*
X6300000Y76260000D03*
X6300000Y85060000D03*
D12*
X12750000Y104200000D03*
X7250000Y30460000D03*
D16*
X144800000Y6760000D03*
X127800000Y6720000D03*
X144800000Y11760000D03*
X127800000Y11800000D03*
X144800000Y9260000D03*
X127800000Y9260000D03*
X130300000Y6760000D03*
X130300000Y11760000D03*
D17*
X137300000Y3760000D03*
X137300000Y14760000D03*
D16*
X6525000Y11435000D03*
X23525000Y11475000D03*
X6525000Y6435000D03*
X23525000Y6395000D03*
X6525000Y8935000D03*
X23525000Y8935000D03*
X21025000Y11435000D03*
X21025000Y6435000D03*
D17*
X14025000Y14435000D03*
X14025000Y3435000D03*
D12*
X145250000Y104200000D03*
D13*
X13300000Y52160000D03*
D14*
X13300000Y54660000D03*
X13300000Y57160000D03*
D15*
X6300000Y50260000D03*
X6300000Y59060000D03*
D18*
X96933320Y72835000D03*
X96933320Y71185000D03*
D19*
X71687500Y100060000D03*
X70112500Y100060000D03*
D20*
X45125000Y38210000D03*
X46675000Y38210000D03*
D21*
X70075000Y91560000D03*
X71725000Y91560000D03*
D22*
X128720000Y22880000D03*
X128720000Y24430000D03*
D21*
X113912500Y72072500D03*
X115562500Y72072500D03*
D23*
X49875000Y43760000D03*
X48325000Y43760000D03*
D21*
X26225000Y69460000D03*
X27875000Y69460000D03*
D18*
X74299996Y72835000D03*
X74299996Y71185000D03*
D24*
X58817500Y37910000D03*
D18*
X120150000Y59735000D03*
X120150000Y58085000D03*
X133660000Y31590000D03*
X133660000Y29940000D03*
D21*
X130315000Y31555000D03*
X131965000Y31555000D03*
D25*
X35650000Y26085000D03*
X35650000Y27735000D03*
D26*
X28670000Y28470000D03*
X28670000Y26920000D03*
D27*
X140175000Y22710000D03*
D28*
X142675000Y22710000D03*
X145175000Y22710000D03*
X147675000Y22710000D03*
D22*
X135650000Y71810000D03*
X135650000Y73360000D03*
D18*
X66216666Y72835000D03*
X66216666Y71185000D03*
D29*
X14100000Y100460000D03*
X14100000Y99960000D03*
X14100000Y99460000D03*
X14100000Y98960000D03*
X14100000Y98460000D03*
X13330000Y98460000D03*
X13330000Y98960000D03*
X13330000Y99460000D03*
X13330000Y99960000D03*
X13330000Y100460000D03*
D30*
X62200000Y64585000D03*
X60550000Y64585000D03*
D21*
X10775000Y68560000D03*
X12425000Y68560000D03*
D31*
X118700000Y56410000D03*
X118700000Y54510000D03*
X49100000Y61660000D03*
X49100000Y59760000D03*
D32*
X46100000Y61560000D03*
X42100000Y61560000D03*
D22*
X39950000Y82785000D03*
X39950000Y84335000D03*
D18*
X82383326Y72835000D03*
X82383326Y71185000D03*
D25*
X58850000Y33385000D03*
X58850000Y35035000D03*
D21*
X48400000Y48210000D03*
X50050000Y48210000D03*
D18*
X71066664Y72835000D03*
X71066664Y71185000D03*
D26*
X60600000Y73935000D03*
X60600000Y72385000D03*
D18*
X46660000Y41475000D03*
X46660000Y39825000D03*
D22*
X128720000Y26380000D03*
X128720000Y27930000D03*
X138450000Y54160000D03*
X138450000Y55710000D03*
D18*
X69449998Y72835000D03*
X69449998Y71185000D03*
X80766660Y72835000D03*
X80766660Y71185000D03*
X87233324Y72835000D03*
X87233324Y71185000D03*
D21*
X130315000Y27805000D03*
X131965000Y27805000D03*
D24*
X53100000Y69360000D03*
D18*
X118450000Y59710000D03*
X118450000Y58060000D03*
D33*
X26720000Y26495000D03*
X25320000Y26495000D03*
D18*
X53700000Y53135000D03*
X53700000Y51485000D03*
D21*
X98575000Y54895000D03*
X100225000Y54895000D03*
X20425000Y44075000D03*
X22075000Y44075000D03*
D34*
X20375000Y103760000D03*
D35*
X22915000Y103760000D03*
X25455000Y103760000D03*
X27995000Y103760000D03*
D30*
X100225000Y60025000D03*
X98575000Y60025000D03*
D36*
X22625000Y74310000D03*
X23275000Y74310000D03*
X23925000Y74310000D03*
X24575000Y74310000D03*
X24575000Y69910000D03*
X23925000Y69910000D03*
X23275000Y69910000D03*
X22625000Y69910000D03*
D24*
X121500000Y55860000D03*
D25*
X124800000Y57985000D03*
X124800000Y59635000D03*
X112312500Y64197500D03*
X112312500Y65847500D03*
D37*
X128137500Y65935000D03*
D38*
X131000000Y69510000D03*
X131000000Y68860000D03*
X131000000Y68210000D03*
X131000000Y67560000D03*
X131000000Y66910000D03*
X131000000Y66260000D03*
X131000000Y65610000D03*
X131000000Y64960000D03*
X131000000Y64310000D03*
X131000000Y63660000D03*
X131000000Y63010000D03*
X131000000Y62360000D03*
X125275000Y62360000D03*
X125275000Y63010000D03*
X125275000Y63660000D03*
X125275000Y64310000D03*
X125275000Y64960000D03*
X125275000Y65610000D03*
X125275000Y66260000D03*
X125275000Y66910000D03*
X125275000Y67560000D03*
X125275000Y68210000D03*
X125275000Y68860000D03*
X125275000Y69510000D03*
D18*
X54600000Y35085000D03*
X54600000Y33435000D03*
D24*
X49200000Y63810000D03*
D23*
X125275000Y71410000D03*
X123725000Y71410000D03*
D30*
X27020000Y32245000D03*
X25370000Y32245000D03*
D39*
X16850000Y69560000D03*
X16850000Y73560000D03*
D40*
X4660000Y70380000D03*
D41*
X4660000Y62880000D03*
D42*
X3795000Y69380000D03*
X3795000Y67880000D03*
X3795000Y67380000D03*
X3795000Y66880000D03*
X3795000Y66380000D03*
X3795000Y65880000D03*
X3795000Y65380000D03*
X3795000Y63880000D03*
X5525000Y63880000D03*
X5525000Y65380000D03*
X5525000Y65880000D03*
X5525000Y66380000D03*
X5525000Y66880000D03*
X5525000Y67380000D03*
X5525000Y67880000D03*
X5525000Y69380000D03*
D43*
X6810000Y69030000D03*
X2510000Y69030000D03*
X6810000Y64230000D03*
X2510000Y64230000D03*
D21*
X70075000Y88260000D03*
X71725000Y88260000D03*
D24*
X74800000Y88260000D03*
D44*
X17700000Y51460000D03*
X17700000Y47460000D03*
D30*
X106400000Y77260000D03*
X104750000Y77260000D03*
D24*
X55300000Y69360000D03*
D45*
X124512500Y76855000D03*
X126087500Y76855000D03*
D18*
X25000000Y90835000D03*
X25000000Y89185000D03*
D24*
X122150000Y79305000D03*
D46*
X121900000Y81805000D03*
X121900000Y83705000D03*
D26*
X44500000Y27285000D03*
X44500000Y25735000D03*
D18*
X54600000Y38835000D03*
X54600000Y37185000D03*
X59100000Y53135000D03*
X59100000Y51485000D03*
D21*
X98575000Y61735000D03*
X100225000Y61735000D03*
D47*
X45150000Y73535000D03*
X45150000Y67610000D03*
D23*
X17525000Y41875000D03*
X15975000Y41875000D03*
D26*
X33100000Y65710000D03*
X33100000Y64160000D03*
X20400000Y74585000D03*
X20400000Y73035000D03*
D18*
X27700000Y90835000D03*
X27700000Y89185000D03*
D48*
X36187500Y65085000D03*
X36187500Y65735000D03*
X36187500Y66385000D03*
X36187500Y67035000D03*
X40412500Y67035000D03*
X40412500Y66385000D03*
X40412500Y65735000D03*
X40412500Y65085000D03*
D25*
X130800000Y71760000D03*
X130800000Y73410000D03*
D49*
X66850000Y55510000D03*
X67350000Y55510000D03*
X67850000Y55510000D03*
X68350000Y55510000D03*
X68850000Y55510000D03*
X69350000Y55510000D03*
X69850000Y55510000D03*
X70350000Y55510000D03*
X70850000Y55510000D03*
X71350000Y55510000D03*
X71850000Y55510000D03*
X72350000Y55510000D03*
X72850000Y55510000D03*
X73350000Y55510000D03*
X73850000Y55510000D03*
X74350000Y55510000D03*
X74850000Y55510000D03*
X75350000Y55510000D03*
X75850000Y55510000D03*
X76350000Y55510000D03*
X76850000Y55510000D03*
X77350000Y55510000D03*
X77850000Y55510000D03*
X78350000Y55510000D03*
X78850000Y55510000D03*
X79350000Y55510000D03*
X79850000Y55510000D03*
X80350000Y55510000D03*
X80850000Y55510000D03*
X81350000Y55510000D03*
X81850000Y55510000D03*
X82350000Y55510000D03*
X82850000Y55510000D03*
X83350000Y55510000D03*
X83850000Y55510000D03*
X84350000Y55510000D03*
X84850000Y55510000D03*
X85350000Y55510000D03*
X85850000Y55510000D03*
X86350000Y55510000D03*
X86850000Y55510000D03*
X87350000Y55510000D03*
X87850000Y55510000D03*
X88350000Y55510000D03*
X88850000Y55510000D03*
X89350000Y55510000D03*
X89850000Y55510000D03*
X90350000Y55510000D03*
X90850000Y55510000D03*
X91350000Y55510000D03*
D50*
X93250000Y52260000D03*
X64950000Y52260000D03*
D18*
X93699988Y72835000D03*
X93699988Y71185000D03*
D22*
X61700000Y98535000D03*
X61700000Y100085000D03*
D25*
X27500000Y46785000D03*
X27500000Y48435000D03*
D18*
X67833332Y72835000D03*
X67833332Y71185000D03*
D51*
X129650000Y81805000D03*
X125450000Y81805000D03*
D22*
X60050000Y98535000D03*
X60050000Y100085000D03*
D23*
X43325000Y84360000D03*
X41775000Y84360000D03*
D21*
X17325000Y44075000D03*
X18975000Y44075000D03*
D24*
X109900000Y64410000D03*
X141400000Y57510000D03*
D22*
X116800000Y58085000D03*
X116800000Y59635000D03*
D21*
X116175000Y69760000D03*
X117825000Y69760000D03*
D25*
X23750000Y28540000D03*
X23750000Y30190000D03*
D18*
X98549986Y72835000D03*
X98549986Y71185000D03*
D23*
X120925000Y64210000D03*
X119375000Y64210000D03*
D46*
X33125000Y60460000D03*
X33125000Y62360000D03*
D21*
X109050000Y77260000D03*
X110700000Y77260000D03*
D19*
X71687500Y98335000D03*
X70112500Y98335000D03*
D26*
X29000000Y84435000D03*
X29000000Y82885000D03*
D27*
X4025000Y22710000D03*
D28*
X6525000Y22710000D03*
X9025000Y22710000D03*
X11525000Y22710000D03*
D20*
X119325000Y68210000D03*
X120875000Y68210000D03*
D23*
X49925000Y37560000D03*
X48375000Y37560000D03*
D26*
X32050000Y31935000D03*
X32050000Y30385000D03*
D20*
X70125000Y89910000D03*
X71675000Y89910000D03*
D52*
X130670000Y29855000D03*
X132070000Y29855000D03*
D18*
X133250000Y59085000D03*
X133250000Y57435000D03*
D53*
X133062500Y80005000D03*
X133062500Y80955000D03*
X133062500Y81905000D03*
X135337500Y81905000D03*
X135337500Y80005000D03*
D30*
X110700000Y78960000D03*
X109050000Y78960000D03*
D21*
X119275000Y69760000D03*
X120925000Y69760000D03*
D26*
X53000000Y73935000D03*
X53000000Y72385000D03*
D30*
X46125000Y65710000D03*
X44475000Y65710000D03*
D25*
X20450000Y85785000D03*
X20450000Y87435000D03*
D54*
X137800000Y63810000D03*
X141800000Y63810000D03*
D26*
X55500000Y73935000D03*
X55500000Y72385000D03*
D24*
X17600000Y94410000D03*
D18*
X103400000Y72835000D03*
X103400000Y71185000D03*
D20*
X109100000Y80660000D03*
X110650000Y80660000D03*
D46*
X139900000Y71560000D03*
X139900000Y73460000D03*
D23*
X120887500Y66622500D03*
X119337500Y66622500D03*
D24*
X57500000Y69360000D03*
D25*
X35675000Y30335000D03*
X35675000Y31985000D03*
X126450000Y57985000D03*
X126450000Y59635000D03*
D30*
X129625000Y76860000D03*
X127975000Y76860000D03*
D21*
X17075000Y38260000D03*
X18725000Y38260000D03*
D18*
X79149994Y72835000D03*
X79149994Y71185000D03*
D31*
X112300000Y62360000D03*
X112300000Y60460000D03*
D30*
X137875000Y78210000D03*
X136225000Y78210000D03*
D55*
X2875000Y5885000D03*
D56*
X2875000Y8385000D03*
X2875000Y10885000D03*
X2875000Y13385000D03*
D21*
X133275000Y55810000D03*
X134925000Y55810000D03*
D18*
X133650000Y24460000D03*
X133650000Y22810000D03*
D20*
X73675000Y98335000D03*
X75225000Y98335000D03*
D57*
X141000000Y69610000D03*
X141000000Y66610000D03*
D18*
X100166652Y72835000D03*
X100166652Y71185000D03*
D33*
X26720000Y30195000D03*
X25320000Y30195000D03*
D18*
X134950000Y59110000D03*
X134950000Y57460000D03*
D25*
X63350000Y98485000D03*
X63350000Y100135000D03*
D18*
X88849990Y72835000D03*
X88849990Y71185000D03*
D26*
X123150000Y59585000D03*
X123150000Y58035000D03*
D45*
X41762500Y82660000D03*
X43337500Y82660000D03*
D18*
X56450000Y35035000D03*
X56450000Y33385000D03*
D23*
X106350000Y80660000D03*
X104800000Y80660000D03*
D26*
X112312500Y68922500D03*
X112312500Y67372500D03*
D58*
X50150000Y41760000D03*
X50150000Y39560000D03*
X48450000Y39560000D03*
X48450000Y41760000D03*
D59*
X54112500Y26680000D03*
X54112500Y27330000D03*
X54112500Y27980000D03*
X54112500Y28630000D03*
X54112500Y29280000D03*
X54112500Y29930000D03*
X54112500Y30580000D03*
D60*
X55000000Y31467500D03*
X55650000Y31467500D03*
X56300000Y31467500D03*
X56950000Y31467500D03*
X57600000Y31467500D03*
X58250000Y31467500D03*
X58900000Y31467500D03*
D59*
X59787500Y30580000D03*
X59787500Y29930000D03*
X59787500Y29280000D03*
X59787500Y28630000D03*
X59787500Y27980000D03*
X59787500Y27330000D03*
X59787500Y26680000D03*
D60*
X58900000Y25792500D03*
X58250000Y25792500D03*
X57600000Y25792500D03*
X56950000Y25792500D03*
X56300000Y25792500D03*
X55650000Y25792500D03*
X55000000Y25792500D03*
D61*
X56950000Y28630000D03*
D25*
X23820000Y32200000D03*
X23820000Y33850000D03*
D18*
X38500000Y49235000D03*
X38500000Y47585000D03*
D22*
X53550000Y98535000D03*
X53550000Y100085000D03*
D21*
X129525000Y60285000D03*
X131175000Y60285000D03*
D23*
X43325000Y89310000D03*
X41775000Y89310000D03*
D22*
X20400000Y69635000D03*
X20400000Y71185000D03*
D20*
X133300000Y54060000D03*
X134850000Y54060000D03*
D25*
X30700000Y82835000D03*
X30700000Y84485000D03*
D22*
X135000000Y63685000D03*
X135000000Y65235000D03*
D24*
X52400000Y37210000D03*
D26*
X28620000Y32270000D03*
X28620000Y30720000D03*
D18*
X24250000Y48485000D03*
X24250000Y46835000D03*
D24*
X133200000Y51310000D03*
D18*
X95316654Y72835000D03*
X95316654Y71185000D03*
D25*
X33862500Y30335000D03*
X33862500Y31985000D03*
D21*
X43575000Y43510000D03*
X45225000Y43510000D03*
X60550000Y69610000D03*
X62200000Y69610000D03*
D26*
X22150000Y42350000D03*
X22150000Y40800000D03*
D18*
X25850000Y48485000D03*
X25850000Y46835000D03*
D22*
X52177500Y28805000D03*
X52177500Y30355000D03*
D20*
X136775000Y58960000D03*
X138325000Y58960000D03*
D25*
X33750000Y26085000D03*
X33750000Y27735000D03*
D23*
X118912500Y72072500D03*
X117362500Y72072500D03*
D18*
X129175000Y73410000D03*
X129175000Y71760000D03*
D30*
X12550000Y88760000D03*
X10900000Y88760000D03*
D22*
X128720000Y29980000D03*
X128720000Y31530000D03*
D62*
X39250000Y26122500D03*
X39250000Y27697500D03*
D52*
X130670000Y22655000D03*
X132070000Y22655000D03*
D18*
X72683330Y72835000D03*
X72683330Y71185000D03*
D30*
X18725000Y36460000D03*
X17075000Y36460000D03*
D18*
X75916662Y72835000D03*
X75916662Y71185000D03*
D21*
X60550000Y67935000D03*
X62200000Y67935000D03*
D20*
X73675000Y100060000D03*
X75225000Y100060000D03*
D63*
X117350000Y64160000D03*
X117350000Y62260000D03*
X115475000Y63210000D03*
D30*
X134725000Y78305000D03*
X133075000Y78305000D03*
D29*
X10000000Y66860000D03*
X10000000Y66360000D03*
X10000000Y65860000D03*
X10000000Y65360000D03*
X10000000Y64860000D03*
X9230000Y64860000D03*
X9230000Y65360000D03*
X9230000Y65860000D03*
X9230000Y66360000D03*
X9230000Y66860000D03*
D23*
X33925000Y68210000D03*
X32375000Y68210000D03*
D25*
X51637500Y48162500D03*
X51637500Y49812500D03*
D30*
X71725000Y93210000D03*
X70075000Y93210000D03*
D25*
X63750000Y64485000D03*
X63750000Y66135000D03*
D30*
X27095000Y24795000D03*
X25445000Y24795000D03*
D26*
X132400000Y73360000D03*
X132400000Y71810000D03*
D18*
X26300000Y72860000D03*
X26300000Y71210000D03*
X55500000Y53135000D03*
X55500000Y51485000D03*
X39300000Y31985000D03*
X39300000Y30335000D03*
D25*
X30700000Y79685000D03*
X30700000Y81335000D03*
D21*
X60550000Y66260000D03*
X62200000Y66260000D03*
D30*
X100225000Y53185000D03*
X98575000Y53185000D03*
D18*
X133680000Y28010000D03*
X133680000Y26360000D03*
X131250000Y58685000D03*
X131250000Y57035000D03*
D64*
X148700000Y12785000D03*
D56*
X148700000Y10285000D03*
X148700000Y7785000D03*
X148700000Y5285000D03*
D65*
X7900000Y43960000D03*
D66*
X13130000Y41290000D03*
X10630000Y38010000D03*
D18*
X85616658Y72835000D03*
X85616658Y71185000D03*
X101783318Y72835000D03*
X101783318Y71185000D03*
D21*
X104750000Y78960000D03*
X106400000Y78960000D03*
D22*
X56150000Y98535000D03*
X56150000Y100085000D03*
D18*
X56500000Y38785000D03*
X56500000Y37135000D03*
D67*
X136850000Y60810000D03*
X138750000Y60810000D03*
D68*
X26805000Y80735000D03*
X25535000Y80735000D03*
X24265000Y80735000D03*
X22995000Y80735000D03*
X22995000Y85685000D03*
X24265000Y85685000D03*
X25535000Y85685000D03*
X26805000Y85685000D03*
D67*
X21050000Y37960000D03*
X22950000Y37960000D03*
D30*
X27095000Y28495000D03*
X25445000Y28495000D03*
D18*
X46200000Y27335000D03*
X46200000Y25685000D03*
D21*
X130315000Y24355000D03*
X131965000Y24355000D03*
D23*
X29775000Y43060000D03*
X28225000Y43060000D03*
D18*
X90466656Y72835000D03*
X90466656Y71185000D03*
D52*
X130670000Y26155000D03*
X132070000Y26155000D03*
D22*
X134000000Y71810000D03*
X134000000Y73360000D03*
D69*
X115625000Y66260000D03*
X115625000Y68160000D03*
X117500000Y67210000D03*
D22*
X57300000Y51535000D03*
X57300000Y53085000D03*
D29*
X14072500Y97297500D03*
X14072500Y96797500D03*
X14072500Y96297500D03*
X14072500Y95797500D03*
X14072500Y95297500D03*
X13302500Y95297500D03*
X13302500Y95797500D03*
X13302500Y96297500D03*
X13302500Y96797500D03*
X13302500Y97297500D03*
D21*
X98575000Y56605000D03*
X100225000Y56605000D03*
D70*
X59387500Y48197500D03*
X59387500Y47697500D03*
X59387500Y47197500D03*
X59387500Y46697500D03*
X59387500Y46197500D03*
X59387500Y45697500D03*
X59387500Y45197500D03*
X59387500Y44697500D03*
D71*
X58700000Y44010000D03*
X58200000Y44010000D03*
X57700000Y44010000D03*
X57200000Y44010000D03*
X56700000Y44010000D03*
X56200000Y44010000D03*
X55700000Y44010000D03*
X55200000Y44010000D03*
D70*
X54512500Y44697500D03*
X54512500Y45197500D03*
X54512500Y45697500D03*
X54512500Y46197500D03*
X54512500Y46697500D03*
X54512500Y47197500D03*
X54512500Y47697500D03*
X54512500Y48197500D03*
D71*
X55200000Y48885000D03*
X55700000Y48885000D03*
X56200000Y48885000D03*
X56700000Y48885000D03*
X57200000Y48885000D03*
X57700000Y48885000D03*
X58200000Y48885000D03*
X58700000Y48885000D03*
D72*
X56950000Y46447500D03*
D18*
X20350000Y91385000D03*
X20350000Y89735000D03*
D20*
X73675000Y96610000D03*
X75225000Y96610000D03*
D25*
X23750000Y24860000D03*
X23750000Y26510000D03*
D73*
X36375000Y61660000D03*
X39325000Y61660000D03*
D18*
X92083322Y72835000D03*
X92083322Y71185000D03*
X136750000Y55785000D03*
X136750000Y54135000D03*
D22*
X50800000Y98535000D03*
X50800000Y100085000D03*
D18*
X77533328Y72835000D03*
X77533328Y71185000D03*
D22*
X40600000Y47635000D03*
X40600000Y49185000D03*
D34*
X40025000Y2285000D03*
D35*
X37485000Y2285000D03*
X34945000Y2285000D03*
X32405000Y2285000D03*
X29865000Y2285000D03*
D23*
X62150000Y62910000D03*
X60600000Y62910000D03*
D18*
X83999992Y72835000D03*
X83999992Y71185000D03*
D21*
X10775000Y70260000D03*
X12425000Y70260000D03*
D25*
X37487500Y30335000D03*
X37487500Y31985000D03*
D18*
X64600000Y72835000D03*
X64600000Y71185000D03*
D26*
X28670000Y24795000D03*
X28670000Y23245000D03*
D21*
X136675000Y57360000D03*
X138325000Y57360000D03*
D19*
X71687500Y96610000D03*
X70112500Y96610000D03*
D74*
X40762500Y42810000D03*
X40762500Y42310000D03*
X40762500Y41810000D03*
X40762500Y41310000D03*
X40762500Y40810000D03*
X40762500Y40310000D03*
X40762500Y39810000D03*
X40762500Y39310000D03*
X40762500Y38810000D03*
X40762500Y38310000D03*
X40762500Y37810000D03*
X40762500Y37310000D03*
D75*
X39350000Y35897500D03*
X38850000Y35897500D03*
X38350000Y35897500D03*
X37850000Y35897500D03*
X37350000Y35897500D03*
X36850000Y35897500D03*
X36350000Y35897500D03*
X35850000Y35897500D03*
X35350000Y35897500D03*
X34850000Y35897500D03*
X34350000Y35897500D03*
X33850000Y35897500D03*
D74*
X32437500Y37310000D03*
X32437500Y37810000D03*
X32437500Y38310000D03*
X32437500Y38810000D03*
X32437500Y39310000D03*
X32437500Y39810000D03*
X32437500Y40310000D03*
X32437500Y40810000D03*
X32437500Y41310000D03*
X32437500Y41810000D03*
X32437500Y42310000D03*
X32437500Y42810000D03*
D75*
X33850000Y44222500D03*
X34350000Y44222500D03*
X34850000Y44222500D03*
X35350000Y44222500D03*
X35850000Y44222500D03*
X36350000Y44222500D03*
X36850000Y44222500D03*
X37350000Y44222500D03*
X37850000Y44222500D03*
X38350000Y44222500D03*
X38850000Y44222500D03*
X39350000Y44222500D03*
D76*
X135370000Y83985000D03*
X133470000Y83985000D03*
D18*
X42880000Y65835000D03*
X42880000Y64185000D03*
D77*
X63800000Y93210000D03*
X63800000Y92710000D03*
X63800000Y92210000D03*
X63800000Y91710000D03*
X63800000Y91210000D03*
X63800000Y90710000D03*
X63800000Y90210000D03*
X63800000Y89710000D03*
X63800000Y89210000D03*
X63800000Y88710000D03*
X63800000Y88210000D03*
X63800000Y87710000D03*
X63800000Y87210000D03*
X63800000Y86710000D03*
X63800000Y86210000D03*
X63800000Y85710000D03*
X63800000Y85210000D03*
X63800000Y84710000D03*
X63800000Y84210000D03*
X63800000Y83710000D03*
X63800000Y83210000D03*
X63800000Y82710000D03*
X63800000Y82210000D03*
X63800000Y81710000D03*
X63800000Y81210000D03*
D78*
X62120000Y79530000D03*
X61620000Y79530000D03*
X61120000Y79530000D03*
X60620000Y79530000D03*
X60120000Y79530000D03*
X59620000Y79530000D03*
X59120000Y79530000D03*
X58620000Y79530000D03*
X58120000Y79530000D03*
X57620000Y79530000D03*
X57120000Y79530000D03*
X56620000Y79530000D03*
X56120000Y79530000D03*
X55620000Y79530000D03*
X55120000Y79530000D03*
X54620000Y79530000D03*
X54120000Y79530000D03*
X53620000Y79530000D03*
X53120000Y79530000D03*
X52620000Y79530000D03*
X52120000Y79530000D03*
X51620000Y79530000D03*
X51120000Y79530000D03*
X50620000Y79530000D03*
X50120000Y79530000D03*
D77*
X48440000Y81210000D03*
X48440000Y81710000D03*
X48440000Y82210000D03*
X48440000Y82710000D03*
X48440000Y83210000D03*
X48440000Y83710000D03*
X48440000Y84210000D03*
X48440000Y84710000D03*
X48440000Y85210000D03*
X48440000Y85710000D03*
X48440000Y86210000D03*
X48440000Y86710000D03*
X48440000Y87210000D03*
X48440000Y87710000D03*
X48440000Y88210000D03*
X48440000Y88710000D03*
X48440000Y89210000D03*
X48440000Y89710000D03*
X48440000Y90210000D03*
X48440000Y90710000D03*
X48440000Y91210000D03*
X48440000Y91710000D03*
X48440000Y92210000D03*
X48440000Y92710000D03*
X48440000Y93210000D03*
D78*
X50120000Y94890000D03*
X50620000Y94890000D03*
X51120000Y94890000D03*
X51620000Y94890000D03*
X52120000Y94890000D03*
X52620000Y94890000D03*
X53120000Y94890000D03*
X53620000Y94890000D03*
X54120000Y94890000D03*
X54620000Y94890000D03*
X55120000Y94890000D03*
X55620000Y94890000D03*
X56120000Y94890000D03*
X56620000Y94890000D03*
X57120000Y94890000D03*
X57620000Y94890000D03*
X58120000Y94890000D03*
X58620000Y94890000D03*
X59120000Y94890000D03*
X59620000Y94890000D03*
X60120000Y94890000D03*
X60620000Y94890000D03*
X61120000Y94890000D03*
X61620000Y94890000D03*
X62120000Y94890000D03*
D79*
X56120000Y87210000D03*
D20*
X98625000Y58315000D03*
X100175000Y58315000D03*
D33*
X26770000Y33945000D03*
X25370000Y33945000D03*
M02*
